<?xml version="1.0" encoding="UTF-8" standalone="no"?>
<svg width="1549px" height="675px" viewBox="0 0 1549 675" version="1.1" xmlns="http://www.w3.org/2000/svg" xmlns:xlink="http://www.w3.org/1999/xlink" xmlns:sketch="http://www.bohemiancoding.com/sketch/ns">
    <!-- Generator: Sketch 3.3.1 (12005) - http://www.bohemiancoding.com/sketch -->
    <title>ashwapluslogo</title>
    <desc>Created with Sketch.</desc>
    <defs></defs>
    <g id="Page-1" stroke="none" stroke-width="1" fill="none" fill-rule="evenodd" sketch:type="MSPage">
        <g id="ashwapluslogo" sketch:type="MSLayerGroup">
            <path d="M1239,509 C1241,510 1236,507 1239,509 L1239,509 Z M1291,157 C1300,155 1309,153 1318,150 C1325,154 1330,160 1332,165 C1332,168 1332,165 1331,168 C1332,168 1333,168 1334,169 C1334,168 1335,167 1336,167 C1337,167 1337,168 1338,168 C1341,167 1338,168 1340,166 L1340,165 C1339,164 1339,164 1338,164 C1342,162 1345,161 1349,159 C1348,159 1347,159 1346,160 C1347,156 1349,158 1352,159 C1353,159 1353,158 1354,158 C1353,157 1353,156 1352,155 C1354,155 1355,155 1357,154 C1358,153 1359,151 1359,150 C1359,150 1359,149 1358,149 L1359,149 C1361,148 1362,148 1363,147 L1366,147 C1368,146 1370,146 1372,145 C1373,145 1374,146 1375,146 C1376,145 1376,145 1376,144 C1378,144 1379,143 1380,143 C1380,144 1380,145 1379,145 C1384,144 1382,146 1384,146 C1388,145 1386,140 1386,134 C1388,134 1389,134 1390,133 C1393,136 1397,139 1400,141 C1403,138 1406,135 1408,132 C1409,131 1410,131 1411,130 L1414,136 C1413,139 1412,142 1412,145 C1412,146 1413,147 1413,148 C1420,148 1423,151 1426,154 C1430,156 1436,160 1440,162 C1442,164 1459,181 1458,183 L1460,183 C1461,184 1461,184 1461,185 L1462,184 L1463,185 L1464,186 L1464,187 C1464,187 1465,188 1466,188 C1466,190 1469,191 1470,192 C1472,195 1474,195 1478,198 C1482,200 1496,210 1496,210 C1492,221 1498,217 1488,229 C1485,230 1482,230 1479,231 C1479,232 1480,233 1481,234 C1476,234 1476,239 1469,234 C1461,231 1463,228 1458,234 C1454,231 1454,227 1449,227 C1444,227 1442,228 1438,227 C1430,225 1428,221 1416,224 C1414,223 1412,222 1411,222 C1409,223 1408,223 1406,223 C1406,224 1407,225 1407,226 C1407,226 1406,226 1406,225 C1404,228 1403,230 1401,233 C1401,235 1400,239 1398,244 C1398,245 1395,254 1394,254 C1394,258 1388,276 1388,276 L1388,277 C1388,278 1387,278 1387,278 C1386,280 1386,282 1386,284 C1385,284 1385,284 1385,285 L1384,285 L1384,287 L1383,287 C1382,291 1381,296 1380,301 L1380,300 C1380,301 1379,301 1379,301 L1379,307 C1380,315 1385,319 1383,328 C1383,331 1381,338 1379,342 C1378,345 1372,353 1373,355 L1372,355 C1371,355 1370,356 1369,356 C1369,357 1370,357 1370,357 C1369,358 1367,360 1366,361 C1366,362 1367,363 1367,363 C1367,364 1376,373 1376,373 C1379,377 1376,375 1379,378 C1382,379 1383,380 1384,383 C1387,386 1400,400 1400,403 L1403,403 C1402,407 1411,407 1413,414 C1414,417 1414,426 1408,428 L1408,430 C1403,429 1395,449 1389,452 C1391,455 1383,463 1381,468 L1379,467 C1378,467 1377,468 1376,468 C1375,468 1374,468 1373,469 C1371,469 1370,469 1369,470 C1366,471 1363,472 1361,473 C1360,473 1360,473 1360,474 C1358,474 1357,475 1356,475 C1355,476 1354,476 1353,476 C1352,476 1350,477 1349,477 C1347,477 1346,476 1344,476 C1341,477 1338,477 1335,478 C1327,474 1333,464 1338,462 C1338,462 1338,461 1337,461 C1342,459 1346,457 1350,455 L1353,458 L1354,457 L1355,457 L1355,458 C1356,459 1357,459 1357,459 C1359,458 1360,457 1361,456 C1362,455 1362,454 1362,453 C1367,451 1383,440 1381,437 C1384,436 1385,435 1383,433 C1389,431 1389,423 1391,419 C1382,411 1382,413 1373,407 C1369,405 1367,405 1362,403 C1359,401 1356,397 1354,399 L1351,396 C1350,396 1350,396 1350,397 C1350,396 1350,395 1349,394 C1342,395 1341,386 1333,390 C1330,391 1318,400 1318,400 C1316,403 1313,426 1314,428 L1312,430 C1314,433 1310,445 1309,452 C1309,456 1308,462 1309,463 C1309,467 1305,470 1306,474 C1301,475 1301,482 1291,485 C1290,486 1289,486 1287,486 C1282,487 1271,491 1261,497 C1251,503 1247,508 1239,509 L1239,509 C1240,513 1241,518 1242,522 L1241,522 C1240,523 1240,523 1239,523 C1240,524 1240,526 1241,527 L1240,527 C1239,530 1238,534 1237,538 L1231,535 C1231,535 1231,535 1232,534 C1231,535 1230,535 1229,535 C1229,533 1222,528 1221,527 C1218,524 1221,518 1221,516 C1220,514 1220,514 1218,513 C1217,513 1215,513 1214,514 C1213,514 1212,514 1210,515 C1206,515 1202,516 1198,517 C1200,513 1201,503 1207,501 L1207,499 L1208,499 C1207,498 1207,497 1207,496 C1205,495 1204,494 1202,493 C1201,492 1200,491 1198,490 C1196,488 1194,487 1193,486 C1188,483 1183,479 1178,476 C1177,475 1175,474 1174,474 C1174,473 1174,473 1175,472 C1171,473 1161,466 1156,464 C1153,463 1140,457 1139,452 C1139,452 1139,452 1138,452 C1137,446 1149,432 1147,428 C1151,427 1152,415 1151,412 C1148,415 1144,418 1141,422 L1142,422 C1138,421 1137,425 1133,428 C1129,430 1130,431 1127,431 C1126,433 1123,433 1122,434 C1115,440 1104,443 1107,453 C1107,455 1121,474 1124,478 C1126,480 1142,502 1144,501 L1144,502 C1145,503 1145,504 1146,505 L1146,504 C1147,504 1147,504 1147,505 C1147,505 1149,515 1149,517 C1151,521 1149,526 1151,529 C1151,530 1150,530 1149,530 C1151,533 1140,542 1136,547 L1133,547 C1132,546 1129,540 1129,538 C1127,532 1124,532 1129,526 C1131,522 1131,519 1130,514 C1129,512 1127,509 1126,506 L1125,506 L1125,504 C1125,503 1118,492 1115,489 C1114,488 1104,476 1103,475 C1103,475 1103,475 1103,476 L1102,475 L1103,475 L1085,457 C1084,457 1083,457 1082,458 C1082,457 1082,457 1083,457 C1080,454 1077,452 1074,449 L1074,450 L1073,450 L1074,450 L1070,446 C1072,436 1064,434 1078,427 C1081,426 1083,423 1089,422 C1092,420 1092,418 1097,416 C1095,414 1102,412 1100,408 C1106,406 1102,397 1097,397 C1098,392 1086,389 1083,385 C1082,382 1071,372 1071,372 C1067,373 1069,377 1063,379 C1064,380 1061,393 1058,394 C1058,394 1058,395 1059,395 C1053,399 1047,403 1040,407 C1041,407 1041,408 1042,408 C1037,410 1029,429 1023,431 C1023,433 1022,436 1021,438 L1021,439 L1020,439 C1020,439 1020,439 1019,438 L1019,439 C1018,439 1016,440 1016,440 C1015,440 1014,443 1013,445 C1012,444 1012,443 1012,442 C1011,443 1009,444 1008,445 L1008,444 C1011,441 1014,437 1016,434 L1016,433 C1013,434 1010,436 1006,438 L1006,434 C1006,433 1006,432 1007,431 C1006,430 1006,429 1005,428 L1006,428 C1007,426 1009,425 1010,423 C1009,423 1008,424 1007,424 C1006,423 1006,422 1005,421 C1008,419 1011,416 1014,414 C1013,413 1013,412 1013,411 C1012,411 1011,411 1010,410 L1007,413 C1007,412 1008,411 1008,410 C1008,408 1007,406 1007,405 C1008,404 1010,404 1011,404 C1013,403 1014,402 1013,401 C1013,400 1012,400 1011,398 C1012,397 1013,396 1014,396 C1012,393 1012,393 1006,395 C1005,397 1003,400 1002,403 C1002,403 1001,403 1001,402 C1001,402 1002,401 1002,400 C1001,400 1001,399 1000,398 L1001,397 C1001,395 1001,394 1000,392 C1000,390 999,387 998,385 C1003,382 998,375 1005,372 C1003,369 1012,354 1018,352 C1019,352 1021,352 1022,351 C1025,349 1027,346 1030,343 C1031,342 1031,340 1032,339 C1032,339 1032,339 1033,340 C1032,335 1035,334 1038,333 C1039,332 1041,328 1044,327 C1049,323 1054,323 1057,315 C1064,314 1063,312 1067,311 L1070,311 C1071,310 1072,310 1074,310 C1085,308 1100,285 1105,284 C1106,284 1107,283 1108,283 C1108,280 1118,274 1121,273 C1129,270 1130,271 1136,268 C1137,268 1139,268 1140,267 L1143,267 C1149,265 1170,265 1176,266 C1177,265 1177,263 1177,262 L1178,262 C1179,261 1181,260 1182,259 C1186,259 1190,258 1194,257 C1193,253 1188,253 1185,248 C1183,242 1182,244 1181,239 C1180,234 1186,217 1185,215 C1188,214 1187,212 1189,210 C1192,206 1192,210 1195,204 C1209,196 1223,188 1238,181 C1241,181 1244,181 1246,180 C1248,180 1249,180 1250,179 C1255,178 1256,175 1266,173 C1271,175 1272,177 1278,176 C1285,174 1288,165 1286,164 C1287,164 1287,164 1287,163 C1288,161 1290,159 1291,157 L1291,157 Z M1276,489 C1278,490 1274,488 1276,489 L1276,489 Z M1131,524 C1129,523 1133,526 1131,524 L1131,524 Z M1150,518 C1152,519 1147,517 1150,518 L1150,518 Z M1204,377 C1210,380 1217,380 1224,381 C1226,381 1242,381 1245,378 C1245,379 1245,379 1246,379 C1253,378 1261,376 1268,375 C1270,379 1272,383 1273,387 C1274,389 1274,390 1275,392 C1277,394 1287,417 1282,420 C1282,422 1283,424 1283,426 C1284,428 1284,427 1282,429 C1284,431 1283,428 1284,431 C1285,437 1287,463 1286,466 C1280,476 1264,482 1253,484 C1251,485 1250,485 1249,485 L1237,485 C1236,486 1235,486 1234,487 L1234,490 C1234,490 1234,490 1233,491 C1232,492 1231,492 1230,493 C1224,488 1227,488 1220,485 C1217,484 1210,480 1211,478 C1207,479 1201,473 1199,471 L1184,459 L1184,460 C1184,457 1180,455 1178,449 L1178,447 C1177,442 1182,426 1185,421 C1187,417 1188,414 1191,410 C1193,406 1194,400 1195,399 C1195,398 1195,398 1196,398 L1196,398 C1199,391 1202,384 1204,377 L1204,377 Z M1186,421 C1184,423 1187,419 1186,421 L1186,421 Z M1184,423 C1183,425 1186,421 1184,423 L1184,423 Z M1411,424 C1414,425 1409,422 1411,424 L1411,424 Z M1129,484 C1131,486 1127,483 1129,484 L1129,484 Z M1108,480 C1107,482 1110,478 1108,480 L1108,480 Z M1375,408 C1373,410 1376,405 1375,408 L1375,408 Z M1141,454 C1140,456 1142,452 1141,454 L1141,454 Z M1140,447 C1138,445 1142,448 1140,447 L1140,447 Z M1321,398 C1319,400 1322,396 1321,398 L1321,398 Z M1145,436 C1143,435 1147,438 1145,436 L1145,436 Z M1146,434 C1144,433 1148,435 1146,434 L1146,434 Z M1128,431 C1127,433 1129,429 1128,431 L1128,431 Z M1083,425 C1081,424 1086,426 1083,425 L1083,425 Z M1012,442 C1013,442 1014,442 1015,441 C1014,442 1013,442 1012,442 L1012,442 Z M1010,442 C1008,441 1012,444 1010,442 L1010,442 Z M1016,439 L1015,439 C1016,438 1016,437 1017,436 C1017,437 1016,438 1016,439 L1016,439 Z M1021,435 C1020,436 1019,436 1018,436 C1019,436 1020,436 1021,435 L1021,435 Z M1006,434 C1004,433 1009,436 1006,434 L1006,434 Z M1379,341 C1381,343 1377,340 1379,341 L1379,341 Z M1052,398 C1054,400 1050,397 1052,398 L1052,398 Z M1380,312 C1383,314 1378,311 1380,312 L1380,312 Z M1010,362 C1007,360 1012,363 1010,362 L1010,362 Z M1033,338 C1031,336 1035,339 1033,338 L1033,338 Z M1491,224 C1493,226 1489,223 1491,224 L1491,224 Z M1494,220 C1496,221 1492,219 1494,220 L1494,220 Z M1058,317 C1056,316 1060,318 1058,317 L1058,317 Z M1083,306 C1081,304 1085,307 1083,306 L1083,306 Z M1415,223 C1414,225 1417,221 1415,223 L1415,223 Z M1110,280 C1111,278 1108,282 1110,280 L1110,280 Z M1341,167 C1338,166 1343,169 1341,167 L1341,167 Z M1241,181 C1242,179 1239,183 1241,181 L1241,181 Z M1237,183 C1235,181 1240,184 1237,183 L1237,183 Z M1376,146 C1374,145 1378,147 1376,146 L1376,146 Z M1367,147 C1368,145 1366,149 1367,147 L1367,147 Z M1327,157 C1328,155 1326,159 1327,157 L1327,157 Z" id="Shape" fill="#373435" sketch:type="MSShapeGroup"></path>
            <path d="M314,571 L239,571 L239,563 C244,563 248,562 252,560 C257,558 260,554 260,550 C260,548 258,543 255,535 L241,499 L174,499 C168,513 162,523 158,529 C151,540 143,551 133,562 C124,572 113,579 100,585 C87,591 74,594 61,594 C43,594 29,588 17,578 C6,567 0,553 0,537 C0,520 6,505 18,493 C29,481 43,474 58,474 C66,474 73,476 78,480 C83,484 86,488 86,494 C86,498 84,501 81,504 C77,508 73,509 69,509 C66,509 62,507 57,504 C52,500 48,498 44,498 C36,498 29,501 23,509 C18,517 15,525 15,535 C15,548 19,559 28,567 C37,576 48,580 61,580 C77,580 94,575 110,564 C126,553 139,537 150,518 C158,504 167,484 177,458 C187,434 192,419 192,415 C192,403 181,397 159,397 C146,397 136,400 128,406 C120,412 115,420 115,429 C115,432 116,436 118,439 C120,443 123,444 126,444 C127,444 130,443 133,440 C137,437 140,435 143,435 C148,435 151,436 154,439 C157,443 159,446 159,450 C159,455 157,459 153,463 C148,466 143,467 136,467 C126,467 117,464 109,457 C102,450 98,441 98,431 C98,418 104,407 116,398 C128,390 144,386 164,386 C172,386 182,386 192,388 C202,389 206,389 205,389 L227,389 L281,526 C286,539 290,548 292,551 C298,559 305,563 314,563 L314,571 L314,571 Z M238,488 L208,413 L179,488 L238,488 L238,488 Z M434,530 C434,542 429,553 419,561 C408,569 395,573 379,573 C362,573 348,569 336,560 L333,571 L324,571 L315,524 L325,524 C326,532 331,540 340,548 C351,557 363,562 377,562 C387,562 395,560 402,555 C408,551 412,545 412,539 C412,530 407,524 396,522 L349,509 C329,504 319,492 319,475 C319,465 324,457 334,450 C343,443 355,439 368,439 C382,439 394,443 405,451 L409,442 L416,442 L425,483 L416,483 C412,473 405,464 396,458 C388,453 379,450 369,450 C361,450 355,452 350,455 C345,459 342,463 342,469 C342,477 348,483 359,486 L404,497 C414,499 421,503 426,509 C432,514 434,521 434,530 L434,530 Z M615,571 L543,571 L543,563 C552,563 558,561 562,558 C565,555 567,549 567,541 L567,478 C567,461 560,453 544,453 C530,453 515,459 498,470 L498,541 C498,549 500,554 503,558 C506,561 511,563 520,563 L520,571 L448,571 L448,563 C457,563 463,561 467,558 C471,555 472,549 472,541 L472,452 C472,428 481,409 499,394 C516,380 539,372 567,372 C578,372 587,374 594,377 C601,381 605,385 605,391 C605,394 603,397 601,399 C599,401 596,402 593,402 C590,403 587,401 584,399 C582,396 579,394 577,391 C570,385 563,382 556,382 C544,382 534,384 526,389 C519,393 512,400 505,409 C501,414 499,422 498,435 L498,461 C516,447 534,439 552,439 C565,439 575,442 582,449 C589,454 593,462 593,470 L593,541 C593,556 600,563 615,563 L615,571 L615,571 Z M933,416 C933,419 931,422 929,424 C926,427 923,428 920,428 C918,428 912,424 903,417 C894,410 886,406 880,406 C865,406 852,414 841,429 C836,435 827,451 813,476 C802,498 790,530 778,571 L760,571 L734,494 L701,571 L683,571 L646,467 C642,456 635,450 623,450 L623,442 L687,442 L687,450 C680,450 675,451 673,453 C671,454 670,456 670,459 C670,462 672,467 675,477 L700,547 L728,479 L720,461 C719,457 715,454 710,452 C706,451 703,450 701,450 L701,442 L761,442 L761,450 C751,450 746,453 746,458 C746,461 747,466 749,473 L774,546 C777,537 780,528 783,520 C791,500 798,485 803,473 C818,446 829,427 838,417 C852,401 870,393 890,393 C900,393 910,395 919,400 C928,405 933,410 933,416 L933,416 Z M1468,506 C1445,540 1436,570 1374,570 C1229,571 959,571 956,571 C947,569 938,564 934,554 C918,567 901,573 885,573 C873,573 863,570 855,564 C847,558 843,550 843,541 C843,528 851,517 867,509 C881,502 904,498 934,495 L934,475 C934,458 923,450 901,450 C884,450 875,456 875,467 C875,478 871,484 862,484 C859,484 856,483 853,480 C850,478 849,475 849,472 C849,463 855,455 867,449 C878,442 892,439 909,439 C923,439 935,442 945,448 C955,455 960,463 960,475 L960,537 C960,553 965,561 976,561 C1102,561 1232,562 1360,561 C1392,561 1421,549 1441,506 L1468,506 L1468,506 Z M934,542 L934,504 C916,507 903,509 895,512 C878,518 870,527 870,539 C870,545 872,551 877,554 C882,558 888,560 895,560 C907,560 920,554 934,542 L934,542 Z" id="Shape" fill="#373435" sketch:type="MSShapeGroup"></path>
            <path d="M1039,597 L983,597 L983,621 L1039,621 C1043,621 1046,621 1047,620 C1049,619 1050,617 1050,614 L1050,605 C1050,602 1049,600 1047,599 C1046,598 1043,597 1039,597 L1039,597 Z M959,672 L959,582 L1049,582 C1058,582 1064,583 1068,586 C1072,589 1073,593 1073,599 L1073,620 C1073,626 1072,630 1068,633 C1064,636 1058,637 1049,637 L983,637 L983,672 L959,672 L959,672 Z M1104,672 L1104,598 L1125,598 L1125,658 L1193,658 L1193,672 L1104,672 L1104,672 Z M1242,598 L1242,658 L1303,658 L1303,598 L1324,598 L1324,655 C1324,662 1323,666 1319,669 C1316,671 1310,672 1301,672 L1244,672 C1235,672 1229,671 1226,669 C1223,666 1221,662 1221,655 L1221,598 L1242,598 L1242,598 Z M1443,611 L1383,611 L1383,627 L1440,627 C1449,627 1455,628 1458,631 C1461,633 1463,638 1463,645 L1463,655 C1463,662 1461,666 1458,669 C1455,671 1449,672 1440,672 L1384,672 C1375,672 1369,671 1365,669 C1362,666 1361,662 1361,655 L1361,653 L1380,650 L1380,658 L1444,658 L1444,642 L1387,642 C1378,642 1372,640 1369,638 C1366,635 1364,631 1364,624 L1364,616 C1364,609 1366,604 1369,602 C1372,599 1378,598 1387,598 L1439,598 C1448,598 1454,599 1457,602 C1460,604 1462,608 1462,614 L1462,616 L1443,619 L1443,611 L1443,611 Z" id="Shape" fill="#E60D2E" sketch:type="MSShapeGroup"></path>
            <path d="M1549,550 L1549,579 L1443,579 L1443,550 L1549,550 L1549,550 Z M1482,511 L1511,511 L1511,617 L1482,617 L1482,511 L1482,511 Z" id="Shape" fill="#373435" sketch:type="MSShapeGroup"></path>
            <path d="M43,617 L928,617" id="Shape" stroke="#373435" stroke-width="6.94094" sketch:type="MSShapeGroup"></path>
            <path d="M1002,337 L1002,366 L896,366 L896,337 L1002,337 L1002,337 Z M934,299 L963,299 L963,405 L934,405 L934,299 L934,299 Z" id="Shape" fill="#E60D2E" sketch:type="MSShapeGroup"></path>
            <path d="M781,273 L807,273 L807,370 L781,370 L781,273 L781,273 Z" id="Shape" fill-opacity="0.501961" fill="#E60D2E" sketch:type="MSShapeGroup"></path>
            <path d="M843,308 L843,335 L745,335 L745,308 L843,308 L843,308 Z" id="Shape" fill-opacity="0.501961" fill="#E60D2E" sketch:type="MSShapeGroup"></path>
            <path d="M891,202 L916,202 L916,292 L891,292 L891,202 L891,202 Z" id="Shape" fill-opacity="0.501961" fill="#E60D2E" sketch:type="MSShapeGroup"></path>
            <path d="M948,235 L948,259 L859,259 L859,235 L948,235 L948,235 Z" id="Shape" fill-opacity="0.501961" fill="#E60D2E" sketch:type="MSShapeGroup"></path>
            <path d="M733,144 L756,144 L756,226 L733,226 L733,144 L733,144 Z" id="Shape" fill-opacity="0.501961" fill="#E60D2E" sketch:type="MSShapeGroup"></path>
            <path d="M785,174 L785,196 L704,196 L704,174 L785,174 L785,174 Z" id="Shape" fill-opacity="0.501961" fill="#E60D2E" sketch:type="MSShapeGroup"></path>
            <path d="M856,94 L876,94 L876,167 L856,167 L856,94 L856,94 Z" id="Shape" fill-opacity="0.501961" fill="#E60D2E" sketch:type="MSShapeGroup"></path>
            <path d="M902,120 L902,140 L829,140 L829,120 L902,120 L902,120 Z" id="Shape" fill-opacity="0.501961" fill="#E60D2E" sketch:type="MSShapeGroup"></path>
            <path d="M785,49 L802,49 L802,113 L785,113 L785,49 L785,49 Z" id="Shape" fill-opacity="0.501961" fill="#E60D2E" sketch:type="MSShapeGroup"></path>
            <path d="M826,72 L826,90 L761,90 L761,72 L826,72 L826,72 Z" id="Shape" fill-opacity="0.501961" fill="#E60D2E" sketch:type="MSShapeGroup"></path>
            <path d="M700,48 L715,48 L715,105 L700,105 L700,48 L700,48 Z" id="Shape" fill-opacity="0.501961" fill="#E60D2E" sketch:type="MSShapeGroup"></path>
            <path d="M736,69 L736,84 L679,84 L679,69 L736,69 L736,69 Z" id="Shape" fill-opacity="0.501961" fill="#E60D2E" sketch:type="MSShapeGroup"></path>
            <path d="M651,1 L664,1 L664,49 L651,49 L651,1 L651,1 Z" id="Shape" fill-opacity="0.501961" fill="#E60D2E" sketch:type="MSShapeGroup"></path>
            <path d="M682,18 L682,31 L634,31 L634,18 L682,18 L682,18 Z" id="Shape" fill-opacity="0.501961" fill="#E60D2E" sketch:type="MSShapeGroup"></path>
            <path d="M599,14 L599,25 L559,25 L559,14 L599,14 L599,14 Z M573,0 L584,0 L584,40 L573,40 L573,0 L573,0 Z" id="Shape" fill-opacity="0.501961" fill="#E60D2E" sketch:type="MSShapeGroup"></path>
            <path d="M65,664 L71,663 C71,665 72,666 73,667 C74,668 75,669 77,670 C79,671 82,671 84,671 C86,671 88,671 90,670 C92,670 93,669 94,668 C95,667 95,666 95,665 C95,664 95,663 94,663 C93,662 92,661 90,661 C89,660 86,660 82,659 C78,658 75,657 73,657 C71,656 69,655 68,654 C67,652 67,651 67,649 C67,648 67,646 69,645 C70,643 72,642 74,641 C77,641 80,640 83,640 C86,640 89,641 92,641 C94,642 96,643 97,645 C99,647 100,648 100,650 L94,651 C94,648 93,647 91,646 C89,645 86,644 83,644 C79,644 77,645 75,646 C73,647 73,648 73,649 C73,650 73,651 74,652 C76,653 79,654 83,655 C88,655 92,656 93,657 C96,658 98,659 99,660 C100,662 101,663 101,665 C101,667 100,668 99,670 C98,672 96,673 93,674 C90,675 88,675 84,675 C80,675 77,675 74,674 C71,673 69,671 68,670 C66,668 65,666 65,664 L65,664 Z M234,674 L234,641 L267,641 L267,645 L240,645 L240,655 L265,655 L265,659 L240,659 L240,670 L268,670 L268,674 L234,674 L234,674 Z M401,674 L401,641 L421,641 C425,641 428,641 430,642 C432,642 434,643 435,645 C437,646 437,648 437,650 C437,652 436,654 434,656 C432,658 429,659 424,659 C426,660 427,660 428,661 C430,662 431,663 433,665 L441,674 L433,674 L427,667 C426,665 424,664 423,663 C422,662 421,661 420,661 C419,660 418,660 417,660 C417,660 416,659 414,659 L407,659 L407,674 L401,674 L401,674 Z M407,656 L420,656 C423,656 425,655 426,655 C428,655 429,654 430,653 C431,652 431,651 431,650 C431,648 430,647 429,646 C427,645 425,645 421,645 L407,645 L407,656 L407,656 Z M572,674 L572,641 L578,641 L578,674 L572,674 L572,674 Z M714,674 L714,641 L746,641 L746,645 L720,645 L720,655 L745,655 L745,659 L720,659 L720,670 L748,670 L748,674 L714,674 L714,674 Z M879,664 L884,663 C885,665 885,666 886,667 C887,668 889,669 891,670 C893,671 895,671 898,671 C900,671 902,671 904,670 C905,670 907,669 908,668 C908,667 909,666 909,665 C909,664 908,663 908,663 C907,662 905,661 903,661 C902,660 900,660 895,659 C891,658 888,657 887,657 C885,656 883,655 882,654 C881,652 880,651 880,649 C880,648 881,646 882,645 C884,643 885,642 888,641 C890,641 893,640 896,640 C900,640 903,641 905,641 C908,642 910,643 911,645 C912,647 913,648 913,650 L907,651 C907,648 906,647 904,646 C903,645 900,644 896,644 C893,644 890,645 889,646 C887,647 886,648 886,649 C886,650 887,651 888,652 C889,653 892,654 897,655 C902,655 905,656 907,657 L913,660 C914,662 915,663 915,665 C915,667 914,668 912,670 C911,672 909,673 907,674 C904,675 901,675 898,675 C894,675 890,675 888,674 C885,673 883,671 881,670 C880,668 879,666 879,664 L879,664 Z" id="Shape" fill="#373435" sketch:type="MSShapeGroup"></path>
        </g>
    </g>
</svg>