<?xml version="1.0" encoding="UTF-8" standalone="no"?>
<svg width="1374px" height="411px" viewBox="0 0 1374 411" version="1.1" xmlns="http://www.w3.org/2000/svg" xmlns:xlink="http://www.w3.org/1999/xlink" xmlns:sketch="http://www.bohemiancoding.com/sketch/ns">
    <!-- Generator: Sketch 3.3.1 (12005) - http://www.bohemiancoding.com/sketch -->
    <title>aurislogo</title>
    <desc>Created with Sketch.</desc>
    <defs></defs>
    <g id="Page-1" stroke="none" stroke-width="1" fill="none" fill-rule="evenodd" sketch:type="MSPage">
        <g id="aurislogo" sketch:type="MSLayerGroup">
            <path d="M1116,227 L1157,223 C1159,240 1163,253 1170,264 C1177,274 1188,283 1203,289 C1218,296 1235,299 1253,299 C1270,299 1284,296 1297,291 C1309,287 1318,281 1324,273 L1370,273 C1367,279 1365,284 1361,289 C1351,304 1337,316 1318,325 C1300,333 1279,338 1255,338 C1226,338 1201,333 1181,325 C1161,316 1145,303 1134,286 C1123,268 1117,249 1116,227 L1116,227 Z M1329,221 C1328,220 1327,218 1326,216 C1320,209 1310,202 1296,197 C1287,194 1268,188 1238,181 C1208,174 1187,167 1175,161 C1159,153 1148,142 1140,130 C1132,118 1129,105 1129,90 C1129,73 1133,58 1143,43 C1152,29 1166,18 1184,11 C1202,3 1222,0 1244,0 C1268,0 1289,3 1308,11 C1326,19 1340,31 1350,46 C1360,61 1366,78 1367,97 L1325,100 C1323,80 1315,64 1302,54 C1289,43 1271,38 1245,38 C1219,38 1200,42 1188,52 C1176,62 1170,73 1170,87 C1170,99 1174,108 1183,116 C1191,123 1213,131 1248,139 C1283,147 1307,154 1321,160 C1340,169 1354,180 1363,193 C1368,202 1372,211 1374,221 L1329,221 L1329,221 Z" id="Shape" fill="#ED3237" sketch:type="MSShapeGroup"></path>
            <path d="M1011,332 L1011,5 L1054,5 L1054,332 L1011,332 Z" id="Shape" fill="#ED3237" sketch:type="MSShapeGroup"></path>
            <path d="M718,149 L811,149 C831,149 846,147 857,143 C869,139 877,133 883,124 C889,115 891,105 891,94 C891,79 886,66 875,56 C863,46 846,41 821,41 L718,41 L675,41 L675,5 L820,5 C849,5 871,8 886,14 C901,20 913,30 923,45 C932,60 936,76 936,94 C936,118 929,137 914,153 C899,169 875,179 844,183 C855,189 864,194 870,200 C883,211 895,226 906,243 L963,332 L908,332 L865,264 C853,244 842,229 834,219 C826,209 818,201 812,197 C806,193 799,190 792,188 C787,187 779,187 768,187 L718,187 L718,332 L675,332 L675,149 L718,149 L718,149 Z" id="Shape" fill="#ED3237" sketch:type="MSShapeGroup"></path>
            <path d="M559,5 L602,5 L602,194 C602,227 598,253 591,272 C583,292 570,307 551,319 C537,328 520,334 499,336 L499,296 C517,293 530,287 538,277 C552,263 559,235 559,194 L559,5 L559,5 Z M447,336 C429,334 413,329 399,322 C380,311 366,296 357,276 C349,256 345,229 345,194 L345,5 L388,5 L388,194 C388,222 391,243 396,257 C401,270 410,280 423,288 C430,292 439,295 447,296 L447,336 L447,336 Z" id="Shape" fill="#ED3237" sketch:type="MSShapeGroup"></path>
            <path d="M841,411 L841,370 L849,370 L859,399 C859,402 860,404 860,405 C861,403 862,401 863,398 L872,370 L880,370 L880,411 L874,411 L874,377 L863,411 L858,411 L846,376 L846,411 L841,411 L841,411 Z" id="Shape" fill="#373435" sketch:type="MSShapeGroup"></path>
            <path d="M887,391 C887,384 888,379 892,375 C896,371 900,370 906,370 C910,370 913,370 916,372 C919,374 921,376 923,380 C925,383 925,387 925,391 C925,395 924,398 923,402 C921,405 919,407 916,409 C913,411 909,411 906,411 C902,411 899,411 896,409 C893,407 890,404 889,401 C887,398 887,395 887,391 L887,391 Z M892,391 C892,396 893,400 896,403 C899,405 902,407 906,407 C910,407 913,405 916,403 C918,400 920,396 920,391 C920,387 919,384 918,382 C917,379 915,378 913,376 C911,375 909,374 906,374 C902,374 899,375 896,378 C893,381 892,385 892,391 L892,391 Z" id="1" fill="#373435" sketch:type="MSShapeGroup"></path>
            <path d="M932,411 L932,370 L946,370 C949,370 952,370 953,371 C956,371 958,372 959,374 C961,376 963,378 964,381 C965,383 966,387 966,390 C966,393 965,396 965,398 C964,401 963,403 962,404 C961,406 960,407 958,408 C957,409 955,410 953,410 C951,411 949,411 947,411 L932,411 L932,411 Z M938,406 L946,406 C949,406 951,406 953,405 C954,405 955,404 956,403 C957,402 958,400 959,398 C960,396 960,393 960,390 C960,386 959,383 958,380 C957,378 955,377 953,376 C952,375 949,375 946,375 L938,375 L938,406 L938,406 Z" id="2" fill="#373435" sketch:type="MSShapeGroup"></path>
            <path d="M1000,370 L1005,370 L1005,394 C1005,398 1005,401 1004,403 C1003,406 1001,408 999,409 C996,411 993,411 989,411 C985,411 982,411 980,409 C977,408 976,406 975,404 C974,401 973,398 973,394 L973,370 L979,370 L979,394 C979,397 979,400 980,401 C980,403 981,404 983,405 C985,406 986,407 989,407 C993,407 995,406 997,404 C999,402 1000,399 1000,394 L1000,370 L1000,370 Z" id="3" fill="#373435" sketch:type="MSShapeGroup"></path>
            <path d="M1014,411 L1014,370 L1019,370 L1019,406 L1039,406 L1039,411 L1014,411 Z" id="4" fill="#373435" sketch:type="MSShapeGroup"></path>
            <path d="M1041,411 L1057,370 L1062,370 L1079,411 L1073,411 L1068,398 L1051,398 L1047,411 L1041,411 L1041,411 Z M1053,394 L1066,394 L1062,383 C1061,379 1060,377 1059,374 C1059,377 1058,380 1057,382 L1053,394 L1053,394 Z" id="5" fill="#373435" sketch:type="MSShapeGroup"></path>
            <path d="M1083,411 L1083,370 L1101,370 C1105,370 1108,371 1110,371 C1111,372 1113,373 1114,375 C1115,377 1116,379 1116,381 C1116,384 1115,387 1113,389 C1111,391 1108,392 1104,392 C1106,393 1107,394 1108,394 C1109,396 1111,398 1112,400 L1119,411 L1112,411 L1107,402 C1105,400 1104,398 1103,397 C1102,395 1101,395 1100,394 C1100,394 1099,393 1098,393 L1095,393 L1089,393 L1089,411 L1083,411 L1083,411 Z M1089,388 L1100,388 C1103,388 1105,388 1106,387 C1107,387 1108,386 1109,385 C1110,384 1110,383 1110,381 C1110,379 1109,378 1108,377 C1107,375 1105,375 1102,375 L1089,375 L1089,388 L1089,388 Z" id="6" fill="#373435" sketch:type="MSShapeGroup"></path>
            <path d="M1140,411 L1140,370 L1155,370 C1158,370 1160,370 1161,371 C1163,371 1165,372 1166,372 C1168,373 1169,375 1170,376 C1170,378 1171,380 1171,382 C1171,385 1170,388 1168,391 C1165,393 1161,394 1156,394 L1145,394 L1145,411 L1140,411 L1140,411 Z M1145,389 L1156,389 C1159,389 1162,389 1163,388 C1165,386 1165,384 1165,382 C1165,380 1165,379 1164,378 L1161,375 L1156,375 L1145,375 L1145,389 L1145,389 Z" id="7" fill="#373435" sketch:type="MSShapeGroup"></path>
            <path d="M1177,411 L1177,370 L1183,370 L1183,406 L1203,406 L1203,411 L1177,411 Z" id="8" fill="#373435" sketch:type="MSShapeGroup"></path>
            <path d="M1205,411 L1220,370 L1226,370 L1243,411 L1236,411 L1232,398 L1215,398 L1210,411 L1205,411 L1205,411 Z M1216,394 L1230,394 L1226,383 C1225,379 1224,377 1223,374 C1222,377 1222,380 1221,382 L1216,394 L1216,394 Z" id="9" fill="#373435" sketch:type="MSShapeGroup"></path>
            <path d="M1253,411 L1253,375 L1240,375 L1240,370 L1272,370 L1272,375 L1258,375 L1258,411 L1253,411 Z" id="10" fill="#373435" sketch:type="MSShapeGroup"></path>
            <path d="M1277,411 L1277,370 L1307,370 L1307,375 L1283,375 L1283,387 L1305,387 L1305,392 L1283,392 L1283,406 L1308,406 L1308,411 L1277,411 Z" id="11" fill="#373435" sketch:type="MSShapeGroup"></path>
            <path d="M1313,398 L1318,397 C1318,399 1319,401 1320,402 C1321,404 1322,405 1324,405 C1326,406 1328,407 1330,407 C1332,407 1334,406 1336,406 L1339,403 C1340,402 1340,401 1340,400 C1340,399 1340,397 1339,396 C1338,396 1337,395 1336,394 C1334,394 1332,393 1328,392 C1325,391 1322,390 1320,390 L1316,386 C1315,384 1315,383 1315,381 C1315,379 1315,377 1316,375 C1318,373 1319,372 1322,371 C1324,370 1326,370 1329,370 C1332,370 1335,370 1337,371 C1339,372 1341,373 1342,375 C1343,377 1344,379 1344,382 L1339,382 C1339,379 1338,378 1336,376 C1335,375 1332,374 1329,374 C1326,374 1324,375 1322,376 C1321,377 1320,379 1320,380 C1320,382 1320,383 1321,384 C1323,385 1325,386 1330,387 C1334,388 1337,389 1339,389 C1341,391 1343,392 1344,394 C1345,395 1345,397 1345,399 C1345,401 1345,403 1344,405 C1342,407 1341,409 1338,410 C1336,411 1333,411 1330,411 C1327,411 1324,411 1321,410 C1319,409 1317,407 1315,405 C1314,403 1313,400 1313,398 L1313,398 Z" id="12" fill="#373435" sketch:type="MSShapeGroup"></path>
            <path d="M152,47 L52,333 L52,335 L50,335 L4,335 L0,335 L1,331 L127,4 L128,3 L129,3 L176,3 L178,3 L178,4 L312,331 L314,335 L310,335 L260,335 L259,335 L258,333 L152,47 Z" id="Shape" fill="#ED3237" sketch:type="MSShapeGroup"></path>
        </g>
    </g>
</svg>