<?xml version="1.0" encoding="UTF-8" standalone="no"?>
<svg width="2023px" height="541px" viewBox="0 0 2023 541" version="1.1" xmlns="http://www.w3.org/2000/svg" xmlns:xlink="http://www.w3.org/1999/xlink" xmlns:sketch="http://www.bohemiancoding.com/sketch/ns">
    <!-- Generator: Sketch 3.3.1 (12005) - http://www.bohemiancoding.com/sketch -->
    <title>blisslinelogo</title>
    <desc>Created with Sketch.</desc>
    <defs></defs>
    <g id="Page-1" stroke="none" stroke-width="1" fill="none" fill-rule="evenodd" sketch:type="MSPage">
        <g id="blisslinelogo" sketch:type="MSLayerGroup">
            <path d="M259,61 L268,53 L268,61 C329,61 373,72 403,94 C432,115 447,147 447,187 C447,210 443,226 435,235 C427,244 412,254 389,263 C405,269 425,285 448,311 C471,338 483,365 483,395 C483,439 460,474 413,497 C366,521 312,532 252,532 C216,532 185,528 158,520 C132,511 116,499 111,484 C128,496 143,504 155,508 C167,512 182,514 200,514 L200,204 C200,189 205,167 215,140 C226,112 236,92 245,80 C159,80 101,91 71,111 C42,132 27,159 27,190 C27,225 35,252 51,274 C67,295 95,317 136,340 C92,340 58,328 35,303 C12,278 0,246 0,209 C0,160 21,123 63,98 C104,73 170,61 259,61 L259,61 Z M268,417 C268,437 262,456 251,472 C239,488 227,502 214,514 C281,514 331,507 364,491 C396,475 413,445 413,399 C413,362 404,332 387,309 C371,285 349,270 322,263 C350,255 369,245 378,233 C388,221 393,205 393,187 C393,145 382,117 361,102 C341,88 310,80 268,80 L268,417 L268,417 Z" id="Shape" fill="#ED3237" sketch:type="MSShapeGroup"></path>
            <path d="M504,146 C504,120 511,98 526,80 C540,61 558,52 581,52 L630,52 C618,73 603,84 585,85 C566,87 557,90 557,96 L557,371 C557,378 560,381 565,381 C569,381 575,379 582,374 C590,369 598,362 607,355 C598,371 587,385 573,398 C559,410 546,416 535,416 C524,416 516,412 511,404 C507,396 504,385 504,371 L504,146 L504,146 Z" id="Shape" fill="#373435" sketch:type="MSShapeGroup"></path>
            <path d="M679,179 C690,179 698,183 702,192 C707,201 709,211 709,223 L709,375 C710,385 714,390 720,390 C725,390 730,388 736,383 C741,379 745,376 747,374 C738,389 730,400 721,407 C712,413 702,417 691,417 C681,417 674,413 668,405 C662,397 659,388 659,377 L659,217 C659,210 657,207 652,207 C645,207 634,213 620,225 C621,218 629,209 642,197 C655,185 667,179 679,179 L679,179 Z" id="Shape" fill="#373435" sketch:type="MSShapeGroup"></path>
            <path d="M919,177 C913,187 909,197 906,207 C903,216 900,225 898,233 C887,220 876,211 866,206 C856,200 844,198 830,198 C817,198 808,200 802,205 C797,210 794,216 794,224 C794,233 808,243 835,255 C862,266 883,278 899,289 C915,300 923,318 923,343 C923,372 914,391 896,401 C878,410 855,415 828,415 C800,415 782,410 775,399 C767,389 763,364 763,324 C770,342 781,359 797,375 C812,390 831,397 853,397 C878,397 890,386 890,364 C890,353 877,341 850,329 C824,317 804,306 789,294 C774,283 766,264 766,238 C766,215 774,199 788,190 C802,182 820,177 844,177 C850,177 859,179 869,181 C880,184 887,185 888,185 C894,185 899,184 903,184 C907,183 912,181 919,177 L919,177 Z" id="Shape" fill="#373435" sketch:type="MSShapeGroup"></path>
            <path d="M1098,177 C1092,187 1087,197 1085,207 C1082,216 1079,225 1077,233 C1065,220 1055,211 1044,206 C1034,200 1023,198 1009,198 C996,198 986,200 981,205 C976,210 973,216 973,224 C973,233 986,243 1014,255 C1041,266 1062,278 1078,289 C1094,300 1101,318 1101,343 C1101,372 1092,391 1075,401 C1057,410 1034,415 1007,415 C979,415 961,410 953,399 C946,389 942,364 942,324 C949,342 960,359 976,375 C991,390 1010,397 1031,397 C1056,397 1069,386 1069,364 C1069,353 1056,341 1029,329 C1003,317 982,306 968,294 C953,283 945,264 945,238 C945,215 952,199 966,190 C981,182 999,177 1023,177 C1029,177 1037,179 1048,181 C1059,184 1065,185 1067,185 C1073,185 1078,184 1082,184 C1086,183 1091,181 1098,177 L1098,177 Z" id="Shape" fill="#373435" sketch:type="MSShapeGroup"></path>
            <path d="M1187,404 C1168,382 1161,360 1166,337 C1172,313 1184,284 1203,248 C1222,213 1232,187 1233,170 C1251,197 1258,222 1252,243 C1247,265 1235,293 1216,326 C1197,360 1187,385 1187,404 L1187,404 Z" id="Shape" fill="#ED3237" sketch:type="MSShapeGroup"></path>
            <path d="M1320,146 C1320,120 1327,98 1341,80 C1356,61 1374,52 1397,52 L1446,52 C1434,73 1419,84 1401,85 C1382,87 1373,90 1373,96 L1373,371 C1373,378 1376,381 1381,381 C1385,381 1391,379 1398,374 C1406,369 1414,362 1423,355 C1414,371 1403,385 1389,398 C1375,410 1362,416 1351,416 C1340,416 1332,412 1327,404 C1322,396 1320,385 1320,371 L1320,146 L1320,146 Z" id="Shape" fill="#373435" sketch:type="MSShapeGroup"></path>
            <path d="M1502,61 C1511,61 1518,64 1524,71 C1531,77 1534,86 1534,97 C1534,110 1528,120 1517,127 C1506,134 1497,138 1488,138 C1480,138 1475,134 1471,126 C1467,117 1465,108 1465,97 C1465,83 1469,74 1475,69 C1482,63 1490,61 1502,61 L1502,61 Z M1495,179 C1506,179 1514,183 1518,192 C1523,201 1525,211 1525,223 L1525,375 C1526,385 1530,390 1536,390 C1541,390 1546,388 1551,383 C1557,379 1561,376 1563,374 C1554,389 1545,400 1537,406 C1528,413 1518,416 1506,416 C1497,416 1489,412 1484,404 C1478,397 1475,387 1475,376 L1475,217 C1475,210 1473,207 1467,207 C1461,207 1450,213 1435,225 C1437,218 1445,209 1458,197 C1471,185 1483,179 1495,179 L1495,179 Z" id="1" fill="#373435" sketch:type="MSShapeGroup"></path>
            <path d="M1769,379 C1769,387 1772,391 1778,391 C1785,391 1795,385 1808,374 C1801,387 1792,398 1781,405 C1770,413 1760,416 1752,416 C1742,416 1734,413 1728,407 C1722,401 1719,392 1719,380 L1719,259 C1719,250 1719,244 1717,239 C1715,234 1710,232 1701,232 C1692,232 1680,241 1665,260 C1650,279 1642,290 1642,293 L1642,385 C1641,393 1635,400 1624,406 C1613,413 1603,416 1593,416 L1593,232 C1593,226 1590,223 1586,223 C1581,223 1570,228 1555,237 C1569,220 1581,207 1593,197 C1604,187 1613,182 1619,182 C1629,182 1636,187 1638,198 C1641,209 1642,226 1642,249 L1642,269 C1656,247 1671,227 1687,209 C1703,191 1719,182 1736,182 C1750,182 1759,186 1763,195 C1767,204 1769,218 1769,236 L1769,252 L1769,268 L1769,301 L1769,344 L1769,368 L1769,379 L1769,379 Z" id="2" fill="#373435" sketch:type="MSShapeGroup"></path>
            <path d="M1950,180 C1964,180 1976,182 1985,187 C1994,192 2007,203 2023,219 L1891,351 C1898,363 1907,370 1918,374 C1929,377 1941,379 1954,379 C1967,379 1980,376 1992,370 C2004,363 2014,357 2023,350 C2009,372 1993,389 1976,400 C1958,411 1939,416 1916,416 C1884,416 1861,406 1848,385 C1835,365 1828,342 1828,319 C1828,277 1840,243 1863,218 C1887,192 1916,180 1950,180 L1950,180 Z M1886,338 C1899,326 1912,314 1924,301 C1943,281 1953,265 1953,254 C1953,242 1950,232 1944,225 C1938,218 1930,214 1919,214 C1907,214 1897,222 1890,237 C1882,252 1879,270 1879,290 C1879,299 1879,307 1880,315 C1881,323 1883,331 1886,338 L1886,338 Z" id="3" fill="#373435" sketch:type="MSShapeGroup"></path>
            <path d="M538,540 L538,470 L589,470 L589,478 L548,478 L548,499 L587,499 L587,508 L548,508 L548,532 L591,532 L591,540 L538,540 Z" id="Shape" fill="#373435" sketch:type="MSShapeGroup"></path>
            <path d="M597,540 L624,503 L600,470 L611,470 L624,488 C626,491 628,494 629,496 C631,494 633,491 635,488 L649,470 L659,470 L635,503 L661,540 L650,540 L632,515 C631,513 630,512 629,511 C627,513 626,515 626,515 L608,540 L597,540 L597,540 Z" id="1" fill="#373435" sketch:type="MSShapeGroup"></path>
            <path d="M719,515 L729,518 C727,525 723,531 718,535 C713,539 707,541 700,541 C692,541 686,539 681,536 C676,533 673,529 670,523 C668,517 667,511 667,504 C667,497 668,490 671,485 C674,480 678,475 683,473 C688,470 694,468 700,468 C707,468 713,470 717,474 C722,477 726,482 727,489 L718,491 C717,486 714,482 711,480 C708,477 704,476 700,476 C694,476 690,478 686,480 C682,483 680,486 678,491 C677,495 676,500 676,504 C676,510 677,515 679,520 C681,524 683,528 687,530 C691,532 695,533 699,533 C704,533 708,532 712,529 C716,526 718,521 719,515 L719,515 Z" id="2" fill="#373435" sketch:type="MSShapeGroup"></path>
            <path d="M740,540 L740,470 L749,470 L749,532 L784,532 L784,540 L740,540 Z" id="3" fill="#373435" sketch:type="MSShapeGroup"></path>
            <path d="M841,470 L850,470 L850,510 C850,517 849,523 848,527 C846,531 843,535 839,537 C835,540 829,541 823,541 C816,541 811,540 807,538 C802,535 799,532 798,528 C796,523 795,518 795,510 L795,470 L804,470 L804,510 C804,516 805,521 806,524 C807,527 809,529 812,530 C815,532 818,533 822,533 C829,533 834,531 836,528 C839,525 841,519 841,510 L841,470 L841,470 Z" id="4" fill="#373435" sketch:type="MSShapeGroup"></path>
            <path d="M863,517 L871,516 C872,520 873,523 874,525 C876,527 878,529 881,531 C884,532 888,533 892,533 C896,533 899,532 901,531 C904,530 906,529 908,527 C909,525 910,523 910,521 C910,519 909,517 908,515 C906,513 904,512 901,511 C899,510 895,509 889,507 C882,506 878,504 875,503 C872,501 869,499 868,497 C866,494 865,491 865,488 C865,484 866,481 868,478 C870,475 873,472 877,471 C881,469 885,468 890,468 C895,468 900,469 904,471 C908,473 911,475 913,478 C915,482 916,485 916,489 L907,490 C907,486 905,482 903,480 C900,478 896,477 890,477 C885,477 881,478 878,480 C875,482 874,484 874,487 C874,490 875,492 877,493 C879,495 883,497 891,498 C899,500 904,502 907,503 C911,505 914,507 916,510 C917,513 918,516 918,520 C918,524 917,527 915,531 C913,534 910,536 906,538 C902,540 898,541 893,541 C886,541 881,540 877,538 C872,536 869,534 866,530 C864,526 863,522 863,517 L863,517 Z" id="5" fill="#373435" sketch:type="MSShapeGroup"></path>
            <path d="M933,540 L933,470 L942,470 L942,540 L933,540 Z" id="6" fill="#373435" sketch:type="MSShapeGroup"></path>
            <path d="M978,540 L951,470 L961,470 L980,521 C981,525 982,529 983,532 C984,528 986,524 987,521 L1006,470 L1016,470 L988,540 L978,540 L978,540 Z" id="7" fill="#373435" sketch:type="MSShapeGroup"></path>
            <path d="M1024,540 L1024,470 L1075,470 L1075,478 L1033,478 L1033,499 L1072,499 L1072,508 L1033,508 L1033,532 L1077,532 L1077,540 L1024,540 Z" id="8" fill="#373435" sketch:type="MSShapeGroup"></path>
            <path d="M1116,540 L1116,470 L1130,470 L1147,519 C1149,524 1150,527 1150,530 C1151,527 1152,523 1154,518 L1171,470 L1184,470 L1184,540 L1175,540 L1175,481 L1154,540 L1146,540 L1125,480 L1125,540 L1116,540 L1116,540 Z" id="9" fill="#373435" sketch:type="MSShapeGroup"></path>
            <path d="M1196,506 C1196,494 1199,485 1205,478 C1211,472 1219,468 1229,468 C1236,468 1242,470 1247,473 C1252,476 1256,480 1259,486 C1261,492 1263,498 1263,505 C1263,512 1261,518 1259,524 C1256,530 1252,534 1246,537 C1241,540 1235,541 1229,541 C1223,541 1217,539 1211,536 C1206,533 1202,529 1200,523 C1197,518 1196,512 1196,506 L1196,506 Z M1205,506 C1205,514 1208,521 1212,526 C1217,531 1222,533 1229,533 C1236,533 1242,531 1246,526 C1251,521 1253,514 1253,505 C1253,499 1252,494 1250,490 C1248,486 1246,482 1242,480 C1238,478 1234,476 1229,476 C1223,476 1217,479 1212,483 C1208,488 1205,495 1205,506 L1205,506 Z" id="10" fill="#373435" sketch:type="MSShapeGroup"></path>
            <path d="M1275,540 L1275,470 L1299,470 C1305,470 1309,470 1312,471 C1316,471 1319,473 1322,476 C1326,479 1328,483 1330,488 C1332,492 1333,498 1333,504 C1333,510 1332,514 1331,519 C1330,523 1328,526 1326,529 C1324,531 1322,534 1320,535 C1318,537 1315,538 1311,539 C1308,539 1304,540 1300,540 L1275,540 L1275,540 Z M1284,532 L1299,532 C1304,532 1307,531 1310,530 C1313,529 1315,528 1316,527 C1319,524 1320,521 1321,518 C1323,514 1323,510 1323,504 C1323,497 1322,491 1320,487 C1317,483 1314,481 1311,479 C1308,478 1304,478 1299,478 L1284,478 L1284,532 L1284,532 Z" id="11" fill="#373435" sketch:type="MSShapeGroup"></path>
            <path d="M1392,470 L1401,470 L1401,510 C1401,517 1400,523 1399,527 C1397,531 1394,535 1390,537 C1386,540 1380,541 1374,541 C1367,541 1362,540 1358,538 C1353,535 1350,532 1349,528 C1347,523 1346,518 1346,510 L1346,470 L1355,470 L1355,510 C1355,516 1356,521 1357,524 C1358,527 1360,529 1363,530 C1366,532 1369,533 1373,533 C1380,533 1385,531 1387,528 C1390,525 1392,519 1392,510 L1392,470 L1392,470 Z" id="12" fill="#373435" sketch:type="MSShapeGroup"></path>
            <path d="M1416,540 L1416,470 L1426,470 L1426,532 L1460,532 L1460,540 L1416,540 Z" id="13" fill="#373435" sketch:type="MSShapeGroup"></path>
            <path d="M1464,540 L1491,470 L1501,470 L1529,540 L1519,540 L1511,519 L1481,519 L1473,540 L1464,540 L1464,540 Z M1484,511 L1508,511 L1500,492 C1498,486 1497,481 1495,477 C1494,481 1493,486 1491,490 L1484,511 L1484,511 Z" id="14" fill="#373435" sketch:type="MSShapeGroup"></path>
            <path d="M1537,540 L1537,470 L1568,470 C1574,470 1579,470 1582,471 C1586,473 1588,475 1590,478 C1592,481 1593,485 1593,489 C1593,494 1591,498 1588,501 C1585,505 1580,507 1573,508 C1576,509 1578,510 1579,511 C1582,514 1584,517 1587,521 L1599,540 L1587,540 L1578,525 C1575,521 1573,518 1571,516 C1569,513 1568,512 1566,511 C1565,510 1564,509 1562,509 L1557,509 L1546,509 L1546,540 L1537,540 L1537,540 Z M1546,501 L1566,501 C1570,501 1574,500 1576,499 C1579,498 1580,497 1582,495 C1583,493 1583,491 1583,489 C1583,485 1582,483 1580,481 C1577,478 1574,477 1568,477 L1546,477 L1546,501 L1546,501 Z" id="15" fill="#373435" sketch:type="MSShapeGroup"></path>
            <path d="M1635,540 L1635,470 L1661,470 L1672,470 C1676,471 1679,472 1681,473 C1683,475 1685,477 1686,480 C1688,483 1689,486 1689,490 C1689,496 1687,501 1683,505 C1679,509 1672,511 1662,511 L1644,511 L1644,540 L1635,540 L1635,540 Z M1644,503 L1662,503 C1668,503 1673,502 1675,500 C1678,497 1679,494 1679,490 C1679,487 1678,485 1677,483 C1675,480 1673,479 1671,478 L1662,478 L1644,478 L1644,503 L1644,503 Z" id="16" fill="#373435" sketch:type="MSShapeGroup"></path>
            <path d="M1700,540 L1700,470 L1709,470 L1709,532 L1744,532 L1744,540 L1700,540 Z" id="17" fill="#373435" sketch:type="MSShapeGroup"></path>
            <path d="M1747,540 L1774,470 L1784,470 L1813,540 L1803,540 L1794,519 L1765,519 L1757,540 L1747,540 L1747,540 Z M1768,511 L1791,511 L1784,492 C1782,486 1780,481 1779,477 C1778,481 1777,486 1775,490 L1768,511 L1768,511 Z" id="18" fill="#373435" sketch:type="MSShapeGroup"></path>
            <path d="M1831,540 L1831,478 L1808,478 L1808,470 L1864,470 L1864,478 L1840,478 L1840,540 L1831,540 Z" id="19" fill="#373435" sketch:type="MSShapeGroup"></path>
            <path d="M1873,540 L1873,470 L1924,470 L1924,478 L1883,478 L1883,499 L1921,499 L1921,508 L1883,508 L1883,532 L1926,532 L1926,540 L1873,540 Z" id="20" fill="#373435" sketch:type="MSShapeGroup"></path>
            <path d="M1936,517 L1944,516 C1945,520 1946,523 1947,525 C1949,527 1951,529 1954,531 C1958,532 1961,533 1965,533 C1969,533 1972,532 1975,531 C1977,530 1979,529 1981,527 C1982,525 1983,523 1983,521 C1983,519 1982,517 1981,515 C1979,513 1977,512 1974,511 C1972,510 1968,509 1962,507 C1955,506 1951,504 1948,503 C1945,501 1942,499 1941,497 C1939,494 1938,491 1938,488 C1938,484 1939,481 1941,478 C1943,475 1946,472 1950,471 C1954,469 1958,468 1963,468 C1968,468 1973,469 1977,471 C1981,473 1984,475 1986,478 C1988,482 1989,485 1989,489 L1981,490 C1980,486 1978,482 1976,480 C1973,478 1969,477 1963,477 C1958,477 1954,478 1951,480 C1949,482 1947,484 1947,487 C1947,490 1948,492 1950,493 C1952,495 1956,497 1964,498 C1972,500 1977,502 1980,503 C1984,505 1987,507 1989,510 C1991,513 1991,516 1991,520 C1991,524 1990,527 1988,531 C1986,534 1983,536 1979,538 C1975,540 1971,541 1966,541 C1959,541 1954,540 1950,538 C1945,536 1942,534 1939,530 C1937,526 1936,522 1936,517 L1936,517 Z" id="21" fill="#373435" sketch:type="MSShapeGroup"></path>
            <rect id="Rectangle-path" fill="#ED3237" sketch:type="MSShapeGroup" transform="translate(728.226524, 63.936350) rotate(-74.783960) translate(-728.226524, -63.936350) " x="676.860709" y="12.5705346" width="102.731631" height="102.731631"></rect>
        </g>
    </g>
</svg>