<?xml version="1.0" encoding="UTF-8" standalone="no"?>
<svg width="1104px" height="532px" viewBox="0 0 1104 532" version="1.1" xmlns="http://www.w3.org/2000/svg" xmlns:xlink="http://www.w3.org/1999/xlink" xmlns:sketch="http://www.bohemiancoding.com/sketch/ns">
    <!-- Generator: Sketch 3.3.1 (12005) - http://www.bohemiancoding.com/sketch -->
    <title>blisslogo</title>
    <desc>Created with Sketch.</desc>
    <defs></defs>
    <g id="Page-1" stroke="none" stroke-width="1" fill="none" fill-rule="evenodd" sketch:type="MSPage">
        <g id="blisslogo" sketch:type="MSLayerGroup">
            <path d="M259,61 L269,53 L269,61 C329,61 374,72 403,94 C432,115 447,147 447,187 C447,210 443,226 435,235 C427,244 412,254 390,263 C405,269 425,285 448,311 C472,338 483,365 483,395 C483,439 460,474 413,497 C366,521 312,532 252,532 C216,532 185,528 159,520 C132,511 117,499 112,484 C129,496 143,504 155,508 C168,512 183,514 200,514 L200,204 C200,189 205,167 216,140 C226,112 236,92 245,80 C159,80 101,91 72,111 C42,132 28,159 28,190 C28,225 35,252 51,274 C67,295 95,317 136,340 C92,340 58,328 35,303 C12,278 0,246 0,209 C0,160 21,123 63,98 C105,73 170,61 259,61 L259,61 Z M269,417 C269,437 263,456 251,472 C239,488 227,502 215,514 C281,514 331,507 364,491 C397,475 413,445 413,399 C413,362 404,332 388,309 C371,285 349,270 322,263 C350,255 369,245 378,233 C388,221 393,205 393,187 C393,145 382,117 362,102 C341,88 310,80 269,80 L269,417 L269,417 Z" id="Shape" fill="#ED3237" sketch:type="MSShapeGroup"></path>
            <path d="M504,146 C504,120 512,98 526,80 C540,61 559,52 581,52 L630,52 C619,73 604,84 585,85 C567,87 558,90 558,96 L558,371 C558,378 560,381 565,381 C569,381 575,379 583,374 C590,369 598,362 607,355 C598,371 587,385 573,398 C559,410 547,416 535,416 C524,416 517,412 512,404 C507,396 504,385 504,371 L504,146 L504,146 Z" id="Shape" fill="#373435" sketch:type="MSShapeGroup"></path>
            <path d="M679,179 C690,179 698,183 703,192 C707,201 709,211 709,223 L709,375 C711,385 715,390 721,390 C725,390 730,388 736,383 C742,379 745,376 747,374 C739,389 730,400 721,407 C712,413 702,417 691,417 C681,417 674,413 668,405 C662,397 659,388 659,377 L659,217 C659,210 657,207 652,207 C645,207 634,213 620,225 C622,218 629,209 642,197 C655,185 667,179 679,179 L679,179 Z" id="Shape" fill="#373435" sketch:type="MSShapeGroup"></path>
            <path d="M920,177 C913,187 909,197 906,207 C903,216 901,225 898,233 C887,220 876,211 866,206 C856,200 844,198 831,198 C817,198 808,200 803,205 C797,210 794,216 794,224 C794,233 808,243 835,255 C862,266 884,278 899,289 C915,300 923,318 923,343 C923,372 914,391 896,401 C878,410 855,415 828,415 C800,415 782,410 775,399 C767,389 763,364 763,324 C770,342 782,359 797,375 C813,390 831,397 853,397 C878,397 890,386 890,364 C890,353 877,341 851,329 C824,317 804,306 789,294 C774,283 767,264 767,238 C767,215 774,199 788,190 C802,182 821,177 844,177 C850,177 859,179 870,181 C881,184 887,185 889,185 C894,185 899,184 903,184 C907,183 913,181 920,177 L920,177 Z" id="Shape" fill="#ED3237" sketch:type="MSShapeGroup"></path>
            <path d="M1098,177 C1092,187 1088,197 1085,207 C1082,216 1079,225 1077,233 C1066,220 1055,211 1045,206 C1035,200 1023,198 1010,198 C996,198 987,200 981,205 C976,210 973,216 973,224 C973,233 987,243 1014,255 C1041,266 1062,278 1078,289 C1094,300 1102,318 1102,343 C1102,372 1093,391 1075,401 C1057,410 1034,415 1007,415 C979,415 961,410 954,399 C946,389 942,364 942,324 C949,342 960,359 976,375 C991,390 1010,397 1032,397 C1057,397 1069,386 1069,364 C1069,353 1056,341 1030,329 C1003,317 983,306 968,294 C953,283 946,264 946,238 C946,215 953,199 967,190 C981,182 1000,177 1023,177 C1029,177 1038,179 1049,181 C1059,184 1066,185 1068,185 C1073,185 1078,184 1082,184 C1086,183 1092,181 1098,177 L1098,177 Z" id="Shape" fill="#ED3237" sketch:type="MSShapeGroup"></path>
            <path d="M501,518 L501,469 L510,469 L522,504 C523,507 524,509 524,511 C525,509 525,506 527,503 L538,469 L547,469 L547,518 L541,518 L541,477 L527,518 L521,518 L507,476 L507,518 L501,518 L501,518 Z" id="Shape" fill="#373435" sketch:type="MSShapeGroup"></path>
            <path d="M555,494 C555,486 557,480 562,475 C566,471 572,468 578,468 C583,468 587,469 591,472 C594,474 597,477 599,481 C601,484 602,489 602,494 C602,498 601,503 599,507 C597,511 594,514 590,515 C587,517 583,518 578,518 C574,518 570,517 566,515 C563,513 560,510 558,506 C556,502 555,498 555,494 L555,494 Z M562,494 C562,500 563,505 567,508 C570,511 574,513 578,513 C583,513 587,511 590,508 C593,505 595,500 595,494 C595,490 594,486 593,483 C592,480 590,478 587,476 C585,475 582,474 578,474 C574,474 570,476 567,479 C563,482 562,487 562,494 L562,494 Z" id="1" fill="#373435" sketch:type="MSShapeGroup"></path>
            <path d="M610,518 L610,469 L627,469 C630,469 633,469 635,470 C638,471 640,472 642,473 C645,476 647,478 648,482 C649,485 650,489 650,493 C650,497 649,500 649,503 C648,506 647,508 645,510 C644,512 643,513 641,514 L635,517 C633,517 630,518 627,518 L610,518 L610,518 Z M616,512 L627,512 C630,512 632,512 634,511 C636,510 637,510 638,509 C640,507 641,505 642,502 C643,500 643,497 643,493 C643,488 642,484 641,481 C639,479 637,477 635,476 C633,475 630,475 626,475 L616,475 L616,512 L616,512 Z" id="2" fill="#373435" sketch:type="MSShapeGroup"></path>
            <path d="M690,469 L697,469 L697,497 C697,502 696,506 695,509 C694,512 692,514 689,516 C686,518 683,518 678,518 C673,518 670,518 667,516 C664,515 662,512 661,509 C659,506 659,502 659,497 L659,469 L665,469 L665,497 C665,501 666,505 666,506 C667,508 669,510 670,511 C672,512 675,513 677,513 C682,513 685,512 687,510 C689,507 690,503 690,497 L690,469 L690,469 Z" id="3" fill="#373435" sketch:type="MSShapeGroup"></path>
            <path d="M707,518 L707,469 L714,469 L714,512 L738,512 L738,518 L707,518 Z" id="4" fill="#373435" sketch:type="MSShapeGroup"></path>
            <path d="M740,518 L759,469 L766,469 L785,518 L778,518 L772,503 L752,503 L747,518 L740,518 L740,518 Z M754,498 L770,498 L765,484 C764,480 763,477 762,474 C761,477 760,480 759,484 L754,498 L754,498 Z" id="5" fill="#373435" sketch:type="MSShapeGroup"></path>
            <path d="M791,518 L791,469 L812,469 C816,469 820,470 822,471 C824,471 826,473 827,475 C829,477 829,480 829,482 C829,486 828,489 826,491 C824,493 820,495 816,496 C817,496 819,497 820,498 C821,500 823,502 825,504 L833,518 L825,518 L819,508 C817,505 815,502 814,501 C813,499 812,498 811,498 C810,497 809,497 808,496 L804,496 L797,496 L797,518 L791,518 L791,518 Z M797,491 L811,491 C814,491 816,490 818,490 C819,489 821,488 821,487 C822,485 823,484 823,482 C823,480 822,478 820,477 C819,475 816,475 812,475 L797,475 L797,491 L797,491 Z" id="6" fill="#373435" sketch:type="MSShapeGroup"></path>
            <path d="M858,518 L858,469 L876,469 C880,469 882,469 884,470 C886,470 888,471 890,472 C891,473 893,475 894,477 C895,479 895,481 895,483 C895,487 894,491 891,494 C889,496 884,498 877,498 L865,498 L865,518 L858,518 L858,518 Z M865,492 L877,492 C881,492 884,491 886,490 C888,488 889,486 889,483 C889,481 888,480 887,478 C886,477 885,476 883,475 L877,475 L865,475 L865,492 L865,492 Z" id="7" fill="#373435" sketch:type="MSShapeGroup"></path>
            <path d="M903,518 L903,469 L909,469 L909,512 L933,512 L933,518 L903,518 Z" id="8" fill="#373435" sketch:type="MSShapeGroup"></path>
            <path d="M936,518 L954,469 L961,469 L981,518 L974,518 L968,503 L948,503 L942,518 L936,518 L936,518 Z M950,498 L966,498 L961,484 C959,480 958,477 958,474 C957,477 956,480 955,484 L950,498 L950,498 Z" id="9" fill="#373435" sketch:type="MSShapeGroup"></path>
            <path d="M993,518 L993,475 L977,475 L977,469 L1016,469 L1016,475 L1000,475 L1000,518 L993,518 Z" id="10" fill="#373435" sketch:type="MSShapeGroup"></path>
            <path d="M1023,518 L1023,469 L1058,469 L1058,475 L1029,475 L1029,490 L1056,490 L1056,495 L1029,495 L1029,512 L1059,512 L1059,518 L1023,518 Z" id="11" fill="#373435" sketch:type="MSShapeGroup"></path>
            <path d="M1065,502 L1071,502 C1072,504 1072,506 1073,508 C1075,509 1076,510 1078,511 C1081,512 1083,513 1086,513 C1088,513 1090,512 1092,512 C1094,511 1096,510 1096,509 C1097,507 1098,506 1098,505 C1098,503 1097,502 1097,501 C1096,499 1094,498 1092,498 C1091,497 1088,496 1084,495 C1079,494 1076,493 1074,492 C1072,491 1070,490 1069,488 C1068,486 1067,484 1067,482 C1067,479 1068,477 1069,475 C1071,473 1073,471 1075,470 C1078,469 1081,468 1084,468 C1088,468 1091,469 1094,470 C1097,471 1099,473 1100,475 C1102,477 1102,480 1103,483 L1096,483 C1096,480 1095,478 1093,476 C1091,475 1088,474 1085,474 C1081,474 1078,475 1076,476 C1074,478 1073,479 1073,481 C1073,483 1074,485 1075,486 C1077,487 1080,488 1085,489 C1090,490 1094,491 1096,492 C1099,493 1101,495 1102,497 C1103,499 1104,501 1104,504 C1104,507 1103,509 1102,511 C1100,514 1098,515 1095,517 C1093,518 1090,518 1086,518 C1082,518 1078,518 1075,517 C1072,515 1070,513 1068,511 C1066,508 1066,505 1065,502 L1065,502 Z" id="12" fill="#373435" sketch:type="MSShapeGroup"></path>
            <rect id="Rectangle-path" fill="#ED3237" sketch:type="MSShapeGroup" transform="translate(728.496524, 63.936350) rotate(-74.783960) translate(-728.496524, -63.936350) " x="677.130709" y="12.5705346" width="102.731631" height="102.731631"></rect>
        </g>
    </g>
</svg>