<?xml version="1.0" encoding="UTF-8" standalone="no"?>
<svg width="2773px" height="490px" viewBox="0 0 2773 490" version="1.1" xmlns="http://www.w3.org/2000/svg" xmlns:xlink="http://www.w3.org/1999/xlink" xmlns:sketch="http://www.bohemiancoding.com/sketch/ns">
    <!-- Generator: Sketch 3.3.1 (12005) - http://www.bohemiancoding.com/sketch -->
    <title>blitzshinelogo</title>
    <desc>Created with Sketch.</desc>
    <defs></defs>
    <g id="Page-1" stroke="none" stroke-width="1" fill="none" fill-rule="evenodd" sketch:type="MSPage">
        <g id="blitzshinelogo" sketch:type="MSLayerGroup">
            <path d="M1725,0 L2770,0 L2770,490 L1378,490 L1725,0 Z" id="Shape" fill="#ED3237" sketch:type="MSShapeGroup"></path>
            <path d="M1372,490 L1372,401 L1630,83 L1401,83 L1401,0 L1760,0 L1760,77 L1492,408 L2773,408 L2773,490 L1372,490 Z" id="Shape" fill="#373435" sketch:type="MSShapeGroup"></path>
            <path d="M1130,490 L1130,83 L984,83 L984,0 L1373,0 L1373,83 L1228,83 L1228,490 L1130,490 Z" id="Shape" fill="#373435" sketch:type="MSShapeGroup"></path>
            <path d="M857,490 L857,0 L956,0 L956,490 L857,490 Z" id="Shape" fill="#ED3237" sketch:type="MSShapeGroup"></path>
            <path d="M475,490 L475,0 L574,0 L574,408 L820,408 L820,490 L475,490 Z" id="Shape" fill="#373435" sketch:type="MSShapeGroup"></path>
            <path d="M99,277 L99,408 L190,408 C236,408 267,404 284,395 C300,387 308,370 308,343 C308,318 299,300 282,291 C264,281 230,277 179,277 L99,277 L99,277 Z M99,82 L99,195 L164,195 C215,195 249,192 265,185 C282,178 290,162 290,138 C290,115 283,100 268,93 C253,85 216,82 156,82 L99,82 L99,82 Z M0,0 L196,0 C274,0 326,13 350,37 C374,61 386,90 386,124 C386,174 363,209 317,230 C379,248 410,287 410,348 C410,384 401,413 381,436 C362,460 340,475 315,481 C291,487 241,490 167,490 L0,490 L0,0 L0,0 Z" id="Shape" fill="#373435" sketch:type="MSShapeGroup"></path>
            <path d="M1898,39 L2023,39 C2023,48 2028,62 2039,82 C2049,102 2055,114 2056,118 C2034,93 2012,75 1991,65 C1970,54 1944,48 1912,48 C1889,48 1871,53 1860,63 C1849,72 1843,84 1843,99 C1843,125 1863,142 1902,152 C1941,161 1979,170 2017,178 C2058,194 2078,222 2078,261 C2078,292 2068,319 2048,341 C2029,362 1995,373 1948,373 C1922,373 1897,371 1875,366 C1853,361 1834,350 1818,334 C1802,317 1794,293 1794,261 C1794,249 1795,238 1798,229 C1801,221 1807,214 1816,209 C1812,213 1809,218 1808,224 C1807,230 1806,236 1806,244 C1806,275 1822,299 1853,319 C1883,338 1923,348 1970,348 C2000,348 2022,342 2035,332 C2049,321 2056,305 2056,283 C2056,251 2036,229 1996,216 C1959,208 1922,199 1885,191 C1845,177 1825,152 1825,115 C1825,94 1832,76 1847,61 C1861,46 1878,39 1898,39 L1898,39 Z" id="Shape" fill="#FEFEFE" sketch:type="MSShapeGroup"></path>
            <path d="M2222,158 L2222,263 C2222,267 2224,268 2227,268 C2230,268 2238,264 2248,257 C2245,265 2239,271 2233,278 C2226,284 2218,287 2209,287 C2201,287 2195,284 2191,279 C2188,273 2186,267 2186,259 L2186,177 C2186,172 2185,167 2184,165 C2183,162 2180,160 2175,160 C2167,160 2158,166 2149,179 C2140,191 2135,200 2135,205 L2135,250 C2135,259 2132,268 2125,275 C2118,283 2109,287 2099,287 L2099,98 C2099,80 2104,65 2113,52 C2123,39 2136,33 2152,33 L2186,33 C2178,48 2167,55 2155,56 C2142,57 2135,59 2135,63 L2135,185 C2148,164 2160,148 2171,138 C2183,128 2192,122 2200,122 C2209,122 2215,125 2218,130 C2221,135 2222,144 2222,158 L2222,158 Z" id="1" fill="#FEFEFE" sketch:type="MSShapeGroup"></path>
            <path d="M2304,39 C2310,39 2316,41 2320,46 C2324,50 2326,57 2326,64 C2326,73 2323,80 2315,85 C2307,90 2301,93 2295,93 C2289,93 2285,90 2283,84 C2280,78 2279,72 2279,64 C2279,55 2281,48 2286,44 C2290,41 2296,39 2304,39 L2304,39 Z M2299,121 C2307,121 2312,124 2316,130 C2319,136 2320,144 2320,152 L2320,258 C2321,265 2324,269 2328,269 C2331,269 2335,267 2339,264 C2343,260 2345,258 2347,257 C2341,268 2335,275 2328,280 C2322,284 2315,287 2307,287 C2301,287 2296,284 2292,278 C2288,273 2286,266 2286,259 L2286,148 C2286,143 2284,141 2280,141 C2275,141 2268,145 2258,153 C2259,149 2264,142 2273,134 C2283,125 2291,121 2299,121 L2299,121 Z" id="2" fill="#FEFEFE" sketch:type="MSShapeGroup"></path>
            <path d="M2491,261 C2491,267 2492,269 2496,269 C2501,269 2508,265 2517,257 C2512,266 2506,274 2499,279 C2491,284 2484,287 2478,287 C2472,287 2466,285 2462,280 C2458,276 2456,270 2456,261 L2456,177 C2456,171 2455,166 2454,163 C2453,160 2449,158 2443,158 C2437,158 2428,165 2418,178 C2407,191 2402,199 2402,201 L2402,265 C2401,270 2397,275 2389,280 C2382,284 2375,287 2367,287 L2367,158 C2367,154 2366,152 2363,152 C2359,152 2352,155 2341,162 C2351,150 2360,141 2367,134 C2375,127 2382,123 2386,123 C2393,123 2398,127 2399,135 C2401,142 2402,154 2402,170 L2402,184 C2412,169 2422,155 2433,142 C2444,130 2456,123 2468,123 C2477,123 2483,126 2486,133 C2489,139 2491,148 2491,161 L2491,172 L2491,183 L2491,206 L2491,236 L2491,253 L2491,261 L2491,261 Z" id="3" fill="#FEFEFE" sketch:type="MSShapeGroup"></path>
            <path d="M2617,122 C2627,122 2635,123 2641,127 C2647,131 2656,138 2667,149 L2576,241 C2581,249 2587,255 2594,257 C2602,259 2610,261 2619,261 C2629,261 2637,258 2646,254 C2654,250 2661,245 2668,240 C2658,256 2647,267 2634,275 C2622,283 2609,287 2593,287 C2571,287 2555,280 2545,265 C2536,251 2531,235 2531,219 C2531,189 2540,166 2556,148 C2572,131 2593,122 2617,122 L2617,122 Z M2572,232 C2581,224 2590,215 2599,207 C2612,192 2619,181 2619,174 C2619,165 2616,158 2612,153 C2608,148 2602,146 2595,146 C2586,146 2579,151 2574,162 C2569,172 2567,185 2567,199 C2567,205 2567,211 2568,216 C2569,222 2570,227 2572,232 L2572,232 Z" id="4" fill="#FEFEFE" sketch:type="MSShapeGroup"></path>
            <path d="M2105,380 L2105,335 L2114,335 L2125,367 C2126,370 2127,372 2127,374 C2128,372 2128,370 2129,367 L2140,335 L2148,335 L2148,380 L2143,380 L2143,343 L2129,380 L2124,380 L2111,342 L2111,380 L2105,380 L2105,380 Z" id="Shape" fill="#373435" sketch:type="MSShapeGroup"></path>
            <path d="M2156,358 C2156,351 2158,345 2162,341 C2166,337 2171,334 2178,334 C2182,334 2186,335 2189,337 C2192,339 2195,342 2197,346 C2198,349 2199,353 2199,358 C2199,362 2198,367 2197,370 C2195,374 2192,377 2189,378 C2185,380 2182,381 2178,381 C2173,381 2170,380 2166,378 C2163,376 2160,373 2159,370 C2157,366 2156,362 2156,358 L2156,358 Z M2162,359 C2162,364 2164,368 2167,371 C2170,375 2173,376 2178,376 C2182,376 2186,375 2189,371 C2192,368 2193,364 2193,358 C2193,354 2193,351 2191,348 C2190,346 2188,343 2186,342 C2183,340 2181,340 2178,340 C2174,340 2170,341 2167,344 C2164,347 2162,352 2162,359 L2162,359 Z" id="1" fill="#373435" sketch:type="MSShapeGroup"></path>
            <path d="M2207,380 L2207,335 L2223,335 C2226,335 2229,335 2231,336 C2233,336 2235,338 2237,339 C2240,341 2241,344 2243,347 C2244,350 2244,354 2244,358 C2244,361 2244,364 2243,367 C2242,369 2241,372 2240,373 C2239,375 2238,376 2236,377 C2235,378 2233,379 2231,380 L2223,380 L2207,380 L2207,380 Z M2213,375 L2223,375 C2226,375 2228,375 2230,374 C2231,374 2233,373 2234,372 C2235,371 2236,369 2237,366 C2238,364 2238,361 2238,358 C2238,353 2237,349 2236,347 C2234,344 2232,342 2230,341 L2223,341 L2213,341 L2213,375 L2213,375 Z" id="2" fill="#373435" sketch:type="MSShapeGroup"></path>
            <path d="M2282,335 L2288,335 L2288,361 C2288,366 2288,370 2287,372 C2286,375 2284,377 2281,379 C2279,380 2275,381 2271,381 C2266,381 2263,380 2260,379 C2258,378 2256,375 2255,373 C2253,370 2253,366 2253,361 L2253,335 L2259,335 L2259,361 C2259,365 2259,368 2260,370 C2261,372 2262,373 2264,374 C2265,375 2268,376 2270,376 C2275,376 2278,375 2280,373 C2281,371 2282,367 2282,361 L2282,335 L2282,335 Z" id="3" fill="#373435" sketch:type="MSShapeGroup"></path>
            <path d="M2298,380 L2298,335 L2304,335 L2304,375 L2326,375 L2326,380 L2298,380 Z" id="4" fill="#373435" sketch:type="MSShapeGroup"></path>
            <path d="M2328,380 L2346,335 L2352,335 L2371,380 L2364,380 L2359,367 L2340,367 L2335,380 L2328,380 L2328,380 Z M2341,362 L2357,362 L2352,349 C2351,346 2350,342 2349,340 L2346,349 L2341,362 L2341,362 Z" id="5" fill="#373435" sketch:type="MSShapeGroup"></path>
            <path d="M2376,380 L2376,335 L2396,335 C2400,335 2403,336 2405,336 C2407,337 2409,339 2410,341 C2411,343 2412,345 2412,348 C2412,351 2411,353 2409,356 C2407,358 2403,359 2399,360 C2401,361 2402,361 2403,362 C2404,364 2406,366 2408,368 L2415,380 L2408,380 L2402,371 C2400,368 2399,366 2398,365 C2397,363 2396,362 2395,362 C2394,361 2393,361 2392,361 C2391,360 2390,360 2389,360 L2382,360 L2382,380 L2376,380 L2376,380 Z M2382,355 L2395,355 C2397,355 2399,355 2401,354 C2402,354 2404,353 2404,352 C2405,350 2406,349 2406,348 C2406,345 2405,344 2403,342 C2402,341 2399,340 2396,340 L2382,340 L2382,355 L2382,355 Z" id="6" fill="#373435" sketch:type="MSShapeGroup"></path>
            <path d="M2439,380 L2439,335 L2456,335 C2459,335 2461,335 2463,336 C2465,336 2467,337 2468,338 C2470,339 2471,340 2472,342 C2473,344 2473,346 2473,348 C2473,352 2472,355 2470,358 C2467,361 2463,362 2456,362 L2445,362 L2445,380 L2439,380 L2439,380 Z M2445,357 L2456,357 C2460,357 2463,356 2465,355 C2466,353 2467,351 2467,348 C2467,347 2467,345 2466,344 C2465,342 2463,341 2462,341 L2456,341 L2445,341 L2445,357 L2445,357 Z" id="7" fill="#373435" sketch:type="MSShapeGroup"></path>
            <path d="M2481,380 L2481,335 L2487,335 L2487,375 L2509,375 L2509,380 L2481,380 Z" id="8" fill="#373435" sketch:type="MSShapeGroup"></path>
            <path d="M2511,380 L2528,335 L2535,335 L2553,380 L2547,380 L2541,367 L2522,367 L2517,380 L2511,380 L2511,380 Z M2524,362 L2539,362 L2535,349 C2533,346 2532,342 2532,340 L2529,349 L2524,362 L2524,362 Z" id="9" fill="#373435" sketch:type="MSShapeGroup"></path>
            <path d="M2565,380 L2565,341 L2550,341 L2550,335 L2586,335 L2586,341 L2571,341 L2571,380 L2565,380 Z" id="10" fill="#373435" sketch:type="MSShapeGroup"></path>
            <path d="M2592,380 L2592,335 L2625,335 L2625,341 L2598,341 L2598,354 L2623,354 L2623,360 L2598,360 L2598,375 L2626,375 L2626,380 L2592,380 Z" id="11" fill="#373435" sketch:type="MSShapeGroup"></path>
            <path d="M2632,366 L2638,365 C2638,368 2639,370 2640,371 C2641,372 2642,374 2644,375 C2646,375 2649,376 2651,376 C2653,376 2655,376 2657,375 C2659,374 2660,373 2661,372 C2662,371 2662,370 2662,368 C2662,367 2662,366 2661,364 C2660,363 2659,363 2657,362 C2656,361 2653,361 2649,360 C2645,359 2642,358 2640,357 C2638,356 2637,354 2636,353 C2634,351 2634,349 2634,347 C2634,345 2635,343 2636,341 C2637,339 2639,337 2642,336 C2644,335 2647,334 2650,334 C2653,334 2656,335 2659,336 C2661,337 2663,339 2665,341 C2666,343 2667,345 2667,348 L2661,348 C2661,346 2660,343 2658,342 C2656,341 2654,340 2650,340 C2646,340 2644,340 2642,342 C2641,343 2640,345 2640,347 C2640,348 2640,350 2641,351 C2643,352 2646,353 2650,354 C2655,355 2659,356 2660,357 C2663,358 2665,359 2666,361 C2668,363 2668,365 2668,368 C2668,370 2667,372 2666,374 C2665,377 2663,378 2660,379 C2658,381 2655,381 2651,381 C2647,381 2644,381 2641,379 C2638,378 2636,376 2635,374 C2633,372 2632,369 2632,366 L2632,366 Z" id="12" fill="#373435" sketch:type="MSShapeGroup"></path>
        </g>
    </g>
</svg>