<?xml version="1.0" encoding="UTF-8" standalone="no"?>
<svg width="1608px" height="412px" viewBox="0 0 1608 412" version="1.1" xmlns="http://www.w3.org/2000/svg" xmlns:xlink="http://www.w3.org/1999/xlink" xmlns:sketch="http://www.bohemiancoding.com/sketch/ns">
    <!-- Generator: Sketch 3.3.1 (12005) - http://www.bohemiancoding.com/sketch -->
    <title>celeriologo</title>
    <desc>Created with Sketch.</desc>
    <defs></defs>
    <g id="Page-1" stroke="none" stroke-width="1" fill="none" fill-rule="evenodd" sketch:type="MSPage">
        <g id="celeriologo" sketch:type="MSLayerGroup">
            <path d="M1162,242 L1220,6 L1297,6 L1239,242 L1162,242 Z" id="Shape" fill="#ED3237" sketch:type="MSShapeGroup"></path>
            <path d="M910,242 L968,6 L1081,6 C1173,6 1186,129 1088,154 C1089,156 1140,234 1142,241 L1072,242 C1069,242 1021,152 1018,151 C1048,135 1120,97 1087,68 C1084,65 1075,64 1062,64 L1029,64 L985,242 L910,242 L910,242 Z" id="Shape" fill="#ED3237" sketch:type="MSShapeGroup"></path>
            <path d="M472,242 L530,6 L606,6 L558,198 L661,198 L651,242 L472,242 Z" id="Shape" fill="#ED3237" sketch:type="MSShapeGroup"></path>
            <path d="M243,242 L302,6 L490,6 L463,50 L367,50 L356,94 L451,94 L423,149 L342,149 L329,200 L447,200 L429,242 L243,242 Z" id="Shape" fill="#ED3237" sketch:type="MSShapeGroup"></path>
            <path d="M190,248 C183,248 104,249 97,249 C59,249 32,238 16,216 C-4.26325641e-14,194 -4,163 6,125 C15,86 34,56 61,34 C88,11 120,0 157,0 C191,0 262,1 264,4 C265,6 238,58 238,59 L140,59 C127,60 115,65 106,75 C95,86 88,103 82,125 C77,146 77,162 82,173 C87,183 95,188 107,190 L169,190 L204,190 L190,248 L190,248 Z" id="Shape" fill="#ED3237" sketch:type="MSShapeGroup"></path>
            <path d="M675,242 L733,6 L922,6 L894,50 L799,50 L787,94 L883,94 L854,149 L774,149 L761,200 L878,200 L861,242 L675,242 Z" id="Shape" fill="#ED3237" sketch:type="MSShapeGroup"></path>
            <path d="M1396,9 L1563,9 C1572,9 1579,11 1586,16 C1592,20 1597,27 1601,35 C1605,43 1607,52 1607,63 C1608,73 1607,85 1604,96 L1590,155 C1587,167 1583,178 1577,189 C1571,200 1564,209 1557,217 C1549,225 1541,231 1533,235 C1524,240 1515,242 1507,242 L1339,242 C1331,242 1323,240 1317,235 C1310,231 1305,225 1302,217 C1298,209 1296,200 1295,189 C1295,178 1296,167 1299,155 L1313,96 C1316,85 1320,73 1326,63 C1332,52 1338,43 1346,35 C1353,27 1361,20 1370,16 C1379,11 1387,9 1396,9 L1396,9 Z M1367,142 C1366,148 1365,155 1365,160 C1366,166 1367,171 1369,176 C1371,180 1374,184 1377,186 C1381,189 1385,190 1390,190 L1482,190 C1487,190 1491,189 1496,186 C1501,184 1505,180 1510,176 C1514,171 1517,166 1521,160 C1524,155 1526,148 1528,142 L1536,110 C1537,103 1538,97 1537,91 C1537,85 1536,80 1534,75 C1532,71 1529,68 1526,65 C1522,62 1518,61 1513,61 L1421,61 C1416,61 1411,62 1407,65 C1402,68 1397,71 1393,75 C1389,80 1385,85 1382,91 C1379,97 1377,103 1375,110 L1367,142 L1367,142 Z" id="Shape" fill="#ED3237" sketch:type="MSShapeGroup"></path>
            <path d="M122,347 L79,347 L79,373 L122,373 C125,373 127,372 128,371 C129,370 130,368 130,365 L130,355 C130,352 129,350 128,349 C127,348 125,347 122,347 L122,347 Z M67,412 L67,337 L127,337 C132,337 136,338 139,341 C141,343 142,347 142,352 L142,368 C142,373 141,377 139,379 C136,382 132,383 127,383 L79,383 L79,412 L67,412 L67,412 Z" id="Shape" fill="#373435" sketch:type="MSShapeGroup"></path>
            <path d="M359,412 L359,337 L371,337 L371,401 L428,401 L428,412 L359,412 Z" id="Shape" fill="#373435" sketch:type="MSShapeGroup"></path>
            <path d="M657,384 L697,384 L677,346 L657,384 L657,384 Z M630,412 L671,337 L684,337 L725,412 L712,412 L702,393 L652,393 L642,412 L630,412 L630,412 Z" id="Shape" fill="#373435" sketch:type="MSShapeGroup"></path>
            <path d="M957,347 L957,412 L944,412 L944,347 L910,347 L910,337 L991,337 L991,347 L957,347 Z" id="Shape" fill="#373435" sketch:type="MSShapeGroup"></path>
            <path d="M1198,412 L1198,337 L1270,337 L1270,347 L1211,347 L1211,368 L1247,368 L1247,378 L1211,378 L1211,401 L1271,401 L1271,412 L1198,412 Z" id="Shape" fill="#373435" sketch:type="MSShapeGroup"></path>
            <path d="M1550,347 L1497,347 L1497,368 L1544,368 C1551,368 1555,369 1558,372 C1560,374 1561,379 1561,386 L1561,394 C1561,401 1560,406 1558,408 C1555,410 1551,412 1544,412 L1501,412 C1494,412 1489,410 1487,408 C1485,406 1483,401 1483,394 L1483,392 L1495,389 L1495,401 L1550,401 L1550,379 L1503,379 C1497,379 1492,378 1490,375 C1487,373 1486,368 1486,361 L1486,355 C1486,348 1487,343 1490,341 C1492,339 1497,337 1503,337 L1543,337 C1550,337 1554,339 1557,341 C1559,343 1561,348 1561,354 L1561,355 L1550,358 L1550,347 L1550,347 Z" id="Shape" fill="#373435" sketch:type="MSShapeGroup"></path>
        </g>
    </g>
</svg>