<?xml version="1.0" encoding="UTF-8" standalone="no"?>
<svg width="1798px" height="311px" viewBox="0 0 1798 311" version="1.1" xmlns="http://www.w3.org/2000/svg" xmlns:xlink="http://www.w3.org/1999/xlink" xmlns:sketch="http://www.bohemiancoding.com/sketch/ns">
    <!-- Generator: Sketch 3.3.1 (12005) - http://www.bohemiancoding.com/sketch -->
    <title>ciazlogo</title>
    <desc>Created with Sketch.</desc>
    <defs></defs>
    <g id="Page-1" stroke="none" stroke-width="1" fill="none" fill-rule="evenodd" sketch:type="MSPage">
        <g id="ciazlogo" sketch:type="MSLayerGroup">
            <path d="M1080,117 C1080,117 1044,109 1005,121 C967,134 955,153 955,158 C955,164 956,182 986,179 C1016,176 1040,168 1059,147 C1077,127 1080,117 1080,117 L1080,117 Z M794,21 L810,21 C825,21 834,27 832,34 L829,41 C827,48 813,53 799,53 L783,53 C768,53 759,48 761,41 L764,34 C766,27 780,21 794,21 L794,21 Z M640,34 C640,34 619,17 610,14 C606,13 464,-8 335,4 C246,12 108,31 34,84 C5,106 -3,126 1,144 C14,189 111,220 155,228 C324,257 552,257 712,203 C712,203 713,202 714,202 C714,202 714,204 721,206 C731,209 754,213 808,214 L828,214 C907,214 936,209 936,209 C936,209 982,218 1028,214 C1073,211 1083,199 1083,199 C1083,199 1102,215 1177,215 C1251,214 1260,214 1260,214 L1793,213 C1793,213 1801,212 1796,204 C1791,196 1754,184 1754,184 L1404,173 L1538,116 C1538,116 1548,111 1543,104 C1538,97 1510,79 1510,79 L1265,80 C1265,80 1254,84 1257,89 C1259,94 1288,119 1288,119 L1376,119 C1376,119 1252,166 1243,172 C1235,178 1236,182 1236,182 C1224,182 1139,189 1145,163 C1150,143 1183,79 1183,79 L1109,79 L1103,91 C1103,91 1050,68 971,85 C936,93 880,113 878,157 C877,166 877,171 881,178 L809,179 C809,179 768,177 780,150 C789,132 810,91 824,64 L746,64 C728,91 700,134 695,143 C687,158 689,171 689,171 C552,192 403,205 268,167 C205,149 241,104 284,83 C304,73 332,63 371,56 C498,34 637,40 637,40 L640,34 L640,34 Z" id="Shape" fill="#ED3237" sketch:type="MSShapeGroup"></path>
            <path d="M707,311 L707,251 L719,251 L747,287 L775,251 L786,251 L786,311 L773,311 L773,274 L773,271 L773,267 C773,269 772,270 771,271 C771,272 770,273 770,274 L747,304 L744,304 L722,274 C721,272 720,271 720,270 C719,269 719,268 718,267 C718,269 719,270 719,271 L719,274 L719,311 L707,311 L707,311 Z M814,265 C814,260 815,256 817,254 C819,252 823,251 829,251 L873,251 C878,251 882,252 884,254 C886,256 887,260 887,265 L887,297 C887,302 886,306 884,308 C882,310 878,311 873,311 L829,311 C823,311 819,310 817,308 C815,306 814,302 814,297 L814,265 L814,265 Z M828,299 L874,299 L874,262 L828,262 L828,299 L828,299 Z M931,299 L949,299 C958,299 965,298 969,295 C973,292 975,287 975,280 C975,274 974,270 970,266 C967,263 962,262 955,262 L931,262 L931,299 L931,299 Z M917,311 L917,251 L955,251 C966,251 975,253 981,259 C987,264 990,271 990,280 C990,286 988,291 986,296 C984,300 981,304 976,306 C974,308 971,309 967,310 C963,310 958,311 952,311 L917,311 L917,311 Z M1029,251 L1029,299 L1069,299 L1069,251 L1083,251 L1083,297 C1083,302 1082,306 1080,308 C1078,310 1074,311 1068,311 L1030,311 C1024,311 1020,310 1018,308 C1016,306 1015,302 1015,297 L1015,251 L1029,251 L1029,251 Z M1113,311 L1113,251 L1127,251 L1127,299 L1172,299 L1172,311 L1113,311 L1113,311 Z M1206,287 L1232,287 L1219,263 L1206,287 L1206,287 Z M1179,311 L1213,251 L1226,251 L1261,311 L1245,311 L1238,298 L1200,298 L1193,311 L1179,311 L1179,311 Z M1325,261 L1294,261 L1294,278 L1325,278 C1327,278 1329,278 1330,277 C1331,276 1331,275 1331,273 L1331,266 C1331,264 1331,263 1330,262 C1329,262 1327,261 1325,261 L1325,261 Z M1280,311 L1280,251 L1331,251 C1336,251 1339,252 1341,254 C1344,255 1345,258 1345,263 L1345,277 C1345,281 1344,284 1341,285 C1339,287 1336,288 1331,288 L1323,288 L1351,311 L1331,311 L1307,288 L1294,288 L1294,311 L1280,311 L1280,311 Z M1463,261 L1432,261 L1432,277 L1463,277 C1465,277 1467,277 1468,276 C1469,275 1469,274 1469,272 L1469,266 C1469,264 1469,263 1468,262 C1467,262 1465,261 1463,261 L1463,261 Z M1418,311 L1418,251 L1469,251 C1474,251 1477,252 1479,254 C1482,255 1483,258 1483,263 L1483,276 C1483,280 1482,283 1479,285 C1477,287 1474,287 1469,287 L1432,287 L1432,311 L1418,311 L1418,311 Z M1504,311 L1504,251 L1518,251 L1518,299 L1563,299 L1563,311 L1504,311 L1504,311 Z M1597,287 L1623,287 L1610,263 L1597,287 L1597,287 Z M1570,311 L1604,251 L1617,251 L1651,311 L1636,311 L1629,298 L1591,298 L1584,311 L1570,311 L1570,311 Z M1691,262 L1691,311 L1677,311 L1677,262 L1649,262 L1649,251 L1718,251 L1718,262 L1691,262 L1691,262 Z M1735,311 L1735,251 L1797,251 L1797,261 L1749,261 L1749,274 L1777,274 L1777,285 L1749,285 L1749,299 L1797,299 L1797,311 L1735,311 L1735,311 Z" id="Shape" fill="#373435" sketch:type="MSShapeGroup"></path>
        </g>
    </g>
</svg>