<?xml version="1.0" encoding="UTF-8" standalone="no"?>
<svg width="1453px" height="613px" viewBox="0 0 1453 613" version="1.1" xmlns="http://www.w3.org/2000/svg" xmlns:xlink="http://www.w3.org/1999/xlink" xmlns:sketch="http://www.bohemiancoding.com/sketch/ns">
    <!-- Generator: Sketch 3.3.1 (12005) - http://www.bohemiancoding.com/sketch -->
    <title>ecologo</title>
    <desc>Created with Sketch.</desc>
    <defs></defs>
    <g id="Page-1" stroke="none" stroke-width="1" fill="none" fill-rule="evenodd" sketch:type="MSPage">
        <g id="ecologo" sketch:type="MSLayerGroup">
            <path d="M0,610 L0,488 L37,488 L59,571 L81,488 L119,488 L119,610 L96,610 L96,514 L71,610 L47,610 L23,514 L23,610 L0,610 L0,610 Z M138,550 C138,537 140,527 144,518 C147,512 150,506 155,501 C160,496 165,493 171,490 C179,487 188,486 198,486 C216,486 230,491 241,502 C252,514 257,529 257,549 C257,569 252,585 241,596 C230,607 216,613 198,613 C180,613 165,607 154,596 C144,585 138,569 138,550 L138,550 Z M164,549 C164,563 167,573 173,581 C180,588 188,591 198,591 C208,591 216,588 222,581 C229,574 232,563 232,549 C232,535 229,524 222,517 C216,510 208,507 198,507 C188,507 179,510 173,517 C167,524 164,535 164,549 L164,549 Z M277,488 L322,488 C332,488 340,488 345,490 C352,492 359,496 364,501 C369,507 373,513 376,521 C378,529 380,539 380,550 C380,560 378,569 376,576 C373,585 368,593 363,598 C358,602 353,605 345,608 C340,610 332,610 323,610 L277,610 L277,488 L277,488 Z M301,508 L301,590 L320,590 C327,590 332,589 335,589 C339,588 342,586 345,583 C348,581 350,577 351,572 C353,566 354,559 354,549 C354,540 353,532 351,527 C350,522 347,518 344,515 C341,512 337,511 333,510 C329,509 323,508 313,508 L301,508 L301,508 Z M400,488 L425,488 L425,554 C425,565 426,572 426,575 C427,580 430,584 434,587 C438,590 443,591 450,591 C457,591 462,590 466,587 C470,584 472,581 472,576 C473,572 474,565 474,556 L474,488 L498,488 L498,552 C498,567 498,577 496,583 C495,589 493,595 489,599 C485,603 480,606 474,609 C468,611 461,613 451,613 C439,613 430,611 424,608 C418,606 413,602 410,598 C406,594 404,589 403,584 C401,577 400,567 400,553 L400,488 L400,488 Z M525,610 L525,489 L550,489 L550,590 L612,590 L612,610 L525,610 L525,610 Z M740,610 L713,610 L702,583 L653,583 L643,610 L617,610 L665,488 L691,488 L740,610 L740,610 Z M694,562 L677,516 L661,562 L694,562 L694,562 Z M753,610 L753,488 L805,488 C819,488 828,489 834,491 C840,493 845,497 848,503 C852,508 854,515 854,522 C854,531 851,539 846,545 C840,551 832,555 821,556 C827,559 831,563 835,567 C838,570 843,577 849,586 L864,610 L834,610 L816,584 C810,574 805,568 803,566 C801,563 798,561 796,561 C793,560 789,559 783,559 L778,559 L778,610 L753,610 L753,610 Z M778,540 L796,540 C808,540 816,539 819,538 C822,537 824,535 826,533 C827,530 828,527 828,524 C828,520 827,516 825,514 C823,511 819,509 815,509 C813,509 807,508 797,508 L778,508 L778,540 L778,540 Z M925,610 L925,488 L964,488 C980,488 989,488 994,489 C1001,491 1007,495 1012,501 C1016,508 1019,516 1019,525 C1019,533 1017,539 1015,544 C1012,550 1008,554 1004,557 C1000,559 996,561 991,562 C985,564 977,564 966,564 L949,564 L949,610 L925,610 L925,610 Z M949,508 L949,543 L963,543 C973,543 979,543 983,541 C986,540 989,538 990,535 C992,533 993,529 993,526 C993,521 992,518 989,515 C987,512 983,510 979,509 C976,509 970,508 961,508 L949,508 L949,508 Z M1040,610 L1040,489 L1065,489 L1065,590 L1126,590 L1126,610 L1040,610 L1040,610 Z M1255,610 L1228,610 L1217,583 L1168,583 L1158,610 L1131,610 L1179,488 L1205,488 L1255,610 L1255,610 Z M1209,562 L1192,516 L1175,562 L1209,562 L1209,562 Z M1283,610 L1283,508 L1246,508 L1246,488 L1344,488 L1344,508 L1308,508 L1308,610 L1283,610 L1283,610 Z M1360,610 L1360,488 L1451,488 L1451,508 L1385,508 L1385,536 L1446,536 L1446,556 L1385,556 L1385,590 L1453,590 L1453,610 L1360,610 L1360,610 Z" id="Shape" fill="#373435" sketch:type="MSShapeGroup"></path>
            <path d="M1094,122 C1069,122 1048,131 1030,150 C1012,168 1003,191 1003,217 C1003,243 1012,265 1030,284 C1048,302 1069,312 1094,312 C1120,312 1141,303 1159,284 C1176,266 1185,243 1185,217 C1185,190 1176,168 1159,150 C1141,131 1120,122 1094,122 L1094,122 Z M1098,0 C1156,0 1206,22 1248,64 C1290,107 1311,158 1311,217 C1311,277 1290,328 1248,370 C1206,412 1154,433 1094,433 C1034,433 983,412 941,370 C899,328 878,277 878,217 C878,156 899,105 941,63 C984,21 1036,0 1098,0 L1098,0 Z" id="Shape" fill="#ED3237" sketch:type="MSShapeGroup"></path>
            <path d="M838,260 C827,310 806,349 775,379 C738,415 689,433 628,433 C567,433 515,413 474,372 C433,330 412,279 412,218 C412,157 433,105 475,63 C517,21 569,0 631,0 C692,0 743,21 784,62 C811,89 830,127 842,174 L706,174 C690,139 664,122 628,122 C602,122 581,131 564,149 C547,167 538,190 538,218 C538,245 546,268 563,285 C580,303 601,312 626,312 C652,312 673,304 689,288 C696,281 703,271 707,260 L838,260 L838,260 Z" id="Shape" fill="#ED3237" sketch:type="MSShapeGroup"></path>
            <path d="M359,171 L359,263 L279,263 C268,263 260,265 256,268 C251,271 249,277 249,284 C249,293 251,298 256,301 C260,304 270,305 284,305 L367,305 L367,423 L270,423 C225,423 190,412 166,391 C142,369 130,338 130,297 L130,135 C130,96 142,65 164,43 C187,22 219,11 260,11 L367,11 L367,129 L288,129 C267,129 257,136 257,150 C257,158 259,163 264,166 C269,170 278,171 291,171 L359,171 L359,171 Z" id="Shape" fill="#ED3237" sketch:type="MSShapeGroup"></path>
        </g>
    </g>
</svg>