<?xml version="1.0" encoding="UTF-8" standalone="no"?>
<svg width="1271px" height="634px" viewBox="0 0 1271 634" version="1.1" xmlns="http://www.w3.org/2000/svg" xmlns:xlink="http://www.w3.org/1999/xlink" xmlns:sketch="http://www.bohemiancoding.com/sketch/ns">
    <!-- Generator: Sketch 3.3.1 (12005) - http://www.bohemiancoding.com/sketch -->
    <title>kriowoodlogo</title>
    <desc>Created with Sketch.</desc>
    <defs></defs>
    <g id="Page-1" stroke="none" stroke-width="1" fill="none" fill-rule="evenodd" sketch:type="MSPage">
        <g id="kriowoodlogo" sketch:type="MSLayerGroup">
            <path d="M1048,347 C1048,295 1059,248 1083,206 C1106,163 1139,142 1181,142 C1209,142 1231,153 1246,174 C1261,195 1269,223 1269,256 L1269,258 L1269,261 L1269,264 L1269,266 C1266,321 1252,368 1228,405 C1204,443 1171,461 1129,461 C1102,461 1081,451 1068,430 C1054,409 1048,382 1048,348 L1048,347 L1048,347 Z M1113,331 L1113,344 L1113,357 C1114,369 1116,380 1120,391 C1124,401 1131,406 1142,406 C1160,406 1174,392 1185,364 C1196,336 1202,302 1204,263 C1204,240 1202,224 1198,215 C1194,206 1186,201 1175,201 C1159,201 1146,210 1137,229 C1128,247 1122,267 1118,289 C1116,296 1115,304 1115,311 C1114,318 1113,325 1113,331 L1113,331 L1113,331 Z" id="Shape" fill="#2B54A3" sketch:type="MSShapeGroup"></path>
            <path d="M536,565 C545,570 567,583 577,583 C594,583 598,555 598,543 C598,496 559,471 522,450 L316,330 C304,322 278,313 278,295 C278,282 286,273 297,265 L597,116 C652,131 702,44 702,33 C702,25 696,18 686,18 C678,18 646,33 638,37 C491,106 347,177 203,251 C178,264 152,282 152,315 C152,330 158,338 166,349 C282,431 416,494 536,565 L536,565 Z" id="Shape" fill="#ED3237" sketch:type="MSShapeGroup"></path>
            <path d="M65,517 C56,529 48,539 48,554 C48,566 60,572 70,572 C103,572 170,517 170,477 C267,360 352,235 438,109 C446,97 459,81 459,66 C459,51 444,32 435,20 C422,5 418,-1 397,1 C272,7 149,68 108,82 L106,81 C146,46 144,48 144,42 C144,37 141,33 135,33 C126,33 117,40 110,45 L65,78 C38,99 31,100 20,132 C15,148 0,193 0,209 C0,224 10,233 25,233 C41,233 59,224 72,218 C200,155 254,126 390,94 C297,240 172,379 65,517 L65,517 Z" id="Shape" fill="#2B54A3" sketch:type="MSShapeGroup"></path>
            <path d="M536,565 C545,570 567,583 577,583 C594,583 598,555 598,543 C598,496 559,471 522,450 C485,428 240,287 241,285 C245,282 152,315 152,315 C152,330 158,338 166,349 C282,431 416,494 536,565 L536,565 Z" id="Shape" fill="#ED3237" sketch:type="MSShapeGroup"></path>
            <path d="M552,430 L337,298 L597,168 L552,430 Z" id="Shape" fill="#373435" sketch:type="MSShapeGroup"></path>
            <path d="M640,487 L1185,487 L1185,498 L640,498 L640,487 Z" id="Shape" fill="#ED3237" sketch:type="MSShapeGroup"></path>
            <path d="M899,459 L945,146 L1007,146 L961,459 L899,459 Z" id="Shape" fill="#2B54A3" sketch:type="MSShapeGroup"></path>
            <path d="M637,455 L686,142 L752,142 C788,142 814,150 829,164 C843,179 850,196 850,214 L850,221 L850,227 C847,245 841,261 830,277 C820,293 808,304 796,309 C795,310 793,311 791,311 C790,311 788,312 787,312 L820,455 L755,455 L722,314 L699,455 L637,455 L637,455 Z M729,279 L730,279 L732,279 C732,280 733,280 733,280 L735,280 C749,280 760,275 770,266 C779,257 784,246 787,235 L787,231 C787,229 788,228 788,226 C788,217 785,209 779,203 C773,197 764,194 752,194 L747,194 L742,194 L729,279 L729,279 Z" id="Shape" fill="#2B54A3" sketch:type="MSShapeGroup"></path>
            <path d="M687,634 L649,541 L673,541 L698,606 L724,541 L739,541 L766,606 L790,541 L810,541 L773,634 L757,634 L730,568 L703,634 L687,634 Z" id="Shape" fill="#373435" sketch:type="MSShapeGroup"></path>
            <path d="M857,616 L932,616 L932,558 L857,558 L857,616 L857,616 Z M834,563 C834,554 836,549 839,546 C842,542 849,541 858,541 L930,541 C940,541 947,542 950,546 C953,549 955,554 955,563 L955,612 C955,621 953,627 950,630 C946,633 940,634 930,634 L858,634 C849,634 842,633 839,630 C836,627 834,621 834,612 L834,563 L834,563 Z" id="1" fill="#373435" sketch:type="MSShapeGroup"></path>
            <path d="M1015,616 L1090,616 L1090,558 L1015,558 L1015,616 L1015,616 Z M992,563 C992,554 993,549 997,546 C1000,542 1006,541 1016,541 L1088,541 C1098,541 1104,542 1108,546 C1111,549 1113,554 1113,563 L1113,612 C1113,621 1111,627 1108,630 C1104,633 1098,634 1088,634 L1016,634 C1006,634 1000,633 997,630 C993,627 992,621 992,612 L992,563 L992,563 Z" id="2" fill="#373435" sketch:type="MSShapeGroup"></path>
            <path d="M1175,617 L1204,617 C1220,617 1231,615 1238,610 C1244,605 1247,597 1247,586 C1247,577 1245,569 1239,565 C1234,560 1226,558 1215,558 L1175,558 L1175,617 L1175,617 Z M1152,634 L1152,541 L1215,541 C1233,541 1247,545 1256,553 C1266,561 1271,572 1271,587 C1271,603 1266,615 1255,623 C1245,630 1230,634 1209,634 L1152,634 L1152,634 Z" id="3" fill="#373435" sketch:type="MSShapeGroup"></path>
        </g>
    </g>
</svg>