<?xml version="1.0" encoding="UTF-8" standalone="no"?>
<svg width="2382px" height="530px" viewBox="0 0 2382 530" version="1.1" xmlns="http://www.w3.org/2000/svg" xmlns:xlink="http://www.w3.org/1999/xlink" xmlns:sketch="http://www.bohemiancoding.com/sketch/ns">
    <!-- Generator: Sketch 3.3.1 (12005) - http://www.bohemiancoding.com/sketch -->
    <title>kriofillilogo</title>
    <desc>Created with Sketch.</desc>
    <defs></defs>
    <g id="Page-1" stroke="none" stroke-width="1" fill="none" fill-rule="evenodd" sketch:type="MSPage">
        <g id="kriofillilogo" sketch:type="MSLayerGroup" transform="translate(4.000000, 4.000000)">
            <g id="_724190424" sketch:type="MSShapeGroup">
                <path d="M0,0 L1023,0 L1023,522 L0,522 L0,0 Z" id="Shape" stroke="#FEFEFE" stroke-width="6.94488" fill="#E6E7E8"></path>
                <path d="M787,300 C787,265 795,234 811,206 C827,177 849,163 877,163 C896,163 911,170 921,184 C931,199 936,217 937,239 L937,240 L937,242 C936,243 936,243 936,244 L936,246 C934,283 925,314 909,339 C893,364 871,376 842,376 C824,376 810,369 801,355 C792,341 787,323 787,300 L787,300 L787,300 Z M831,289 L831,297 L831,306 C832,314 833,322 836,329 C839,336 844,339 851,339 C863,339 873,330 880,311 C887,292 891,270 893,243 C893,228 891,218 888,211 C886,205 880,202 873,202 C862,202 854,208 848,221 C842,233 837,246 834,261 C834,266 833,271 832,276 C832,280 831,285 831,289 L831,289 L831,289 Z" id="Shape" fill="#2B54A3"></path>
                <path d="M443,445 C449,448 464,457 471,457 C482,457 484,438 484,430 C484,399 459,382 434,368 L295,288 C287,283 270,277 270,265 C270,256 275,251 282,245 L484,146 C521,156 555,98 555,91 C555,85 551,80 544,80 C538,80 517,90 511,93 C413,139 316,186 219,236 C202,245 185,257 185,278 C185,288 188,294 194,301 C272,356 362,398 443,445 L443,445 Z" id="Shape" fill="#ED3237"></path>
                <path d="M126,413 C120,421 115,428 115,438 C115,446 122,450 130,450 C152,450 197,413 197,387 C262,309 319,225 377,141 C383,133 391,122 391,112 C391,102 381,89 375,82 C366,72 363,68 349,69 C265,73 183,113 155,123 L154,122 C181,99 179,100 179,96 C179,93 177,90 173,90 C167,90 161,95 156,98 L126,120 C108,134 103,135 96,156 C92,167 82,197 82,208 C82,218 89,224 99,224 C110,224 122,218 131,214 C217,172 253,153 345,131 C282,228 198,321 126,413 L126,413 Z" id="Shape" fill="#2B54A3"></path>
                <path d="M443,445 C449,448 464,457 471,457 C482,457 484,438 484,430 C484,399 459,382 434,368 C408,354 244,259 245,258 C247,257 185,278 185,278 C185,288 188,294 194,301 C272,356 362,398 443,445 L443,445 Z" id="Shape" fill="#ED3237"></path>
                <path d="M454,355 L309,267 L484,180 L454,355 Z" id="Shape" fill="#373435"></path>
                <path d="M515,443 L515,415 L525,415 L530,415 C532,415 533,416 534,417 C536,418 537,420 538,422 C538,424 539,426 539,429 C539,431 538,433 538,435 C537,436 537,438 536,439 L533,442 C532,442 531,443 530,443 L525,443 L515,443 L515,443 Z M518,440 L525,440 L529,440 C530,439 531,439 532,438 C533,437 533,436 534,434 C534,433 535,431 535,429 C535,426 534,424 533,422 C532,420 531,419 530,419 C529,418 527,418 525,418 L518,418 L518,440 L518,440 Z M545,443 L545,415 L548,415 L548,443 L545,443 L545,443 Z M555,443 L555,415 L575,415 L575,418 L559,418 L559,427 L573,427 L573,430 L559,430 L559,443 L555,443 L555,443 Z M580,443 L580,415 L600,415 L600,418 L584,418 L584,427 L598,427 L598,430 L584,430 L584,443 L580,443 L580,443 Z M605,443 L605,415 L626,415 L626,418 L609,418 L609,427 L625,427 L625,430 L609,430 L609,440 L627,440 L627,443 L605,443 L605,443 Z M632,443 L632,415 L645,415 L651,415 L654,418 C655,420 655,421 655,423 C655,425 654,426 653,428 C652,429 650,430 647,430 C648,431 649,431 649,432 C650,433 651,434 652,436 L658,443 L653,443 L649,437 C648,436 647,434 646,434 C645,433 645,432 644,432 C644,431 643,431 642,431 L640,431 L636,431 L636,443 L632,443 L632,443 Z M636,427 L644,427 L648,427 C649,426 650,426 650,425 C651,424 651,423 651,423 C651,421 651,420 650,419 C649,418 647,418 645,418 L636,418 L636,427 L636,427 Z M661,443 L661,415 L682,415 L682,418 L665,418 L665,427 L681,427 L681,430 L665,430 L665,440 L683,440 L683,443 L661,443 L661,443 Z M688,443 L688,415 L692,415 L707,437 L707,415 L711,415 L711,443 L707,443 L692,421 L692,443 L688,443 L688,443 Z M725,443 L725,418 L715,418 L715,415 L738,415 L738,418 L729,418 L729,443 L725,443 L725,443 Z M752,434 L756,434 C756,435 756,437 757,437 L760,440 C761,440 763,441 764,441 C766,441 767,440 768,440 C769,439 770,439 771,438 C771,437 772,437 772,436 C772,435 771,434 771,433 C770,433 770,432 768,432 C768,431 766,431 763,430 C760,430 759,429 758,428 C756,428 755,427 754,426 C754,425 753,423 753,422 C753,421 754,419 755,418 C755,417 757,416 758,415 C760,415 762,414 764,414 C766,414 768,415 769,415 C771,416 772,417 773,418 C774,420 774,421 775,423 L771,423 C771,421 770,420 769,419 C768,418 766,418 764,418 C761,418 760,418 759,419 C758,420 757,421 757,422 C757,423 757,424 758,424 C759,425 761,426 764,426 C767,427 769,428 770,428 C772,429 773,430 774,431 C775,432 775,434 775,435 C775,437 775,438 774,440 C773,441 772,442 770,443 C769,444 767,444 765,444 C762,444 760,444 758,443 C756,442 755,441 754,439 C753,438 752,436 752,434 L752,434 Z M788,443 L788,418 L778,418 L778,415 L802,415 L802,418 L792,418 L792,443 L788,443 L788,443 Z M814,443 L814,431 L802,415 L807,415 L813,423 C814,425 815,427 816,428 C817,427 818,425 819,423 L825,415 L829,415 L817,431 L817,443 L814,443 L814,443 Z M832,443 L832,415 L836,415 L836,440 L851,440 L850,443 L832,443 L832,443 Z M855,443 L855,415 L876,415 L876,418 L859,418 L859,427 L875,427 L875,430 L859,430 L859,440 L877,440 L877,443 L855,443 L855,443 Z" id="Shape" fill="#373435"></path>
                <path d="M513,393 L880,393 L880,400 L513,400 L513,393 Z" id="Shape" fill="#ED3237"></path>
                <path d="M688,374 L718,165 L760,165 L729,374 L688,374 Z" id="Shape" fill="#2B54A3"></path>
                <path d="M511,372 L544,163 L588,163 C613,163 630,168 640,178 C650,188 655,199 655,211 C655,213 655,214 654,215 L654,220 C652,232 648,243 641,253 C634,264 626,271 618,274 C617,275 616,275 615,276 L612,276 L634,372 L590,372 L568,278 L553,372 L511,372 L511,372 Z M573,254 C573,254 573,255 574,255 L575,255 L576,255 L577,255 C586,255 594,252 600,246 C606,239 610,233 612,225 L612,222 L612,219 C612,213 610,208 607,204 C603,199 597,197 588,197 C587,197 586,197 585,198 L581,198 L573,254 L573,254 Z" id="Shape" fill="#2B54A3"></path>
                <path d="M2374,0 L1023,0 L1023,522 L2374,522 L2374,0 Z" id="Shape" stroke="#FEFEFE" stroke-width="6.94488" fill="#2B54A3"></path>
                <path d="M1235,242 L1262,242 C1277,221 1289,203 1297,188 C1305,173 1309,163 1309,158 C1309,151 1303,148 1292,148 C1285,148 1273,150 1256,152 C1239,154 1223,157 1207,160 C1192,163 1181,166 1172,169 C1164,171 1158,174 1154,176 C1151,178 1148,179 1148,180 C1156,179 1164,179 1170,179 C1179,179 1184,180 1184,182 C1184,183 1180,184 1174,186 C1167,187 1161,189 1155,191 C1149,192 1144,194 1138,196 C1133,199 1130,200 1128,200 C1126,200 1123,199 1122,197 C1120,195 1119,192 1119,189 C1119,187 1121,182 1124,174 C1127,165 1132,157 1138,148 C1143,140 1151,133 1159,129 C1163,128 1173,125 1190,121 C1207,117 1226,113 1248,110 C1269,107 1289,105 1307,105 C1318,105 1326,107 1333,110 C1339,113 1343,119 1343,129 C1343,132 1341,137 1339,144 C1337,150 1333,159 1328,169 C1323,179 1316,191 1309,203 C1302,215 1293,228 1284,242 L1311,242 L1288,276 L1276,276 C1271,277 1266,277 1260,277 C1246,296 1230,313 1213,330 C1196,346 1181,360 1167,370 C1154,380 1144,385 1139,385 C1136,385 1134,384 1133,383 C1131,381 1130,379 1130,377 C1130,375 1133,370 1138,361 C1143,353 1151,346 1160,338 C1169,331 1180,327 1192,326 C1196,321 1201,317 1204,313 C1208,309 1212,303 1219,296 C1225,288 1230,283 1233,279 L1180,281 C1175,282 1171,281 1168,281 C1166,280 1165,278 1165,275 C1165,275 1166,273 1167,270 C1168,267 1169,265 1171,262 C1173,259 1174,257 1175,256 C1176,256 1179,255 1185,253 L1217,246 C1226,243 1232,242 1235,242 L1235,242 Z" id="Shape" fill="#FEFEFE"></path>
                <path d="M1392,196 C1389,196 1386,195 1383,192 C1381,190 1380,187 1380,184 C1380,179 1382,173 1387,167 C1392,160 1397,157 1402,157 C1406,157 1409,158 1411,160 C1413,162 1415,166 1415,170 C1415,175 1412,180 1407,187 C1403,193 1397,196 1392,196 L1392,196 Z M1404,274 L1404,287 C1392,302 1382,313 1372,320 C1362,328 1354,332 1347,332 C1337,332 1330,327 1325,317 C1321,306 1318,295 1318,283 C1318,279 1319,274 1320,270 C1321,266 1322,263 1323,260 C1324,257 1327,253 1330,247 C1347,221 1362,208 1376,208 C1383,208 1387,211 1387,217 C1387,220 1384,226 1380,234 C1375,242 1371,248 1367,251 C1357,261 1350,268 1347,272 C1344,276 1343,280 1343,285 C1343,289 1344,293 1347,296 C1351,299 1355,300 1360,300 C1365,300 1371,298 1378,294 C1385,290 1393,283 1404,274 L1404,274 Z" id="Shape" fill="#FEFEFE"></path>
                <path d="M1613,196 L1619,202 C1609,214 1601,223 1594,228 C1586,234 1581,237 1578,237 C1575,237 1573,234 1573,229 C1573,216 1582,197 1598,171 C1612,148 1619,135 1619,133 C1619,131 1618,130 1616,130 C1613,130 1605,137 1592,152 C1578,167 1562,187 1542,214 C1520,245 1505,266 1497,279 C1513,281 1525,282 1535,285 C1546,287 1560,291 1579,297 C1598,302 1612,305 1621,306 C1610,319 1603,327 1599,332 C1594,336 1591,339 1589,340 C1585,341 1580,342 1573,340 C1566,339 1555,336 1540,332 C1525,329 1511,325 1498,323 C1485,320 1473,319 1462,319 C1456,319 1451,320 1446,321 C1442,322 1436,325 1428,328 C1420,331 1415,333 1412,333 C1407,333 1405,331 1405,327 C1405,325 1406,323 1407,320 C1411,314 1415,308 1418,302 C1422,296 1426,292 1430,289 C1434,286 1440,283 1448,281 C1456,280 1466,279 1478,279 C1498,249 1515,223 1532,200 C1549,178 1564,159 1577,143 C1591,127 1603,115 1613,107 C1623,99 1631,95 1637,95 C1641,95 1645,97 1647,99 C1649,101 1651,105 1651,109 C1651,123 1638,152 1613,196 L1613,196 Z" id="Shape" fill="#FEFEFE"></path>
                <path d="M1828,196 L1833,202 C1824,214 1815,223 1808,228 C1801,234 1796,237 1792,237 C1789,237 1788,234 1788,229 C1788,216 1796,197 1813,171 C1827,148 1834,135 1834,133 C1834,131 1833,130 1831,130 C1828,130 1819,137 1806,152 C1793,167 1776,187 1757,214 C1735,245 1720,266 1711,279 C1727,281 1740,282 1750,285 C1760,287 1775,291 1794,297 C1813,302 1827,305 1836,306 C1825,319 1817,327 1813,332 C1809,336 1806,339 1803,340 C1800,341 1795,342 1788,340 C1781,339 1770,336 1755,332 C1740,329 1726,325 1713,323 C1700,320 1688,319 1677,319 C1671,319 1665,320 1661,321 C1657,322 1650,325 1643,328 C1635,331 1629,333 1626,333 C1622,333 1619,331 1619,327 C1619,325 1620,323 1622,320 C1625,314 1629,308 1633,302 C1637,296 1640,292 1644,289 C1649,286 1655,283 1662,281 C1670,280 1680,279 1693,279 C1712,249 1730,223 1747,200 C1763,178 1778,159 1792,143 C1805,127 1817,115 1827,107 C1838,99 1846,95 1852,95 C1856,95 1859,97 1862,99 C1864,101 1865,105 1865,109 C1865,123 1853,152 1828,196 L1828,196 Z" id="Shape" fill="#FEFEFE"></path>
                <path d="M1928,196 C1925,196 1922,195 1920,192 C1917,190 1916,187 1916,184 C1916,179 1918,173 1923,167 C1928,160 1933,157 1938,157 C1942,157 1945,158 1947,160 C1950,162 1951,166 1951,170 C1951,175 1948,180 1944,187 C1939,193 1934,196 1928,196 L1928,196 Z M1940,274 L1940,287 C1929,302 1918,313 1908,320 C1898,328 1890,332 1883,332 C1873,332 1866,327 1861,317 C1857,306 1854,295 1854,283 C1854,279 1855,274 1856,270 C1857,266 1858,263 1859,260 C1860,257 1863,253 1866,247 C1883,221 1898,208 1912,208 C1919,208 1923,211 1923,217 C1923,220 1921,226 1916,234 C1911,242 1907,248 1904,251 C1893,261 1887,268 1884,272 C1880,276 1879,280 1879,285 C1879,289 1880,293 1884,296 C1887,299 1891,300 1896,300 C1902,300 1908,298 1914,294 C1921,290 1929,283 1940,274 L1940,274 Z" id="Shape" fill="#FEFEFE"></path>
                <path d="M1247,390 L1211,390 L1211,423 L1247,423 L1247,410 L1229,410 L1229,404 L1255,404 L1255,418 C1255,423 1254,425 1252,427 C1251,428 1248,429 1244,429 L1214,429 C1210,429 1207,428 1206,427 C1205,425 1204,423 1204,418 L1204,394 C1204,390 1205,387 1206,386 C1207,384 1210,384 1214,384 L1244,384 C1248,384 1251,384 1252,386 C1254,387 1255,390 1255,394 L1255,395 L1247,397 L1247,390 L1247,390 Z" id="Shape" fill="#FEFEFE"></path>
                <path d="M1276,429 L1276,384 L1284,384 L1284,423 L1319,423 L1319,429 L1276,429 Z" id="1" fill="#FEFEFE"></path>
                <path d="M1343,412 L1368,412 L1355,389 L1343,412 L1343,412 Z M1327,429 L1352,384 L1360,384 L1385,429 L1377,429 L1371,418 L1340,418 L1334,429 L1327,429 L1327,429 Z" id="2" fill="#FEFEFE"></path>
                <path d="M1439,390 L1406,390 L1406,403 L1435,403 C1439,403 1442,403 1443,405 C1445,406 1446,409 1446,413 L1446,418 C1446,423 1445,425 1443,427 C1442,428 1439,429 1435,429 L1408,429 C1404,429 1402,428 1400,427 C1399,425 1398,423 1398,418 L1398,417 L1405,415 L1405,423 L1439,423 L1439,409 L1410,409 C1406,409 1403,408 1402,407 C1400,405 1400,403 1400,398 L1400,394 C1400,390 1400,387 1402,386 C1403,384 1406,384 1410,384 L1434,384 C1438,384 1441,384 1443,386 C1444,387 1445,390 1445,394 L1445,395 L1439,396 L1439,390 L1439,390 Z" id="3" fill="#FEFEFE"></path>
                <path d="M1507,390 L1475,390 L1475,403 L1504,403 C1508,403 1511,403 1512,405 C1514,406 1514,409 1514,413 L1514,418 C1514,423 1514,425 1512,427 C1511,428 1508,429 1504,429 L1477,429 C1473,429 1470,428 1469,427 C1467,425 1467,423 1467,418 L1467,417 L1474,415 L1474,423 L1508,423 L1508,409 L1479,409 C1475,409 1472,408 1471,407 C1469,405 1468,403 1468,398 L1468,394 C1468,390 1469,387 1471,386 C1472,384 1475,384 1479,384 L1503,384 C1507,384 1510,384 1512,386 C1513,387 1514,390 1514,394 L1514,395 L1507,396 L1507,390 L1507,390 Z" id="4" fill="#FEFEFE"></path>
                <path d="M1604,390 L1578,390 L1578,405 L1604,405 C1606,405 1607,405 1608,404 C1609,404 1609,402 1609,401 L1609,394 C1609,393 1609,391 1608,391 C1607,390 1606,390 1604,390 L1604,390 Z M1570,429 L1570,384 L1607,384 C1611,384 1613,384 1614,386 C1616,387 1617,389 1617,392 L1617,403 C1617,406 1616,408 1614,409 C1613,411 1611,411 1607,411 L1578,411 L1578,429 L1570,429 L1570,429 Z" id="5" fill="#FEFEFE"></path>
                <path d="M1635,429 L1635,384 L1643,384 L1643,423 L1677,423 L1677,429 L1635,429 Z" id="6" fill="#FEFEFE"></path>
                <path d="M1702,412 L1727,412 L1714,389 L1702,412 L1702,412 Z M1686,429 L1710,384 L1719,384 L1744,429 L1736,429 L1730,418 L1699,418 L1693,429 L1686,429 L1686,429 Z" id="7" fill="#FEFEFE"></path>
                <path d="M1770,390 L1770,429 L1762,429 L1762,390 L1741,390 L1741,384 L1791,384 L1791,390 L1770,390 Z" id="8" fill="#FEFEFE"></path>
                <path d="M1804,429 L1804,384 L1847,384 L1847,390 L1811,390 L1811,402 L1833,402 L1833,408 L1811,408 L1811,423 L1848,423 L1848,429 L1804,429 Z" id="9" fill="#FEFEFE"></path>
                <path d="M1905,390 L1872,390 L1872,403 L1901,403 C1905,403 1908,403 1909,405 C1911,406 1912,409 1912,413 L1912,418 C1912,423 1911,425 1909,427 C1908,428 1905,429 1901,429 L1875,429 C1870,429 1868,428 1866,427 C1865,425 1864,423 1864,418 L1864,417 L1871,415 L1871,423 L1905,423 L1905,409 L1876,409 C1872,409 1869,408 1868,407 C1866,405 1866,403 1866,398 L1866,394 C1866,390 1866,387 1868,386 C1869,384 1872,384 1876,384 L1900,384 C1904,384 1907,384 1909,386 C1910,387 1911,390 1911,394 L1911,395 L1905,396 L1905,390 L1905,390 Z" id="10" fill="#FEFEFE"></path>
            </g>
        </g>
    </g>
</svg>