<?xml version="1.0" encoding="UTF-8" standalone="no"?>
<svg width="1155px" height="530px" viewBox="0 0 1155 530" version="1.1" xmlns="http://www.w3.org/2000/svg" xmlns:xlink="http://www.w3.org/1999/xlink" xmlns:sketch="http://www.bohemiancoding.com/sketch/ns">
    <!-- Generator: Sketch 3.3.1 (12005) - http://www.bohemiancoding.com/sketch -->
    <title>kriologo</title>
    <desc>Created with Sketch.</desc>
    <defs></defs>
    <g id="Page-1" stroke="none" stroke-width="1" fill="none" fill-rule="evenodd" sketch:type="MSPage">
        <g id="kriologo" sketch:type="MSLayerGroup">
            <path d="M953,316 C953,268 964,226 985,187 C1006,149 1036,129 1075,129 C1100,129 1120,139 1134,158 C1148,178 1155,202 1155,232 L1155,235 L1155,237 L1155,240 L1155,242 C1152,292 1139,335 1117,369 C1096,403 1066,420 1027,420 C1002,420 984,410 971,391 C959,372 953,347 953,316 L953,316 L953,316 Z M1012,301 L1012,312 C1012,316 1012,320 1013,324 C1013,336 1015,346 1019,355 C1023,365 1029,369 1039,369 C1055,369 1068,357 1078,331 C1088,305 1094,274 1095,239 C1095,218 1094,203 1090,195 C1086,187 1079,183 1069,183 C1054,183 1043,191 1035,208 C1026,224 1020,243 1017,263 C1016,269 1015,276 1014,282 C1013,289 1013,295 1012,301 L1012,301 L1012,301 Z" id="Shape" fill="#2B54A3" sketch:type="MSShapeGroup"></path>
            <path d="M488,514 C496,518 516,530 525,530 C541,530 544,505 544,493 C544,451 509,428 476,409 L288,300 C277,293 254,284 254,269 C254,256 260,249 271,241 L543,105 C594,119 639,40 639,30 C639,22 634,16 625,16 C617,16 588,30 580,33 C447,96 316,161 185,229 C162,240 139,257 139,286 C139,300 144,307 151,318 C257,392 378,449 488,514 L488,514 Z" id="Shape" fill="#ED3237" sketch:type="MSShapeGroup"></path>
            <path d="M60,470 C51,481 44,490 44,504 C44,515 54,520 64,520 C94,520 155,470 155,434 C243,328 320,213 399,99 C406,88 417,73 417,60 C417,46 404,29 396,18 C384,4 380,-1 361,1 C247,7 136,61 98,75 L97,73 C133,42 131,44 131,38 C131,33 129,30 123,30 C115,30 107,36 100,41 L60,71 C35,90 28,91 19,120 C14,135 0,175 0,190 C0,204 9,212 23,212 C37,212 54,204 66,198 C182,141 231,115 355,85 C270,218 157,345 60,470 L60,470 Z" id="Shape" fill="#2B54A3" sketch:type="MSShapeGroup"></path>
            <path d="M818,417 L860,132 L916,132 L875,417 L818,417 Z" id="Shape" fill="#2B54A3" sketch:type="MSShapeGroup"></path>
            <path d="M580,413 L624,129 L684,129 C717,129 741,136 754,149 C767,163 774,178 774,195 L774,201 C773,202 773,204 773,206 C771,223 765,238 755,252 C746,266 736,276 724,281 C723,282 722,282 720,283 C719,283 717,283 716,284 L746,413 L687,413 L657,286 L636,413 L580,413 L580,413 Z M663,254 L664,254 L666,254 L667,254 L668,254 C681,254 692,250 700,242 C709,233 714,224 716,214 L716,210 C717,208 717,207 717,205 C717,197 714,190 709,185 C704,179 696,176 684,176 L680,176 C678,176 677,176 675,177 L663,254 L663,254 Z" id="Shape" fill="#2B54A3" sketch:type="MSShapeGroup"></path>
            <path d="M488,514 C496,518 516,530 525,530 C541,530 544,505 544,493 C544,451 509,428 476,409 C441,389 218,261 220,259 C223,257 139,286 139,286 C139,300 144,307 151,318 C257,392 378,449 488,514 L488,514 Z" id="Shape" fill="#ED3237" sketch:type="MSShapeGroup"></path>
            <path d="M503,391 L307,271 L544,153 L503,391 Z" id="Shape" fill="#373435" sketch:type="MSShapeGroup"></path>
            <path d="M592,511 L592,473 L605,473 L612,473 C614,474 616,475 617,476 C619,478 621,480 622,483 C623,485 623,488 623,492 C623,495 623,497 622,499 C622,502 621,503 620,505 C619,506 618,508 616,508 C615,509 614,510 612,510 C610,511 608,511 606,511 L592,511 L592,511 Z M597,506 L605,506 L611,506 C612,505 614,505 614,504 C616,503 617,501 617,499 C618,497 618,494 618,492 C618,488 618,485 616,482 C615,480 613,479 611,478 C610,478 608,477 605,477 L597,477 L597,506 L597,506 Z M631,511 L631,473 L636,473 L636,511 L631,511 L631,511 Z M645,511 L645,473 L671,473 L671,477 L651,477 L651,489 L668,489 L668,494 L651,494 L651,511 L645,511 L645,511 Z M678,511 L678,473 L704,473 L704,477 L683,477 L683,489 L701,489 L701,494 L683,494 L683,511 L678,511 L678,511 Z M711,511 L711,473 L738,473 L738,477 L716,477 L716,489 L737,489 L737,493 L716,493 L716,506 L739,506 L739,511 L711,511 L711,511 Z M746,511 L746,473 L763,473 C766,473 769,473 771,474 C773,475 774,476 775,477 C776,479 777,481 777,483 C777,486 776,488 774,490 C772,492 769,493 766,494 C767,494 768,495 769,496 C770,497 772,499 773,501 L780,511 L773,511 L768,503 C767,501 766,499 765,498 L762,495 C761,495 761,494 760,494 L757,494 L751,494 L751,511 L746,511 L746,511 Z M751,490 L762,490 C764,490 766,489 767,489 C769,488 770,488 770,487 C771,486 771,484 771,483 C771,481 771,480 769,479 C768,478 766,477 763,477 L751,477 L751,490 L751,490 Z M785,511 L785,473 L812,473 L812,477 L790,477 L790,489 L811,489 L811,493 L790,493 L790,506 L813,506 L813,511 L785,511 L785,511 Z M820,511 L820,473 L825,473 L845,503 L845,473 L850,473 L850,511 L845,511 L825,481 L825,511 L820,511 L820,511 Z M868,511 L868,477 L856,477 L856,473 L886,473 L886,477 L873,477 L873,511 L868,511 L868,511 Z M904,499 L909,498 C909,500 910,502 911,503 C911,504 913,505 915,506 C916,507 918,507 920,507 C922,507 924,507 925,506 C927,506 928,505 929,504 C929,503 930,502 930,501 C930,499 930,498 929,497 C928,497 927,496 925,495 C924,495 922,494 919,493 C915,493 913,492 911,491 C909,490 908,489 907,487 C906,486 906,484 906,483 C906,481 906,479 907,477 C909,476 910,474 912,473 C914,473 917,472 919,472 C922,472 925,473 927,474 C929,474 931,476 932,478 C933,479 933,481 934,484 L929,484 C928,482 928,480 926,478 C925,477 922,477 919,477 C916,477 914,477 913,478 C911,479 911,481 911,482 C911,484 911,485 912,486 C913,487 916,488 920,488 C924,489 927,490 928,491 C930,492 932,493 933,495 C934,496 935,498 935,500 C935,502 934,504 933,506 C932,508 930,509 928,510 C926,511 923,512 921,512 C917,512 914,511 912,510 C910,509 908,508 906,506 C905,504 904,501 904,499 L904,499 Z M951,511 L951,477 L939,477 L939,473 L969,473 L969,477 L956,477 L956,511 L951,511 L951,511 Z M985,511 L985,495 L970,473 L976,473 L984,484 C985,486 987,489 988,491 C989,489 990,487 992,484 L999,473 L1005,473 L990,495 L990,511 L985,511 L985,511 Z M1010,511 L1010,473 L1015,473 L1015,506 L1033,506 L1033,511 L1010,511 L1010,511 Z M1040,511 L1040,473 L1067,473 L1067,477 L1045,477 L1045,489 L1066,489 L1066,493 L1045,493 L1045,506 L1068,506 L1068,511 L1040,511 L1040,511 Z" id="Shape" fill="#373435" sketch:type="MSShapeGroup"></path>
            <path d="M582,443 L1078,443 L1078,453 L582,453 L582,443 Z" id="Shape" fill="#ED3237" sketch:type="MSShapeGroup"></path>
        </g>
    </g>
</svg>