<?xml version="1.0" encoding="UTF-8" standalone="no"?>
<svg width="2299px" height="768px" viewBox="0 0 2299 768" version="1.1" xmlns="http://www.w3.org/2000/svg" xmlns:xlink="http://www.w3.org/1999/xlink" xmlns:sketch="http://www.bohemiancoding.com/sketch/ns">
    <!-- Generator: Sketch 3.3.1 (12005) - http://www.bohemiancoding.com/sketch -->
    <title>vankonlogo</title>
    <desc>Created with Sketch.</desc>
    <defs></defs>
    <g id="Page-1" stroke="none" stroke-width="1" fill="none" fill-rule="evenodd" sketch:type="MSPage">
        <g id="vankonlogo" sketch:type="MSLayerGroup">
            <g id="_724195296" sketch:type="MSShapeGroup">
                <path d="M0,210 L153,572 L300,572 L449,211 L308,211 L225,435 L149,211 L0,210 Z" id="Shape" fill="#F58634"></path>
                <path d="M227,217 C258,217 283,242 283,273 C283,303 258,328 227,328 C196,328 171,303 171,273 C171,242 196,217 227,217 L227,217 Z" id="Shape" fill="#F58634"></path>
                <path d="M561,350 L641,571 L586,571 L533,432 L561,350 Z" id="Shape" fill="#F58634"></path>
                <path d="M1867,308 L1867,212 L2003,212 L2155,419 L2153,212 L2292,212 L2293,582 L2155,582 L2003,371 L2003,582 L1864,582 L1865,487 C1818,592 1635,619 1512,561 L1484,546 L1452,503 L1429,473 C1414,423 1411,371 1429,325 C1447,281 1473,256 1516,235 C1598,195 1691,191 1774,228 C1816,247 1840,270 1867,308 L1867,308 Z M1602,307 C1617,300 1633,297 1650,298 C1667,298 1677,299 1693,306 C1714,315 1724,326 1731,346 C1745,396 1736,463 1711,483 C1689,497 1668,499 1649,500 C1626,500 1603,493 1591,481 C1564,454 1554,399 1571,346 C1577,327 1583,315 1602,307 L1602,307 Z" id="Shape" fill="#373435"></path>
                <path d="M344,572 L495,203 L646,203 L761,466 L761,204 L897,203 L1045,405 L1045,203 L1189,203 L1189,329 L1323,203 L1494,203 L1330,339 L1510,572 L1341,573 L1227,425 L1189,455 L1189,573 L1047,573 L899,369 L899,573 L664,573 L572,317 L484,572 L344,572 Z" id="Shape" fill="#373435"></path>
                <path d="M1867,298 L1867,203 L2003,203 L2155,409 L2153,203 L2292,203 L2293,572 L2155,572 L2003,362 L2003,572 L1864,572 L1865,478 C1818,583 1635,610 1512,552 L1484,537 L1452,494 L1429,463 C1414,413 1411,361 1429,315 C1447,271 1473,247 1516,226 C1598,186 1691,181 1774,219 C1816,237 1840,261 1867,298 L1867,298 Z M1602,297 C1617,291 1633,288 1650,288 C1667,288 1677,289 1693,296 C1714,305 1724,316 1731,337 C1745,386 1736,453 1711,473 C1689,488 1668,489 1649,490 C1626,490 1603,484 1591,472 C1564,444 1554,390 1571,337 C1577,317 1583,306 1602,297 L1602,297 Z" id="Shape" fill="#373435"></path>
                <path d="M8,95 C12,87 17,76 22,64 L38,30 C42,20 46,11 49,3 L61,3 L73,3 L83,31 L104,87 L107,95 L98,95 L87,95 C86,91 84,86 81,79 C79,72 77,66 75,62 L42,62 C38,73 33,84 29,95 L19,95 L8,95 L8,95 Z M47,48 L71,48 L60,17 L56,28 L47,48 L47,48 Z M115,95 C115,85 116,73 116,61 L116,26 C120,27 123,27 125,27 C128,27 131,27 134,26 L134,38 C135,36 136,34 137,33 C138,32 139,31 141,30 C142,29 144,28 145,27 C147,26 149,26 151,25 L158,25 C162,25 165,25 169,26 C172,27 175,29 177,31 C179,33 181,36 182,38 C182,41 183,44 183,47 L183,52 L183,82 L183,95 L174,95 L165,95 L165,74 L165,55 C165,52 164,49 163,47 C162,44 160,43 158,42 C156,41 154,40 151,40 C149,40 146,41 144,42 C142,43 140,44 139,46 C137,48 136,51 135,54 C134,57 133,62 133,69 L133,95 L124,95 L115,95 L115,95 Z M231,95 C232,79 232,64 232,47 L232,10 L231,3 L242,3 L252,3 C251,27 251,57 252,95 L242,95 L231,95 L231,95 Z M267,93 C266,86 266,81 265,76 C273,80 281,82 288,82 C290,82 293,82 295,81 C297,80 299,79 300,77 C301,76 302,74 302,72 C302,70 301,69 301,68 C300,66 298,64 296,63 C294,60 290,56 283,50 C280,48 278,46 277,45 C274,42 272,40 271,38 C269,36 268,34 268,32 C267,30 267,27 267,25 C267,21 267,17 270,13 C272,10 275,7 279,5 C283,2 289,1 296,1 C302,1 308,2 316,4 C316,8 317,14 318,20 C311,17 305,16 300,16 C295,16 292,17 290,19 C287,21 286,23 286,26 L286,28 C286,29 287,30 287,30 C287,31 288,32 289,33 L293,37 C295,39 297,40 298,41 L306,49 C308,50 310,52 312,54 C313,55 315,57 316,59 C317,60 318,62 319,63 C319,64 320,66 320,67 C321,69 321,70 321,72 C321,76 320,79 319,83 C317,86 315,89 312,91 C309,93 306,94 302,95 C298,96 295,96 290,96 L281,96 C277,95 273,94 267,93 L267,93 Z M381,1 C387,1 393,2 399,4 C405,6 410,9 415,13 C419,17 423,22 425,28 C428,33 429,40 429,47 C430,54 429,60 427,67 C425,73 422,79 417,83 C413,88 408,91 401,93 C395,95 388,96 381,96 C374,96 368,95 362,93 C355,91 350,88 345,84 C341,80 337,75 335,69 C333,64 332,58 332,51 C331,44 332,37 335,31 C337,24 340,19 345,14 C349,10 355,7 361,5 C367,3 374,1 381,1 L381,1 Z M380,16 C374,16 369,17 364,20 C359,24 356,28 354,33 C352,39 351,44 351,51 C351,57 352,62 355,67 C357,72 361,75 366,78 C371,81 376,82 381,82 C385,82 389,81 393,80 C397,78 400,76 403,73 C405,70 407,66 409,61 C410,57 410,52 410,48 C410,43 409,39 408,35 C406,31 404,27 402,24 C399,21 396,19 392,18 C388,16 384,16 380,16 L380,16 Z M489,95 C495,87 499,81 503,75 C507,69 510,63 513,58 C515,54 516,50 518,47 C519,43 519,40 520,38 L520,32 C520,28 519,26 518,23 C517,20 515,19 513,17 C511,16 508,15 506,15 C503,15 500,16 498,17 C495,19 493,21 492,23 C491,26 490,29 490,32 C490,34 491,37 492,39 C493,41 495,43 497,44 C500,45 502,46 505,46 C507,46 508,46 509,45 C510,45 512,45 513,44 C510,49 508,54 505,58 C503,59 501,59 499,59 C494,59 489,58 485,56 C481,54 477,51 475,47 C473,43 472,38 472,34 C472,28 473,22 475,17 C478,12 482,8 487,6 C493,3 499,1 506,1 C511,1 515,2 520,3 C524,5 528,7 530,10 C533,12 535,16 537,20 C538,23 539,27 539,31 C539,33 539,36 538,39 C538,43 537,46 536,50 C535,53 533,57 531,62 C529,67 527,72 524,77 C521,82 517,88 513,95 L502,95 L489,95 L489,95 Z M585,1 C592,1 597,3 602,6 C607,9 611,14 614,21 C617,27 618,35 618,44 C619,51 618,58 617,65 C615,72 613,78 611,82 C608,87 604,90 600,93 C595,95 590,96 584,96 C579,96 574,95 569,93 C565,91 562,88 559,84 C556,80 554,75 553,70 C552,65 551,60 551,55 C550,48 551,40 552,33 C554,26 556,20 559,16 C562,11 565,7 570,5 C575,3 580,1 585,1 L585,1 Z M585,15 C583,15 582,16 580,16 C579,17 577,18 576,20 C575,21 573,23 573,25 C572,27 571,30 570,33 C570,36 569,39 569,43 C569,47 568,51 569,56 C569,62 570,67 571,70 C572,74 574,77 576,79 C579,82 581,83 584,83 C586,83 588,82 589,82 C591,81 592,80 594,78 C595,76 597,73 598,69 C599,65 600,61 600,57 C601,53 601,48 601,44 C600,37 600,32 598,28 C597,24 595,21 593,19 C591,17 588,15 585,15 L585,15 Z M664,1 C670,1 676,3 681,6 C686,9 690,14 692,21 C695,27 697,35 697,44 C697,51 697,58 695,65 C694,72 692,78 689,82 C687,87 683,90 678,93 C673,95 668,96 663,96 C657,96 652,95 648,93 C644,91 640,88 638,84 C635,80 633,75 632,70 C630,65 630,60 629,55 C629,48 630,40 631,33 C632,26 635,20 637,16 C640,11 644,7 649,5 C653,3 658,1 664,1 L664,1 Z M664,15 C662,15 661,16 659,16 C658,17 656,18 655,20 C653,21 652,23 651,25 C650,27 650,30 649,33 C648,36 648,39 647,43 L647,56 C647,62 648,67 650,70 C651,74 653,77 655,79 C657,82 660,83 663,83 C665,83 666,82 668,82 C669,81 671,80 672,78 C674,76 675,73 676,69 C678,65 678,61 679,57 L679,44 C679,37 678,32 677,28 C676,24 674,21 672,19 C669,17 667,15 664,15 L664,15 Z M736,95 L736,71 L737,44 L737,21 C735,22 733,23 732,24 C731,24 729,26 725,29 L725,20 C726,16 725,13 725,12 C727,11 729,9 731,8 C733,6 735,5 735,5 C736,5 737,4 738,3 L747,3 L756,3 L756,12 L756,21 L755,75 L755,83 L755,88 L756,95 L746,95 L736,95 L736,95 Z M790,45 L790,26 L799,27 C800,27 803,27 807,26 L807,36 L807,45 C803,44 800,44 799,44 C797,44 794,44 790,45 L790,45 Z M789,95 L789,77 L799,77 L807,77 L807,87 L807,95 L799,95 L789,95 L789,95 Z M822,95 L822,91 L822,81 C827,76 832,71 836,66 C840,62 844,57 849,51 C853,46 856,42 859,38 C860,36 862,34 862,32 C863,31 863,30 863,29 C863,28 864,27 864,26 C863,24 863,22 861,20 C860,19 858,17 855,17 C853,16 850,15 847,15 C844,15 841,16 837,16 C834,17 830,18 824,19 L825,12 C825,11 826,8 826,4 C836,2 845,1 854,1 C858,1 862,2 866,3 C870,3 873,5 876,7 C879,9 881,11 883,14 C884,16 885,19 885,22 L885,27 C884,29 884,30 884,32 C883,35 881,37 880,40 C878,43 875,47 872,51 L860,66 C856,71 851,76 846,81 L852,81 L866,81 L876,81 L884,81 L884,86 C884,88 883,91 883,95 L854,95 L822,95 L822,95 Z M933,1 C940,1 946,3 950,6 C955,9 959,14 962,21 C965,27 966,35 967,44 C967,51 966,58 965,65 C964,72 962,78 959,82 C956,87 952,90 948,93 C943,95 938,96 932,96 C927,96 922,95 918,93 C913,91 910,88 907,84 C904,80 902,75 901,70 C900,65 899,60 899,55 C899,48 899,40 900,33 C902,26 904,20 907,16 C910,11 913,7 918,5 C923,3 928,1 933,1 L933,1 Z M933,15 C932,15 930,16 928,16 L924,20 C923,21 922,23 921,25 C920,27 919,30 918,33 C918,36 917,39 917,43 L917,56 C917,62 918,67 919,70 C920,74 922,77 924,79 C927,82 929,83 932,83 C934,83 936,82 937,82 C939,81 940,80 942,78 C943,76 945,73 946,69 C947,65 948,61 948,57 C949,53 949,48 949,44 C948,37 948,32 946,28 C945,24 943,21 941,19 C939,17 936,15 933,15 L933,15 Z M1012,1 C1018,1 1024,3 1029,6 C1034,9 1038,14 1041,21 C1043,27 1045,35 1045,44 C1045,51 1045,58 1044,65 C1042,72 1040,78 1038,82 C1035,87 1031,90 1026,93 C1022,95 1016,96 1011,96 C1005,96 1001,95 996,93 C992,91 988,88 986,84 C983,80 981,75 980,70 C978,65 978,60 978,55 C977,48 978,40 979,33 C981,26 983,20 985,16 C988,11 992,7 997,5 C1002,3 1007,1 1012,1 L1012,1 Z M1012,15 C1010,15 1009,16 1007,16 C1006,17 1004,18 1003,20 C1001,21 1000,23 999,25 C999,27 998,30 997,33 C996,36 996,39 996,43 C995,47 995,51 995,56 C996,62 996,67 998,70 C999,74 1001,77 1003,79 C1005,82 1008,83 1011,83 C1013,83 1014,82 1016,82 C1017,81 1019,80 1020,78 C1022,76 1023,73 1025,69 C1026,65 1027,61 1027,57 C1027,53 1028,48 1027,44 C1027,37 1026,32 1025,28 C1024,24 1022,21 1020,19 C1018,17 1015,15 1012,15 L1012,15 Z M1074,48 L1068,45 C1067,44 1065,42 1064,40 C1063,39 1062,37 1061,35 C1060,33 1060,30 1060,28 C1060,23 1060,20 1062,16 C1064,13 1066,10 1069,7 C1072,5 1076,4 1080,3 C1083,2 1087,1 1091,1 C1095,1 1099,2 1103,3 C1107,4 1110,6 1113,8 C1115,10 1117,13 1119,16 C1120,19 1121,22 1121,25 L1121,31 C1120,33 1120,34 1119,36 C1118,38 1117,39 1116,41 C1115,42 1114,43 1113,44 C1111,45 1109,46 1107,48 C1109,48 1111,49 1113,50 C1114,51 1116,51 1117,53 C1118,54 1120,55 1121,57 C1122,58 1122,60 1123,62 C1123,64 1124,66 1124,68 C1124,72 1123,76 1121,80 C1120,84 1117,87 1114,89 C1111,92 1108,94 1103,95 C1099,96 1095,96 1090,96 C1086,96 1082,96 1078,95 C1073,94 1070,93 1067,90 C1063,88 1061,85 1059,82 C1058,79 1057,76 1057,72 L1057,65 C1058,63 1058,61 1059,59 C1061,57 1062,55 1063,54 C1065,52 1066,51 1068,51 C1069,50 1071,49 1074,48 L1074,48 Z M1091,15 C1086,15 1083,16 1080,19 C1078,22 1076,25 1076,29 C1077,32 1077,34 1078,36 C1080,38 1081,39 1083,40 C1085,41 1088,42 1090,42 C1093,42 1095,41 1098,40 C1100,39 1102,37 1103,35 C1104,32 1104,30 1104,27 C1104,23 1103,20 1100,18 C1098,16 1095,15 1091,15 L1091,15 Z M1090,54 C1085,54 1081,56 1078,59 C1076,61 1074,65 1075,69 C1075,72 1075,74 1077,76 C1078,79 1080,80 1082,81 C1085,83 1088,83 1090,83 C1093,83 1096,83 1099,81 C1101,80 1103,78 1104,76 C1105,73 1106,71 1106,67 C1106,63 1104,60 1102,58 C1099,56 1095,54 1090,54 L1090,54 Z M1240,78 C1239,83 1239,89 1238,94 C1233,95 1229,96 1225,96 L1215,96 C1209,96 1203,96 1197,94 C1191,92 1186,89 1181,85 C1176,81 1173,76 1170,70 C1168,64 1167,58 1167,51 C1166,44 1167,37 1170,30 C1172,24 1175,19 1180,14 C1184,10 1190,7 1196,5 C1202,2 1209,1 1216,1 C1223,1 1230,2 1238,4 C1238,8 1239,11 1239,12 L1239,20 C1235,18 1231,17 1228,17 C1224,16 1221,16 1218,16 C1214,16 1210,17 1206,18 C1202,20 1198,22 1195,25 C1192,28 1190,32 1188,37 C1186,41 1186,46 1186,51 C1186,57 1187,62 1190,67 C1192,71 1195,75 1200,78 C1205,81 1211,82 1217,82 C1224,82 1231,81 1240,78 L1240,78 Z M1310,80 C1309,82 1308,87 1308,94 C1303,95 1299,96 1296,96 L1287,96 C1281,96 1277,96 1272,95 C1268,94 1264,91 1260,88 C1257,85 1255,81 1253,77 C1251,72 1250,68 1250,63 C1250,57 1251,52 1252,47 C1254,41 1256,37 1259,34 C1262,31 1266,28 1270,27 C1274,25 1279,25 1283,25 C1287,25 1292,25 1295,26 C1299,28 1303,29 1305,32 C1308,35 1310,38 1312,41 C1313,45 1314,49 1314,54 L1314,60 L1268,60 L1268,64 C1268,67 1268,70 1269,73 C1270,75 1272,77 1274,79 C1276,81 1278,82 1281,83 C1283,84 1286,84 1288,84 C1291,84 1294,84 1298,83 C1301,82 1305,81 1310,80 L1310,80 Z M1268,52 L1297,52 L1297,48 C1297,47 1297,45 1296,44 C1296,43 1295,42 1294,41 L1291,38 C1290,37 1289,37 1288,37 C1287,36 1285,36 1284,36 C1282,36 1280,36 1279,37 C1277,38 1275,38 1274,39 C1273,41 1272,42 1271,43 C1270,45 1269,46 1269,47 C1269,49 1268,50 1268,52 L1268,52 Z M1325,95 L1326,63 L1326,44 C1326,41 1326,37 1325,33 L1325,26 C1329,27 1332,27 1334,27 C1336,27 1339,27 1342,26 L1342,36 C1344,34 1345,32 1346,31 C1347,29 1348,28 1350,27 C1351,27 1353,26 1354,26 C1356,25 1358,25 1360,25 C1361,25 1363,25 1365,26 C1365,30 1365,35 1366,41 C1364,41 1361,40 1359,40 C1357,40 1355,41 1353,41 C1351,42 1349,43 1348,45 C1347,47 1345,49 1344,51 C1344,53 1343,55 1343,58 L1343,70 C1342,76 1343,81 1343,87 L1343,95 L1334,95 L1325,95 L1325,95 Z M1414,81 C1414,83 1413,88 1412,95 C1409,95 1406,96 1404,96 L1398,96 L1390,96 C1387,95 1385,94 1384,92 C1382,91 1381,89 1380,87 C1380,85 1379,82 1379,80 L1379,78 L1379,68 L1380,40 L1371,40 L1371,27 L1380,27 C1381,25 1381,20 1381,14 L1388,12 C1390,12 1393,11 1397,10 L1397,27 L1413,27 L1413,40 L1397,40 L1397,72 C1397,75 1397,77 1398,78 C1398,80 1399,81 1401,82 C1402,82 1403,83 1405,83 C1406,83 1407,82 1408,82 C1409,82 1411,82 1414,81 L1414,81 Z M1424,15 L1424,4 L1424,2 L1433,2 L1442,2 L1442,6 L1442,15 L1433,15 L1424,15 L1424,15 Z M1423,95 C1424,88 1424,83 1424,78 L1424,53 L1424,26 C1428,27 1431,27 1433,27 C1435,27 1438,27 1442,26 L1442,49 L1442,73 L1442,95 L1433,95 L1423,95 L1423,95 Z" id="Shape" fill="#373435"></path>
                <path d="M1460,95 L1460,84 L1461,40 L1453,40 L1453,33 L1453,27 L1462,27 L1462,24 C1461,19 1461,16 1462,13 C1462,11 1463,9 1464,7 C1465,5 1466,4 1468,3 C1470,2 1472,1 1474,0 L1481,0 C1486,0 1491,0 1496,2 C1496,7 1497,11 1497,15 C1493,13 1489,12 1486,12 C1485,12 1484,13 1483,13 C1481,13 1481,14 1480,14 C1479,15 1479,16 1478,17 C1478,18 1478,19 1477,20 L1477,24 L1477,27 L1493,27 L1493,40 L1478,40 L1478,95 L1469,95 L1460,95 L1460,95 Z M1503,15 L1503,4 L1502,2 L1512,2 L1521,2 L1521,6 L1521,15 L1512,15 L1503,15 L1503,15 Z M1502,95 C1502,88 1503,83 1503,78 L1503,53 L1503,26 C1507,27 1510,27 1512,27 C1514,27 1517,27 1521,26 L1521,49 C1520,56 1520,64 1521,73 L1521,95 L1512,95 L1502,95 L1502,95 Z M1593,80 C1593,82 1592,87 1591,94 C1587,95 1583,96 1580,96 L1570,96 C1565,96 1560,96 1556,95 C1551,94 1547,91 1544,88 C1541,85 1538,81 1536,77 C1535,72 1534,68 1534,63 C1533,57 1534,52 1536,47 C1537,41 1540,37 1543,34 C1546,31 1550,28 1554,27 C1558,25 1562,25 1567,25 C1571,25 1575,25 1579,26 C1583,28 1586,29 1589,32 C1592,35 1594,38 1595,41 C1597,45 1598,49 1598,54 C1598,56 1598,58 1597,60 L1551,60 L1551,64 C1551,67 1552,70 1553,73 C1554,75 1555,77 1557,79 C1559,81 1562,82 1564,83 C1567,84 1569,84 1572,84 C1575,84 1578,84 1581,83 C1584,82 1588,81 1593,80 L1593,80 Z M1551,52 L1581,52 L1581,48 C1580,47 1580,45 1580,44 C1579,43 1578,42 1578,41 L1575,38 C1574,37 1573,37 1571,37 C1570,36 1569,36 1567,36 C1565,36 1564,36 1562,37 C1560,38 1559,38 1558,39 C1556,41 1555,42 1554,43 C1553,45 1553,46 1553,47 C1552,49 1552,50 1551,52 L1551,52 Z M1674,95 L1666,95 L1657,95 L1657,83 C1655,86 1654,88 1653,89 C1651,90 1650,92 1648,93 L1642,96 L1635,96 C1631,96 1627,96 1623,94 C1620,93 1616,90 1614,87 C1611,85 1609,81 1608,77 C1607,73 1606,69 1606,65 C1606,59 1607,53 1608,48 C1610,42 1613,38 1617,34 C1620,31 1624,28 1629,27 C1633,26 1638,25 1644,25 C1647,25 1652,25 1657,26 C1657,20 1657,14 1656,8 L1656,3 L1665,3 L1675,3 C1674,14 1674,30 1674,50 C1673,69 1673,84 1674,95 L1674,95 Z M1656,39 C1653,38 1650,37 1647,37 C1644,37 1641,38 1638,39 C1635,40 1632,42 1630,44 C1628,46 1626,49 1625,53 C1624,57 1623,60 1623,64 C1623,67 1624,70 1625,73 C1627,76 1629,78 1631,80 C1633,82 1636,83 1639,83 C1642,83 1644,82 1646,81 C1647,80 1649,79 1651,77 C1652,75 1653,73 1654,70 C1655,67 1656,64 1656,59 L1656,39 L1656,39 Z M1793,78 C1792,83 1791,89 1791,94 C1786,95 1782,96 1778,96 L1767,96 C1761,96 1755,96 1749,94 C1743,92 1738,89 1733,85 C1729,81 1725,76 1723,70 C1721,64 1719,58 1719,51 C1719,44 1720,37 1722,30 C1724,24 1728,19 1732,14 C1737,10 1742,7 1748,5 C1755,2 1761,1 1768,1 C1775,1 1782,2 1791,4 L1791,12 L1792,20 C1787,18 1783,17 1780,17 C1777,16 1774,16 1771,16 C1766,16 1762,17 1758,18 C1754,20 1750,22 1747,25 C1744,28 1742,32 1740,37 C1739,41 1738,46 1738,51 C1739,57 1740,62 1742,67 C1744,71 1748,75 1753,78 C1757,81 1763,82 1770,82 C1776,82 1784,81 1793,78 L1793,78 Z M1837,25 C1842,25 1847,26 1851,27 C1856,29 1860,31 1863,34 C1866,37 1869,41 1870,45 C1872,49 1873,54 1873,59 C1873,64 1873,69 1871,74 C1870,79 1867,83 1864,86 C1861,90 1858,92 1853,94 C1848,96 1844,96 1838,96 C1833,96 1829,96 1824,94 C1820,93 1816,90 1813,87 C1810,84 1807,80 1805,76 C1804,71 1803,67 1802,62 C1802,57 1803,52 1804,48 C1806,43 1808,39 1811,36 C1814,32 1818,30 1822,28 C1827,26 1832,25 1837,25 L1837,25 Z M1838,39 C1834,39 1831,40 1828,42 C1825,43 1823,46 1822,50 C1821,54 1820,58 1820,62 C1821,66 1821,70 1822,73 C1824,76 1826,78 1828,80 C1831,82 1834,83 1838,83 C1842,83 1845,82 1847,80 C1850,78 1852,75 1854,71 C1855,68 1855,64 1855,59 C1855,55 1854,52 1853,49 C1852,46 1850,43 1847,41 C1845,40 1842,39 1838,39 L1838,39 Z M1885,95 C1886,87 1886,76 1886,61 L1886,26 C1889,27 1892,27 1894,27 C1897,27 1900,27 1903,26 L1903,37 C1904,35 1905,33 1906,32 C1907,31 1909,30 1910,28 C1912,27 1914,26 1916,26 C1919,25 1921,25 1924,25 L1929,25 C1931,26 1933,26 1934,27 C1936,28 1937,29 1938,29 C1939,30 1940,31 1941,32 C1941,33 1942,35 1943,37 C1944,36 1945,34 1946,33 C1946,32 1947,31 1949,30 C1950,29 1951,28 1953,27 C1954,26 1956,26 1958,25 L1964,25 C1968,25 1971,25 1975,27 C1978,28 1981,30 1982,33 C1984,36 1985,39 1986,43 C1986,45 1986,48 1985,53 L1985,73 L1985,95 L1977,95 L1967,95 C1967,89 1968,83 1968,77 L1968,61 L1968,51 C1968,48 1967,46 1966,44 C1965,42 1964,41 1963,41 C1961,40 1959,40 1958,40 C1956,40 1954,40 1953,41 C1951,41 1950,43 1948,44 C1947,46 1946,48 1946,50 C1945,53 1944,56 1944,60 L1944,76 L1944,95 L1936,95 L1926,95 C1926,91 1927,84 1927,74 L1927,52 C1927,50 1927,48 1926,47 C1926,46 1925,44 1924,43 L1921,40 L1917,40 C1914,40 1911,41 1909,43 C1907,45 1906,47 1905,51 C1904,54 1903,61 1903,71 L1903,95 L1894,95 L1885,95 L1885,95 Z M2000,126 C2000,113 2001,97 2001,77 L2001,29 C2009,27 2015,26 2019,26 C2023,25 2028,25 2032,25 C2038,25 2043,26 2048,27 C2052,28 2056,31 2059,34 C2062,38 2064,41 2066,46 C2068,50 2068,55 2069,60 C2069,65 2068,69 2067,74 C2066,78 2064,83 2061,86 C2059,90 2056,92 2052,94 C2049,96 2045,96 2041,96 L2033,96 L2027,93 C2025,92 2024,91 2022,90 C2021,89 2020,87 2018,85 L2018,114 L2018,119 L2018,126 L2009,126 L2000,126 L2000,126 Z M2018,41 L2018,47 L2018,55 L2018,62 C2018,65 2018,67 2019,70 C2020,72 2021,75 2022,77 C2024,79 2026,80 2028,81 C2030,83 2033,83 2035,83 C2038,83 2041,82 2043,80 C2046,78 2048,75 2049,72 C2051,68 2051,64 2051,60 C2051,55 2050,51 2048,48 C2047,44 2044,42 2042,41 C2039,39 2036,38 2033,38 C2028,38 2023,39 2018,41 L2018,41 Z M2084,41 L2084,35 C2085,33 2085,31 2085,29 C2091,27 2096,26 2100,26 C2104,25 2109,25 2113,25 C2117,25 2122,25 2125,27 C2129,28 2132,30 2135,32 C2137,35 2138,38 2138,43 L2138,62 L2138,95 L2129,95 L2120,95 C2120,89 2121,83 2121,76 L2121,59 C2119,60 2118,61 2117,62 C2117,62 2116,62 2115,63 C2114,63 2112,64 2109,65 C2107,65 2104,66 2103,67 C2101,67 2100,68 2099,69 C2097,69 2096,70 2095,71 C2095,72 2094,73 2094,74 C2093,75 2093,76 2093,77 C2093,79 2094,81 2095,82 C2096,84 2097,85 2099,85 C2100,86 2102,86 2104,86 L2109,86 C2110,85 2112,85 2115,84 C2114,86 2113,90 2112,95 C2109,96 2107,96 2105,96 L2100,96 C2095,96 2090,96 2087,94 C2083,93 2081,90 2079,87 C2077,84 2076,80 2076,77 C2076,75 2076,73 2077,71 C2078,69 2078,68 2080,66 C2081,64 2082,63 2084,61 C2086,60 2089,59 2092,57 C2096,56 2101,54 2107,53 C2108,53 2110,52 2112,52 C2113,51 2115,51 2116,50 C2117,50 2118,49 2118,48 C2119,48 2120,47 2120,46 L2120,43 C2120,42 2120,40 2119,39 C2117,38 2116,37 2114,36 L2109,36 C2101,36 2093,38 2084,41 L2084,41 Z M2153,95 C2154,85 2154,73 2154,61 C2155,48 2155,36 2154,26 C2158,27 2161,27 2164,27 C2166,27 2169,27 2172,26 L2172,38 C2173,36 2174,34 2175,33 C2176,32 2177,31 2179,30 C2180,29 2182,28 2184,27 C2186,26 2187,26 2190,25 L2196,25 C2200,25 2204,25 2207,26 C2211,27 2213,29 2216,31 C2218,33 2219,36 2220,38 C2221,41 2221,44 2221,47 L2221,52 L2221,82 L2221,95 L2213,95 L2203,95 C2203,91 2203,84 2204,74 L2204,55 C2204,52 2203,49 2202,47 C2201,44 2199,43 2197,42 C2194,41 2192,40 2190,40 C2187,40 2185,41 2183,42 C2180,43 2179,44 2177,46 C2175,48 2174,51 2173,54 C2172,57 2172,62 2172,69 C2172,76 2171,84 2172,95 L2163,95 L2153,95 L2153,95 Z M2229,126 C2228,119 2228,114 2227,111 C2231,113 2235,114 2239,114 L2242,114 C2243,114 2244,113 2245,113 L2247,111 C2248,110 2248,109 2250,107 C2251,106 2251,104 2252,102 C2253,101 2253,99 2254,96 L2240,55 L2229,26 C2233,27 2237,27 2239,27 C2241,27 2244,27 2247,26 C2248,30 2249,33 2250,36 L2257,57 C2259,64 2260,69 2261,72 C2262,74 2263,77 2263,81 C2264,76 2265,73 2266,71 C2268,66 2270,60 2273,52 L2278,36 C2279,33 2280,30 2281,26 C2285,27 2288,27 2290,27 C2292,27 2295,27 2299,26 L2277,85 L2267,110 C2266,113 2264,116 2263,118 C2262,119 2261,121 2259,122 L2256,125 C2254,126 2252,126 2250,127 C2247,127 2245,128 2243,128 C2241,128 2239,127 2237,127 C2234,127 2232,126 2229,126 L2229,126 Z" id="Shape" fill="#373435"></path>
                <path d="M113,765 L113,666 L169,666 L169,679 L129,679 L129,704 L169,704 L169,718 L129,718 L129,751 L169,751 L169,765 L113,765 L113,765 Z M212,765 L212,666 L228,666 L228,751 L264,751 L264,765 L212,765 L212,765 Z M302,765 L302,666 L358,666 L358,679 L318,679 L318,704 L358,704 L358,718 L318,718 L318,751 L358,751 L358,765 L302,765 L302,765 Z M481,690 C476,686 472,683 466,681 C461,679 456,678 450,678 C439,678 431,682 424,689 C417,696 414,705 414,716 C414,726 417,735 424,742 C430,749 439,753 449,753 C455,753 460,752 465,750 C471,747 476,744 481,740 L481,758 C476,762 472,764 467,765 C461,767 456,768 450,768 C442,768 435,766 429,764 C422,761 417,758 412,753 C407,748 403,743 401,736 C398,730 397,723 397,716 C397,708 398,701 401,695 C403,689 407,683 412,678 C417,673 423,670 429,667 C435,664 442,663 450,663 C455,663 461,664 466,666 C472,667 477,670 482,673 L481,690 L481,690 Z M558,679 L558,765 L542,765 L542,679 L515,679 L515,666 L584,666 L584,679 L558,679 L558,679 Z M637,708 L640,708 C649,708 655,707 657,705 C660,703 662,699 662,694 C662,689 660,685 657,683 C654,681 648,679 640,679 L637,679 L637,708 L637,708 Z M636,721 L636,765 L621,765 L621,666 L644,666 C650,666 656,666 659,667 C663,668 666,669 669,671 C672,674 674,677 676,680 C677,684 678,688 678,693 C678,701 676,707 672,712 C669,716 663,719 655,720 L690,765 L671,765 L638,721 L636,721 L636,721 Z M724,765 L724,666 L740,666 L740,765 L724,765 L724,765 Z M868,690 C864,686 859,683 854,681 C849,679 843,678 838,678 C827,678 818,682 811,689 C804,696 801,705 801,716 C801,726 804,735 811,742 C818,749 826,753 836,753 C842,753 847,752 853,750 C858,747 863,744 868,740 L868,758 C864,762 859,764 854,765 C849,767 843,768 837,768 C830,768 823,766 816,764 C810,761 804,758 799,753 C794,748 791,743 788,736 C785,730 784,723 784,716 C784,708 785,701 788,695 C791,689 794,683 799,678 C804,673 810,670 816,667 C823,664 830,663 837,663 C843,663 848,664 854,666 C859,667 864,670 869,673 L868,690 L868,690 Z M934,726 L962,726 L952,703 C951,702 950,700 950,698 C949,696 948,694 948,692 C947,694 947,696 946,698 C945,700 945,702 944,703 L934,726 L934,726 Z M979,765 L967,739 L928,739 L917,765 L900,765 L948,662 L996,765 L979,765 L979,765 Z M1030,765 L1030,666 L1046,666 L1046,751 L1082,751 L1082,765 L1030,765 L1030,765 Z M1183,726 L1211,726 L1201,703 C1200,702 1199,700 1199,698 C1198,696 1197,694 1197,692 C1196,694 1196,696 1195,698 C1195,700 1194,702 1193,703 L1183,726 L1183,726 Z M1228,765 L1216,739 L1177,739 L1166,765 L1149,765 L1197,662 L1245,765 L1228,765 L1228,765 Z M1356,690 C1352,686 1347,683 1342,681 C1337,679 1331,678 1326,678 C1315,678 1306,682 1299,689 C1292,696 1289,705 1289,716 C1289,726 1292,735 1299,742 C1306,749 1314,753 1324,753 C1330,753 1336,752 1341,750 C1346,747 1351,744 1356,740 L1356,758 C1352,762 1347,764 1342,765 C1337,767 1331,768 1325,768 C1318,768 1311,766 1304,764 C1298,761 1292,758 1287,753 C1282,748 1279,743 1276,736 C1274,730 1272,723 1272,716 C1272,708 1274,701 1276,695 C1279,689 1282,683 1287,678 C1292,673 1298,670 1304,667 C1311,664 1318,663 1325,663 C1331,663 1337,664 1342,666 C1347,667 1352,670 1357,673 L1356,690 L1356,690 Z M1481,690 C1476,686 1472,683 1467,681 C1461,679 1456,678 1450,678 C1440,678 1431,682 1424,689 C1417,696 1414,705 1414,716 C1414,726 1417,735 1424,742 C1430,749 1439,753 1449,753 C1455,753 1460,752 1466,750 C1471,747 1476,744 1481,740 L1481,758 C1477,762 1472,764 1467,765 C1462,767 1456,768 1450,768 C1442,768 1435,766 1429,764 C1422,761 1417,758 1412,753 C1407,748 1403,743 1401,736 C1398,730 1397,723 1397,716 C1397,708 1398,701 1401,695 C1403,689 1407,683 1412,678 C1417,673 1423,670 1429,667 C1435,664 1442,663 1450,663 C1456,663 1461,664 1466,666 C1472,667 1477,670 1482,673 L1481,690 L1481,690 Z M1526,765 L1526,666 L1581,666 L1581,679 L1542,679 L1542,704 L1581,704 L1581,718 L1542,718 L1542,751 L1581,751 L1581,765 L1526,765 L1526,765 Z M1619,745 L1632,739 C1633,744 1635,747 1639,749 C1642,752 1646,753 1651,753 C1656,753 1660,751 1662,749 C1665,746 1667,743 1667,738 C1667,732 1662,727 1652,722 C1651,722 1650,721 1649,721 C1638,716 1631,711 1627,706 C1624,702 1622,697 1622,691 C1622,682 1624,676 1630,671 C1635,666 1643,663 1652,663 C1659,663 1665,665 1670,668 C1675,670 1678,675 1680,680 L1668,686 C1666,683 1663,681 1661,679 C1659,678 1656,677 1653,677 C1649,677 1645,678 1643,681 C1640,683 1639,686 1639,690 C1639,696 1644,701 1656,706 C1656,707 1657,707 1658,707 C1667,712 1674,716 1678,721 C1681,725 1683,730 1683,737 C1683,746 1680,754 1674,759 C1668,765 1660,768 1650,768 C1642,768 1635,766 1630,762 C1624,758 1621,752 1619,745 L1619,745 Z M1720,745 L1733,739 C1734,744 1736,747 1740,749 C1743,752 1747,753 1752,753 C1757,753 1761,751 1764,749 C1766,746 1768,743 1768,738 C1768,732 1763,727 1753,722 C1752,722 1751,721 1750,721 C1739,716 1732,711 1728,706 C1725,702 1723,697 1723,691 C1723,682 1726,676 1731,671 C1737,666 1744,663 1753,663 C1760,663 1766,665 1771,668 C1776,670 1779,675 1781,680 L1769,686 C1767,683 1765,681 1762,679 C1760,678 1757,677 1754,677 C1750,677 1746,678 1744,681 C1741,683 1740,686 1740,690 C1740,696 1745,701 1757,706 C1758,707 1758,707 1759,707 C1768,712 1775,716 1779,721 C1783,725 1784,730 1784,737 C1784,746 1781,754 1776,759 C1770,765 1762,768 1751,768 C1743,768 1736,766 1731,762 C1725,758 1722,752 1720,745 L1720,745 Z M1912,716 C1912,711 1911,706 1909,701 C1907,697 1905,693 1901,689 C1898,686 1894,683 1890,681 C1885,679 1881,678 1876,678 C1871,678 1866,679 1862,681 C1857,683 1853,686 1850,689 C1847,693 1844,697 1842,701 C1840,706 1839,710 1839,716 C1839,721 1840,725 1842,730 C1844,734 1847,738 1850,742 C1853,745 1857,748 1862,750 C1866,752 1871,753 1876,753 C1881,753 1885,752 1890,750 C1894,748 1898,745 1901,742 C1905,738 1907,734 1909,730 C1911,725 1912,721 1912,716 L1912,716 Z M1929,716 C1929,723 1928,729 1925,736 C1922,742 1918,747 1913,752 C1908,757 1902,761 1896,764 C1890,766 1883,768 1876,768 C1869,768 1862,766 1855,764 C1849,761 1843,757 1838,752 C1833,747 1829,742 1826,736 C1824,729 1823,723 1823,716 C1823,708 1824,702 1826,695 C1829,689 1833,683 1838,678 C1843,674 1849,670 1855,667 C1862,665 1869,663 1876,663 C1883,663 1890,665 1896,667 C1902,670 1908,674 1913,678 C1918,684 1922,689 1925,696 C1928,702 1929,709 1929,716 L1929,716 Z M1988,708 L1991,708 C2000,708 2005,707 2008,705 C2011,703 2012,699 2012,694 C2012,689 2011,685 2008,683 C2005,681 1999,679 1991,679 L1988,679 L1988,708 L1988,708 Z M1987,721 L1987,765 L1972,765 L1972,666 L1995,666 C2001,666 2006,666 2010,667 C2014,668 2017,669 2019,671 C2023,674 2025,677 2027,680 C2028,684 2029,688 2029,693 C2029,701 2027,707 2023,712 C2019,716 2014,719 2006,720 L2040,765 L2022,765 L1989,721 L1987,721 L1987,721 Z M2075,765 L2075,666 L2091,666 L2091,765 L2075,765 L2075,765 Z M2139,765 L2139,666 L2195,666 L2195,679 L2155,679 L2155,704 L2195,704 L2195,718 L2155,718 L2155,751 L2195,751 L2195,765 L2139,765 L2139,765 Z M2232,745 L2245,739 C2246,744 2249,747 2252,749 C2255,752 2259,753 2264,753 C2269,753 2273,751 2276,749 C2279,746 2280,743 2280,738 C2280,732 2275,727 2266,722 C2264,722 2263,721 2263,721 C2252,716 2244,711 2241,706 C2237,702 2235,697 2235,691 C2235,682 2238,676 2243,671 C2249,666 2256,663 2265,663 C2272,663 2278,665 2283,668 C2288,670 2292,675 2294,680 L2281,686 C2279,683 2277,681 2274,679 C2272,678 2269,677 2266,677 C2262,677 2259,678 2256,681 C2253,683 2252,686 2252,690 C2252,696 2258,701 2269,706 C2270,707 2271,707 2271,707 C2281,712 2288,716 2291,721 C2295,725 2297,730 2297,737 C2297,746 2294,754 2288,759 C2282,765 2274,768 2264,768 C2255,768 2248,766 2243,762 C2238,758 2234,752 2232,745 L2232,745 Z" id="Shape" fill="#373435"></path>
            </g>
        </g>
    </g>
</svg>