<?xml version="1.0" encoding="UTF-8" standalone="no"?>
<svg width="2241px" height="836px" viewBox="0 0 2241 836" version="1.1" xmlns="http://www.w3.org/2000/svg" xmlns:xlink="http://www.w3.org/1999/xlink" xmlns:sketch="http://www.bohemiancoding.com/sketch/ns">
    <!-- Generator: Sketch 3.3.1 (12005) - http://www.bohemiancoding.com/sketch -->
    <title>vankonwiresandcables</title>
    <desc>Created with Sketch.</desc>
    <defs></defs>
    <g id="Page-1" stroke="none" stroke-width="1" fill="none" fill-rule="evenodd" sketch:type="MSPage">
        <g id="vankonwiresandcables" sketch:type="MSLayerGroup">
            <path d="M1823,319 L1823,225 L1956,225 L2104,427 L2102,225 L2238,225 L2239,586 L2104,586 L1956,380 L1956,586 L1820,586 L1821,493 C1775,596 1597,623 1476,566 L1449,551 L1417,509 L1396,480 C1381,431 1377,380 1396,335 C1413,292 1438,268 1480,248 C1560,208 1651,204 1732,241 C1773,259 1797,282 1823,319 L1823,319 Z M1564,317 C1579,311 1595,308 1611,308 C1627,309 1637,310 1653,316 C1674,325 1684,336 1690,356 C1704,404 1695,470 1671,489 C1649,503 1628,505 1610,506 C1588,506 1565,500 1554,488 C1527,461 1518,408 1534,356 C1540,337 1546,326 1564,317 L1564,317 Z" id="Shape" sketch:type="MSShapeGroup"></path>
            <path d="M1823,309 L1823,216 L1956,216 L2104,418 L2102,216 L2238,216 L2239,576 L2104,576 L1956,371 L1956,576 L1820,576 L1821,484 C1775,587 1597,613 1476,557 L1449,542 L1417,500 L1396,470 C1381,421 1377,371 1396,325 C1413,283 1438,259 1480,238 C1560,199 1651,195 1732,231 C1773,250 1797,272 1823,309 L1823,309 Z M1564,308 C1579,302 1595,299 1611,299 C1627,299 1637,300 1653,307 C1674,316 1684,327 1690,347 C1704,395 1695,460 1671,480 C1649,494 1628,496 1610,496 C1588,497 1565,490 1554,478 C1527,451 1518,398 1534,346 C1540,328 1546,316 1564,308 L1564,308 Z" id="Shape" fill="#373435" sketch:type="MSShapeGroup"></path>
            <path d="M196,792 L153,681 L179,681 L208,756 L237,681 L255,681 L285,756 L312,681 L336,681 L293,792 L275,792 L245,715 L213,792 L196,792 L196,792 Z M372,792 L372,681 L398,681 L398,792 L372,792 L372,792 Z M539,700 L481,700 L481,731 L539,731 C543,731 546,731 548,729 C550,728 551,726 551,722 L551,709 C551,706 550,703 548,702 C546,701 543,700 539,700 L539,700 Z M455,792 L455,681 L550,681 C559,681 566,683 570,686 C573,690 575,695 575,703 L575,729 C575,736 573,742 570,745 C566,749 559,750 550,750 L536,750 L587,792 L550,792 L505,750 L481,750 L481,792 L455,792 L455,792 Z M628,792 L628,681 L742,681 L742,700 L654,700 L654,725 L705,725 L705,744 L654,744 L654,771 L743,771 L743,792 L628,792 L628,792 Z M887,700 L814,700 L814,724 L884,724 C895,724 902,726 906,730 C910,734 911,741 911,751 L911,766 C911,776 910,783 906,787 C902,790 895,792 884,792 L815,792 C804,792 797,790 793,787 C789,783 787,776 787,766 L787,763 L810,758 L810,771 L889,771 L889,746 L819,746 C808,746 801,744 797,740 C794,737 792,730 792,720 L792,707 C792,697 794,690 797,687 C801,683 808,681 819,681 L882,681 C893,681 900,683 904,686 C908,690 910,696 910,705 L910,708 L887,713 L887,700 L887,700 Z" id="Shape" fill="#96989A" sketch:type="MSShapeGroup"></path>
            <path d="M1096,806 L1141,806 L1150,798 L1121,774 L1096,789 L1096,806 L1096,806 Z M1101,823 C1092,823 1085,821 1082,818 C1078,814 1077,808 1077,799 L1077,793 C1077,789 1077,786 1079,783 C1080,781 1084,778 1089,775 L1109,763 C1106,761 1104,758 1102,756 C1101,754 1100,751 1100,748 L1100,743 C1100,736 1102,732 1106,729 C1109,727 1115,725 1124,725 L1144,725 C1153,725 1160,727 1163,729 C1167,732 1168,737 1168,745 L1168,751 L1151,754 L1151,741 L1119,741 L1119,748 L1165,786 L1187,767 L1200,778 L1178,797 L1208,823 L1179,823 L1163,809 L1154,817 C1151,819 1149,820 1147,821 C1144,822 1141,823 1136,823 L1101,823 L1101,823 Z" id="Shape" fill="#96989A" sketch:type="MSShapeGroup"></path>
            <path d="M1397,745 L1327,745 L1327,815 L1397,815 L1397,791 L1423,797 L1423,810 C1423,820 1421,827 1417,831 C1414,834 1406,836 1396,836 L1329,836 C1318,836 1311,834 1307,831 C1303,827 1302,820 1302,810 L1302,751 C1302,741 1303,734 1307,730 C1311,727 1318,725 1329,725 L1396,725 C1406,725 1414,727 1417,730 C1421,734 1423,741 1423,751 L1423,762 L1397,766 L1397,745 L1397,745 Z M1501,792 L1550,792 L1526,746 L1501,792 L1501,792 Z M1451,836 L1514,725 L1539,725 L1603,836 L1574,836 L1561,812 L1490,812 L1477,836 L1451,836 L1451,836 Z M1724,743 L1664,743 L1664,769 L1724,769 C1728,769 1731,769 1733,768 C1735,766 1735,764 1735,761 L1735,751 C1735,748 1735,746 1733,745 C1731,744 1728,743 1724,743 L1724,743 Z M1724,788 L1664,788 L1664,816 L1724,816 C1728,816 1732,815 1733,814 C1735,812 1736,810 1736,806 L1736,798 C1736,794 1735,791 1733,790 C1732,788 1728,788 1724,788 L1724,788 Z M1639,836 L1639,725 L1734,725 C1743,725 1750,727 1753,730 C1757,733 1759,739 1759,746 L1759,760 C1759,765 1758,770 1754,773 C1751,776 1746,778 1740,779 C1747,780 1751,782 1755,786 C1758,789 1760,794 1760,800 L1760,814 C1760,822 1757,827 1752,831 C1747,834 1738,836 1727,836 L1639,836 L1639,836 Z M1810,836 L1810,725 L1836,725 L1836,815 L1920,815 L1920,836 L1810,836 L1810,836 Z M1957,836 L1957,725 L2071,725 L2071,744 L1983,744 L1983,769 L2035,769 L2035,788 L1983,788 L1983,815 L2072,815 L2072,836 L1957,836 L1957,836 Z M2217,744 L2144,744 L2144,768 L2213,768 C2224,768 2231,770 2235,774 C2239,777 2241,784 2241,794 L2241,810 C2241,820 2239,827 2235,831 C2231,834 2224,836 2213,836 L2144,836 C2134,836 2126,834 2122,831 C2119,827 2117,820 2117,810 L2117,807 L2139,802 L2139,815 L2218,815 L2218,790 L2149,790 C2138,790 2131,788 2127,784 C2123,780 2121,774 2121,763 L2121,751 C2121,741 2123,734 2127,730 C2131,727 2138,725 2149,725 L2212,725 C2222,725 2230,727 2234,730 C2238,734 2239,740 2239,749 L2239,752 L2217,757 L2217,744 L2217,744 Z" id="Shape" fill="#96989A" sketch:type="MSShapeGroup"></path>
            <path d="M0,223 L150,576 L293,576 L439,224 L301,224 L220,443 L145,224 L0,223 Z" id="Shape" fill="#F58634" sketch:type="MSShapeGroup"></path>
            <path d="M222,230 C252,230 276,254 276,284 C276,314 252,338 222,338 C192,338 167,314 167,284 C167,254 192,230 222,230 L222,230 Z" id="Shape" fill="#F58634" sketch:type="MSShapeGroup"></path>
            <path d="M548,360 L626,576 L572,576 L520,440 L548,360 Z" id="Shape" fill="#F58634" sketch:type="MSShapeGroup"></path>
            <path d="M336,576 L484,216 L631,216 L743,473 L743,217 L876,216 L1020,414 L1021,216 L1161,216 L1161,339 L1292,216 L1459,216 L1299,349 L1475,576 L1309,578 L1198,433 L1161,463 L1161,577 L1023,577 L878,379 L878,577 L648,577 L559,328 L473,576 L336,576 Z" id="Shape" fill="#373435" sketch:type="MSShapeGroup"></path>
            <path d="M28,90 C32,82 36,73 42,61 L56,29 C61,19 65,10 68,3 L79,3 L90,3 L100,29 L120,83 L123,90 L114,90 L104,90 C103,86 101,81 99,75 C96,68 94,63 93,59 L61,59 C56,69 52,80 48,90 L38,90 L28,90 L28,90 Z M66,46 L89,46 L78,16 L74,27 L66,46 L66,46 Z M131,90 C131,81 132,70 132,58 L132,25 L141,25 L149,25 L149,36 C150,34 151,33 152,32 C153,30 154,29 155,28 C157,27 158,26 160,26 C162,25 163,25 166,24 L172,24 C176,24 179,24 182,25 C186,26 188,28 191,30 C193,32 194,34 195,37 C196,39 196,42 196,44 L196,50 L196,78 L196,90 L188,90 L178,90 C179,87 179,80 179,71 L179,52 C179,49 178,46 177,44 C176,42 175,41 172,40 C170,39 168,38 165,38 C163,38 161,39 159,40 C157,41 155,42 153,44 C152,46 151,48 150,51 C149,54 149,59 148,66 L148,90 L140,90 L131,90 L131,90 Z M243,90 L243,45 L243,10 L243,3 L253,3 L262,3 C261,25 261,54 262,90 L253,90 L243,90 L243,90 Z M277,88 C276,82 276,77 275,73 C283,76 290,78 297,78 C299,78 302,78 304,77 C306,76 308,75 309,73 C310,72 310,70 310,68 C310,67 310,66 309,64 C308,63 307,61 305,60 C303,57 299,53 292,48 C290,45 288,43 286,42 C284,40 282,38 281,36 C279,34 278,32 278,30 C277,28 277,26 277,24 C276,20 277,16 279,13 C281,9 284,6 289,4 C293,2 298,1 304,1 C310,1 317,2 324,4 C324,8 325,13 326,19 C319,16 313,15 308,15 C304,15 301,16 299,18 C296,20 295,22 295,24 L295,27 C296,27 296,28 296,29 C297,29 297,30 298,32 L302,36 C304,37 306,38 307,39 L315,46 C317,48 318,50 320,51 C321,53 323,54 324,56 C325,57 326,59 326,60 C327,61 328,63 328,64 C328,65 329,67 329,68 C329,72 328,75 327,78 C325,82 323,84 320,86 C317,88 314,90 311,91 C307,91 303,92 299,92 C297,92 294,92 290,91 C287,91 282,90 277,88 L277,88 Z M386,1 C392,1 398,2 404,4 C409,6 414,9 419,13 C423,17 427,21 429,26 C431,32 433,38 433,45 C433,51 432,58 430,64 C429,70 426,75 421,79 C417,83 412,87 406,89 C400,91 393,92 387,92 C380,92 374,91 368,89 C362,87 357,84 352,80 C348,76 344,71 342,66 C340,60 339,55 339,49 C339,42 340,35 342,29 C344,23 347,18 352,14 C356,10 361,7 367,5 C373,2 379,1 386,1 L386,1 Z M386,15 C380,15 375,17 370,19 C366,22 362,26 360,32 C358,37 357,42 358,48 C358,54 359,59 361,64 C364,68 367,72 372,74 C376,77 381,78 387,78 C391,78 395,77 398,76 C402,74 405,72 407,69 C410,66 412,63 413,58 C414,54 415,50 414,45 C414,41 414,37 412,33 C411,29 409,26 406,23 C404,20 401,18 397,17 C393,16 390,15 386,15 L386,15 Z M491,90 C496,83 500,77 503,72 C507,66 510,60 513,55 C515,51 517,48 518,44 C519,41 519,39 520,36 L520,30 C520,27 520,24 518,22 C517,19 516,18 513,16 C511,15 509,15 506,15 C503,15 501,15 498,17 C496,18 494,20 493,22 C492,25 491,27 491,30 C492,33 492,35 493,37 C494,39 496,41 498,42 C500,43 503,44 506,44 C507,44 508,43 510,43 C511,43 512,43 514,42 C511,47 508,51 506,56 L500,56 C495,56 490,55 486,53 C482,51 479,48 477,45 C475,41 474,37 474,32 C474,26 475,21 477,16 C480,12 484,8 489,5 C494,3 500,1 507,1 C511,1 516,2 520,3 C524,5 527,7 530,9 C533,12 535,15 536,19 C537,22 538,26 538,29 L538,37 C537,41 537,44 535,47 C534,51 533,55 531,59 C529,63 527,68 524,73 C521,78 517,83 513,90 L503,90 L491,90 L491,90 Z M583,1 C589,1 594,3 599,6 C604,9 607,13 610,20 C613,26 614,33 615,42 C615,49 614,55 613,62 C612,69 610,74 607,78 C605,83 601,86 596,88 C592,91 587,92 581,92 C576,92 572,91 568,89 C563,86 560,84 557,80 C555,76 553,72 552,67 C550,62 550,57 550,52 C549,45 550,38 551,32 C552,25 554,19 557,15 C560,10 564,7 568,5 C573,3 577,1 583,1 L583,1 Z M583,15 C581,15 579,15 578,16 C577,16 575,17 574,19 C572,20 571,22 571,24 C570,26 569,28 568,31 C568,34 567,37 567,41 L567,53 C567,59 568,63 569,67 C570,71 572,74 574,76 C576,78 579,79 582,79 C583,79 585,78 586,78 C588,77 589,76 591,74 C592,72 594,69 595,66 C596,62 597,58 597,54 C597,50 598,46 597,41 C597,36 597,31 595,27 C594,23 592,20 590,18 C588,16 585,15 583,15 L583,15 Z M658,1 C665,1 670,3 675,6 C679,9 683,13 686,20 C688,26 690,33 690,42 C690,49 690,55 689,62 C687,69 685,74 683,78 C680,83 677,86 672,88 C667,91 662,92 657,92 C652,92 647,91 643,89 C639,86 636,84 633,80 C630,76 628,72 627,67 C626,62 625,57 625,52 C625,45 625,38 627,32 C628,25 630,19 633,15 C636,10 639,7 644,5 C648,3 653,1 658,1 L658,1 Z M658,15 C657,15 655,15 654,16 C652,16 651,17 649,19 C648,20 647,22 646,24 C645,26 645,28 644,31 C643,34 643,37 643,41 C642,45 642,49 642,53 C643,59 643,63 644,67 C646,71 647,74 650,76 C652,78 655,79 657,79 C659,79 661,78 662,78 C663,77 665,76 666,74 C668,72 669,69 670,66 L673,54 L673,41 C673,36 672,31 671,27 C670,23 668,20 666,18 C664,16 661,15 658,15 L658,15 Z M727,90 C728,84 728,76 728,68 L728,42 L728,20 C726,21 725,22 724,23 C723,23 721,25 717,28 L717,19 C718,15 717,13 717,11 L723,8 C725,6 726,5 727,5 C727,4 728,4 729,3 L738,3 L747,3 L747,12 L747,20 L746,71 L746,79 L746,84 L746,90 L737,90 L727,90 L727,90 Z M779,42 L779,25 L788,25 L796,25 L796,35 L796,42 L788,42 L779,42 L779,42 Z M779,90 L779,73 L788,73 L796,73 L796,82 L796,90 L788,90 L779,90 L779,90 Z M810,90 L810,86 L810,77 C815,72 820,68 824,63 C828,59 832,54 836,49 C840,44 843,40 845,37 C847,34 848,32 849,31 C849,30 850,29 850,28 L850,25 C850,23 849,21 848,19 C847,18 845,17 842,16 C840,15 837,15 834,15 L825,15 C822,16 818,17 812,18 L813,12 C813,10 814,8 814,4 C823,2 832,1 841,1 C845,1 849,2 852,3 C856,3 859,5 862,7 C865,9 867,11 869,13 C870,16 871,18 871,21 L871,26 C870,27 870,29 869,30 C868,33 867,36 866,38 C864,41 861,44 858,49 C855,53 851,58 847,63 C843,67 838,72 833,78 L839,78 L852,77 L862,77 L870,77 C870,78 870,80 869,82 L869,90 L841,90 L810,90 L810,90 Z M917,1 C923,1 929,3 934,6 C938,9 942,13 945,20 C947,26 949,33 949,42 C949,49 949,55 948,62 C946,69 944,74 942,78 C939,83 936,86 931,88 C926,91 921,92 916,92 C911,92 906,91 902,89 C898,86 895,84 892,80 C889,76 887,72 886,67 C885,62 884,57 884,52 C884,45 884,38 886,32 C887,25 889,19 892,15 C894,10 898,7 903,5 C907,3 912,1 917,1 L917,1 Z M917,15 C916,15 914,15 913,16 C911,16 910,17 908,19 C907,20 906,22 905,24 C904,26 904,28 903,31 C902,34 902,37 901,41 L901,53 C901,59 902,63 903,67 C905,71 906,74 909,76 C911,78 913,79 916,79 C918,79 919,78 921,78 C922,77 924,76 925,74 C927,72 928,69 929,66 L932,54 L932,41 C932,36 931,31 930,27 C929,23 927,20 925,18 C923,16 920,15 917,15 L917,15 Z M993,1 C999,1 1005,3 1009,6 C1014,9 1018,13 1020,20 C1023,26 1024,33 1025,42 C1025,49 1024,55 1023,62 C1022,69 1020,74 1017,78 C1015,83 1011,86 1007,88 C1002,91 997,92 992,92 C986,92 982,91 978,89 C974,86 970,84 967,80 C965,76 963,72 962,67 C961,62 960,57 960,52 C959,45 960,38 961,32 C963,25 965,19 967,15 C970,10 974,7 978,5 C983,3 988,1 993,1 L993,1 Z M993,15 C991,15 990,15 988,16 C987,16 985,17 984,19 C983,20 982,22 981,24 C980,26 979,28 978,31 C978,34 977,37 977,41 L977,53 C977,59 978,63 979,67 C980,71 982,74 984,76 C987,78 989,79 992,79 C994,79 995,78 997,78 L1001,74 C1002,72 1004,69 1005,66 C1006,62 1007,58 1007,54 C1008,50 1008,46 1008,41 C1007,36 1007,31 1005,27 C1004,23 1003,20 1000,18 C998,16 996,15 993,15 L993,15 Z M1053,46 C1050,44 1048,43 1047,42 C1045,41 1044,40 1043,38 C1041,37 1040,35 1040,33 C1039,31 1039,29 1039,26 C1039,22 1039,19 1041,15 C1042,12 1045,9 1048,7 C1051,5 1054,3 1058,3 C1061,2 1065,1 1069,1 C1073,1 1077,2 1080,3 C1084,4 1087,5 1090,8 C1092,10 1094,12 1095,15 C1097,18 1097,21 1097,24 L1097,29 C1097,31 1096,33 1096,34 C1095,36 1094,37 1093,39 L1090,42 L1084,45 C1086,46 1088,47 1090,47 C1091,48 1092,49 1094,50 C1095,51 1096,52 1097,54 C1098,55 1099,57 1099,59 C1100,61 1100,62 1100,64 C1100,69 1100,72 1098,76 C1096,80 1094,83 1091,85 C1088,87 1085,89 1080,90 C1076,91 1072,92 1068,92 C1064,92 1060,91 1056,90 C1052,90 1048,88 1045,86 C1042,84 1040,81 1038,78 C1037,75 1036,72 1036,68 L1036,62 C1037,60 1037,58 1038,56 C1039,54 1041,52 1042,51 C1043,50 1045,49 1046,48 C1048,47 1050,47 1053,46 L1053,46 Z M1068,14 C1064,14 1061,15 1058,18 C1056,20 1055,24 1055,28 C1055,30 1055,32 1057,34 C1058,36 1059,38 1061,38 C1063,39 1066,40 1068,40 C1070,40 1073,39 1075,38 C1077,37 1079,35 1080,33 C1081,31 1082,29 1082,26 C1081,22 1080,19 1078,17 C1075,15 1072,14 1068,14 L1068,14 Z M1068,52 C1063,52 1059,53 1057,56 C1054,58 1053,62 1053,66 C1053,68 1054,71 1055,73 C1056,75 1058,76 1060,77 C1063,79 1065,79 1068,79 C1071,79 1074,79 1076,77 C1078,76 1080,74 1081,72 C1083,70 1083,67 1083,64 C1083,60 1082,57 1079,55 C1077,53 1073,52 1068,52 L1068,52 Z M1212,74 C1211,79 1211,84 1210,89 C1206,90 1201,91 1198,91 C1194,92 1191,92 1188,92 C1182,92 1176,91 1170,89 C1165,87 1160,84 1155,81 C1151,77 1147,72 1145,67 C1143,61 1142,55 1141,49 C1141,41 1142,35 1144,29 C1147,23 1150,18 1154,14 C1158,10 1164,6 1170,4 C1176,2 1182,1 1189,1 C1195,1 1202,2 1210,4 C1210,8 1211,10 1211,12 L1211,19 C1207,17 1203,17 1200,16 C1197,16 1194,15 1191,15 C1187,15 1183,16 1179,17 C1175,19 1171,21 1169,24 C1166,27 1163,31 1162,35 C1160,39 1160,44 1160,48 C1160,54 1161,59 1163,63 C1166,68 1169,71 1174,74 C1178,77 1184,78 1190,78 C1196,78 1204,77 1212,74 L1212,74 Z M1279,76 C1278,78 1278,83 1277,89 C1273,90 1269,91 1266,91 C1263,92 1260,92 1257,92 C1252,92 1247,91 1243,90 C1239,89 1235,87 1232,84 C1228,81 1226,77 1224,73 C1223,69 1222,64 1222,60 C1221,54 1222,49 1224,44 C1225,39 1227,35 1230,32 C1233,29 1237,27 1241,26 C1245,24 1249,24 1253,24 C1258,24 1261,24 1265,25 C1269,26 1272,28 1275,31 C1277,33 1279,36 1281,39 C1282,43 1283,47 1283,51 L1283,57 L1239,57 C1238,59 1238,60 1239,61 C1239,64 1239,67 1240,69 C1241,71 1243,73 1244,75 C1246,77 1248,78 1251,79 C1253,80 1256,80 1258,80 C1261,80 1264,80 1267,79 C1270,78 1274,77 1279,76 L1279,76 Z M1239,50 L1267,50 L1267,45 C1267,44 1266,43 1266,42 C1265,41 1265,40 1264,39 L1261,36 C1260,36 1259,35 1258,35 C1257,34 1255,34 1254,34 C1252,34 1250,35 1249,35 C1247,36 1246,37 1245,38 C1243,39 1242,40 1241,41 C1241,42 1240,44 1240,45 C1239,46 1239,48 1239,50 L1239,50 Z M1294,90 L1294,60 L1294,42 L1294,31 L1294,25 L1302,25 L1310,25 L1310,34 C1312,32 1313,30 1314,29 L1317,26 C1319,25 1320,25 1322,24 L1327,24 L1332,24 C1332,28 1332,33 1333,39 C1331,39 1328,38 1327,38 C1324,38 1322,39 1320,39 C1319,40 1317,41 1316,43 C1314,44 1313,46 1312,48 C1312,50 1311,53 1311,55 C1311,58 1310,61 1310,67 C1310,72 1310,77 1311,83 L1311,90 L1303,90 L1294,90 L1294,90 Z M1379,77 C1379,79 1378,84 1377,90 C1374,91 1371,91 1369,91 C1367,92 1366,92 1364,92 C1361,92 1358,91 1356,91 L1350,88 C1348,86 1347,84 1347,82 C1346,80 1346,78 1346,76 L1346,74 L1346,65 L1346,38 L1338,38 L1338,26 L1347,26 L1347,13 L1354,12 C1356,11 1359,11 1363,10 L1363,26 L1378,26 L1378,38 L1363,38 C1363,56 1362,66 1363,68 C1363,71 1363,73 1364,74 C1364,76 1365,77 1366,78 C1368,78 1369,79 1370,79 C1371,79 1372,78 1373,78 C1375,78 1376,78 1379,77 L1379,77 Z M1389,14 C1389,10 1389,6 1388,4 L1388,2 L1397,2 L1406,2 L1406,6 L1406,14 L1398,14 L1389,14 L1389,14 Z M1388,90 C1388,84 1389,78 1389,74 L1389,51 L1389,25 L1398,25 L1406,25 L1406,46 L1406,70 L1406,90 L1397,90 L1388,90 L1388,90 Z" id="Shape" fill="#373435" sketch:type="MSShapeGroup"></path>
            <path d="M1423,90 L1424,80 L1424,38 L1416,38 C1417,37 1417,35 1417,32 L1417,26 L1425,26 L1425,23 L1425,13 C1425,10 1426,8 1427,7 C1428,5 1429,4 1431,3 L1437,0 L1443,0 C1448,0 1453,0 1458,2 C1458,7 1459,11 1459,14 C1455,13 1452,12 1448,12 L1445,12 C1444,13 1443,13 1442,14 C1442,14 1441,15 1441,16 C1440,17 1440,18 1440,19 L1440,23 L1440,26 L1455,26 L1455,38 L1441,38 C1440,55 1440,72 1441,90 L1432,90 L1423,90 L1423,90 Z M1464,14 L1464,4 L1464,2 L1473,2 L1482,2 L1482,6 L1482,14 L1473,14 L1464,14 L1464,14 Z M1464,90 L1464,74 C1465,67 1465,59 1465,51 C1465,42 1465,33 1464,25 L1473,25 L1482,25 C1482,33 1482,40 1481,46 C1481,53 1481,61 1482,70 L1482,90 L1473,90 L1464,90 L1464,90 Z M1551,76 C1551,78 1550,83 1549,89 C1545,90 1541,91 1538,91 C1535,92 1532,92 1529,92 C1524,92 1519,91 1515,90 C1511,89 1507,87 1504,84 C1501,81 1498,77 1497,73 C1495,69 1494,64 1494,60 C1494,54 1494,49 1496,44 C1498,39 1500,35 1503,32 C1506,29 1509,27 1513,26 C1517,24 1521,24 1526,24 C1530,24 1534,24 1538,25 C1541,26 1545,28 1547,31 C1550,33 1552,36 1553,39 C1555,43 1556,47 1556,51 C1556,53 1556,55 1555,57 L1511,57 L1511,61 C1511,64 1512,67 1513,69 C1514,71 1515,73 1517,75 C1519,77 1521,78 1523,79 C1526,80 1528,80 1531,80 C1533,80 1536,80 1540,79 C1543,78 1547,77 1551,76 L1551,76 Z M1511,50 L1539,50 L1539,45 C1539,44 1539,43 1538,42 C1538,41 1537,40 1536,39 C1536,38 1535,37 1534,36 C1533,36 1532,35 1530,35 C1529,34 1528,34 1526,34 C1525,34 1523,35 1521,35 C1520,36 1518,37 1517,38 L1514,41 C1513,42 1513,44 1512,45 C1512,46 1511,48 1511,50 L1511,50 Z M1629,90 L1621,90 L1613,90 L1613,79 C1611,82 1610,83 1608,85 C1607,86 1606,87 1604,88 C1602,90 1600,90 1598,91 C1596,91 1593,92 1591,92 C1587,92 1584,91 1580,90 C1577,88 1574,86 1571,83 C1569,81 1567,77 1566,74 C1564,70 1564,66 1564,62 C1563,56 1564,51 1566,46 C1568,40 1570,36 1574,33 C1577,29 1581,27 1585,26 C1590,24 1595,24 1600,24 C1603,24 1608,24 1612,25 L1612,7 L1612,3 L1621,3 L1629,3 C1629,14 1629,28 1628,47 C1628,66 1628,80 1629,90 L1629,90 Z M1612,37 C1609,36 1606,36 1603,36 C1600,36 1597,36 1594,37 C1591,38 1589,40 1587,42 C1584,44 1583,47 1582,50 C1581,54 1580,57 1580,61 C1580,64 1581,67 1582,70 C1583,72 1585,75 1588,76 C1590,78 1593,79 1596,79 C1598,79 1600,78 1602,77 C1603,77 1605,75 1606,73 C1608,72 1609,70 1610,67 C1611,64 1612,60 1612,56 L1612,37 L1612,37 Z M1743,74 C1742,79 1742,84 1741,89 C1737,90 1732,91 1729,91 C1725,92 1721,92 1719,92 C1713,92 1707,91 1701,89 C1696,87 1691,84 1686,81 C1681,77 1678,72 1676,67 C1674,61 1673,55 1672,49 C1672,41 1673,35 1675,29 C1677,23 1681,18 1685,14 C1689,10 1694,6 1701,4 C1707,2 1713,1 1719,1 C1726,1 1733,2 1741,4 C1741,8 1741,10 1742,12 L1742,19 C1738,17 1734,17 1731,16 C1728,16 1725,15 1722,15 C1718,15 1714,16 1710,17 C1706,19 1702,21 1699,24 C1697,27 1694,31 1693,35 C1691,39 1691,44 1691,48 C1691,54 1692,59 1694,63 C1697,68 1700,71 1704,74 C1709,77 1715,78 1721,78 C1727,78 1735,77 1743,74 L1743,74 Z M1786,24 C1791,24 1795,24 1799,26 C1804,27 1807,29 1810,32 C1814,35 1816,39 1818,43 C1819,47 1820,51 1820,56 C1820,61 1820,66 1818,70 C1817,75 1815,79 1812,82 C1809,85 1805,88 1801,89 C1797,91 1792,92 1787,92 C1782,92 1778,91 1773,90 C1769,88 1765,86 1762,83 C1759,80 1757,76 1755,72 C1754,68 1753,64 1752,59 C1752,54 1753,50 1754,46 C1755,41 1757,37 1760,34 C1763,31 1767,28 1772,26 C1776,25 1781,24 1786,24 L1786,24 Z M1786,37 C1783,37 1780,38 1777,40 C1774,41 1772,44 1771,48 C1770,51 1769,55 1770,59 C1770,63 1770,66 1772,69 C1773,72 1775,74 1777,76 C1780,78 1783,79 1786,79 C1790,79 1793,78 1796,76 C1798,74 1800,72 1801,68 C1803,64 1803,60 1803,56 C1803,53 1802,49 1801,46 C1800,44 1798,41 1796,39 C1793,38 1790,37 1786,37 L1786,37 Z M1832,90 C1832,83 1832,72 1833,58 C1833,43 1833,32 1832,25 L1841,25 L1849,25 L1849,35 C1850,33 1851,32 1852,31 C1853,29 1854,28 1856,27 C1858,26 1860,25 1862,25 C1864,24 1866,24 1869,24 L1874,24 C1876,25 1877,25 1879,26 C1880,26 1881,27 1883,28 C1884,29 1884,30 1885,31 C1886,32 1887,33 1888,35 C1888,34 1889,33 1890,32 L1893,29 C1894,28 1895,27 1897,26 C1898,25 1900,25 1902,24 L1908,24 C1911,24 1915,24 1918,25 C1921,27 1924,29 1925,31 C1927,34 1928,37 1928,41 L1928,50 L1928,69 L1928,90 L1920,90 L1911,90 L1911,73 L1911,58 L1911,49 C1911,46 1911,44 1910,42 C1909,40 1908,39 1906,39 C1905,38 1903,38 1902,38 C1900,38 1898,38 1897,39 C1895,39 1894,41 1893,42 C1891,44 1890,46 1890,48 C1889,50 1889,53 1889,57 C1888,61 1888,66 1888,72 L1889,90 L1880,90 L1871,90 C1872,87 1872,80 1872,70 L1872,50 C1872,48 1872,46 1871,45 C1871,43 1870,42 1870,41 C1869,40 1868,39 1866,38 L1862,38 C1859,38 1857,39 1855,41 C1853,43 1851,45 1851,48 C1850,52 1849,58 1849,68 L1849,90 L1841,90 L1832,90 L1832,90 Z M1942,120 C1943,108 1943,92 1943,73 L1943,27 C1950,26 1956,25 1961,24 L1973,24 C1978,24 1983,24 1988,26 C1993,27 1996,29 1999,33 C2002,36 2004,39 2006,44 C2007,48 2008,52 2008,57 C2008,62 2008,66 2007,70 C2006,75 2004,79 2001,82 C1999,85 1996,88 1993,89 C1989,91 1986,92 1981,92 C1979,92 1977,91 1974,91 C1972,90 1970,89 1968,89 C1966,88 1965,87 1964,86 L1959,81 L1959,109 L1959,113 C1959,114 1959,116 1960,120 L1951,120 L1942,120 L1942,120 Z M1960,39 L1960,45 L1959,52 L1959,59 C1959,61 1960,64 1960,66 C1961,69 1962,71 1964,73 C1965,75 1967,76 1969,77 C1971,79 1973,79 1976,79 C1979,79 1982,78 1984,76 C1986,74 1988,72 1990,68 C1991,65 1991,61 1991,57 C1991,52 1990,48 1989,45 C1987,42 1985,40 1982,39 C1980,37 1977,36 1974,36 C1969,36 1965,37 1960,39 L1960,39 Z M2023,39 L2023,33 C2023,32 2024,30 2024,27 C2029,26 2034,25 2038,24 L2050,24 C2055,24 2059,24 2063,25 C2067,26 2069,28 2072,30 C2074,33 2075,36 2075,41 L2075,59 L2075,90 L2066,90 L2058,90 L2058,72 L2059,56 C2057,57 2056,58 2055,59 C2054,59 2053,59 2052,60 C2051,60 2050,61 2047,61 C2045,62 2043,63 2041,63 C2040,64 2038,65 2037,65 L2034,68 L2032,70 L2032,74 C2032,75 2032,77 2033,78 C2034,79 2036,80 2037,81 C2039,81 2040,82 2042,82 C2044,82 2045,82 2047,81 C2048,81 2050,81 2052,80 C2052,82 2051,86 2050,91 C2047,91 2045,91 2043,92 L2038,92 C2033,92 2029,91 2026,90 C2022,88 2020,86 2018,83 C2016,80 2016,76 2015,73 C2015,71 2016,70 2016,68 C2017,66 2018,64 2019,63 C2020,61 2021,60 2023,58 L2031,54 C2034,53 2039,52 2045,51 C2046,50 2048,50 2049,49 C2051,49 2052,48 2053,48 C2054,47 2055,47 2056,46 C2057,45 2057,44 2057,44 C2058,43 2058,42 2058,41 C2058,40 2057,38 2056,37 C2055,36 2054,35 2052,35 C2050,34 2049,34 2047,34 C2039,34 2031,36 2023,39 L2023,39 Z M2089,90 C2090,81 2090,70 2091,58 L2091,25 L2099,25 L2108,25 L2108,36 C2109,34 2110,33 2111,32 C2112,30 2113,29 2114,28 C2116,27 2117,26 2119,26 C2120,25 2122,25 2124,24 L2131,24 C2134,24 2138,24 2141,25 C2145,26 2147,28 2149,30 C2151,32 2153,34 2154,37 C2154,39 2155,42 2155,44 L2155,50 L2155,78 L2155,90 L2147,90 L2137,90 C2137,87 2138,80 2138,71 L2138,52 C2138,49 2137,46 2136,44 C2135,42 2133,41 2131,40 C2129,39 2127,38 2124,38 C2122,38 2120,39 2118,40 C2116,41 2114,42 2112,44 C2111,46 2110,48 2109,51 C2108,54 2107,59 2107,66 L2107,90 L2099,90 L2089,90 L2089,90 Z M2163,120 C2162,113 2161,109 2160,106 C2164,108 2168,109 2172,109 C2173,109 2174,109 2175,108 C2176,108 2177,108 2178,107 L2179,106 C2180,105 2181,104 2182,102 C2183,100 2184,99 2185,97 C2185,96 2186,94 2186,92 L2172,53 L2162,25 L2171,25 L2180,25 C2181,29 2182,32 2183,34 L2189,54 C2191,61 2192,65 2193,68 C2194,71 2195,73 2195,77 C2196,73 2197,70 2198,67 C2200,63 2202,57 2204,49 L2209,34 L2212,25 L2221,25 L2229,25 L2208,80 L2199,105 C2197,108 2196,110 2195,112 C2194,114 2193,115 2192,116 C2190,117 2189,118 2188,119 C2186,119 2184,120 2182,121 L2175,121 L2170,121 C2167,121 2165,120 2163,120 L2163,120 Z" id="Shape" fill="#373435" sketch:type="MSShapeGroup"></path>
        </g>
    </g>
</svg>