<?xml version="1.0" encoding="UTF-8" standalone="no"?>
<svg width="2299px" height="768px" viewBox="0 0 2299 768" version="1.1" xmlns="http://www.w3.org/2000/svg" xmlns:xlink="http://www.w3.org/1999/xlink" xmlns:sketch="http://www.bohemiancoding.com/sketch/ns">
    <!-- Generator: Sketch 3.3.1 (12005) - http://www.bohemiancoding.com/sketch -->
    <title>vankonlogo2</title>
    <desc>Created with Sketch.</desc>
    <defs></defs>
    <g id="Page-1" stroke="none" stroke-width="1" fill="none" fill-rule="evenodd" sketch:type="MSPage">
        <g id="vankonlogo2" sketch:type="MSLayerGroup">
            <g id="Group" sketch:type="MSShapeGroup">
                <path d="M0,210 L154,572 L300,572 L450,211 L308,211 L226,435 L149,211 L0,210 Z" id="Shape" fill="#F58634"></path>
                <path d="M227,217 C258,217 283,242 283,273 C283,303 258,328 227,328 C197,328 172,303 172,273 C172,242 197,217 227,217 L227,217 Z" id="Shape" fill="#F58634"></path>
                <path d="M561,350 L641,571 L586,571 L533,432 L561,350 Z" id="Shape" fill="#F58634"></path>
                <path d="M1867,308 L1867,212 L2003,212 L2155,419 L2153,212 L2292,212 L2293,582 L2155,582 L2003,371 L2003,582 L1864,582 L1865,487 C1818,592 1635,619 1512,561 L1484,546 L1452,503 L1430,473 C1414,423 1411,371 1430,324 C1447,281 1473,256 1516,235 C1598,195 1691,191 1774,228 C1816,247 1841,270 1867,308 L1867,308 Z M1603,307 C1617,300 1634,297 1650,298 C1667,298 1677,299 1693,306 C1714,315 1725,326 1731,346 C1746,396 1737,463 1711,483 C1689,497 1668,499 1649,500 C1626,500 1603,493 1591,481 C1564,454 1555,399 1571,346 C1578,327 1584,315 1603,307 L1603,307 Z" id="Shape" fill="#373435"></path>
                <path d="M344,572 L496,203 L646,203 L761,466 L761,204 L897,203 L1045,405 L1046,203 L1189,203 L1189,329 L1324,203 L1494,203 L1331,339 L1511,572 L1341,573 L1227,425 L1189,455 L1189,573 L1048,573 L899,369 L899,573 L664,573 L573,317 L485,572 L344,572 Z" id="Shape" fill="#373435"></path>
                <path d="M1867,298 L1867,203 L2003,203 L2155,409 L2153,203 L2292,203 L2293,572 L2155,572 L2003,361 L2003,572 L1864,572 L1865,477 C1818,583 1635,610 1512,552 L1484,536 L1452,494 L1430,463 C1414,413 1411,361 1430,315 C1447,271 1473,247 1516,226 C1598,185 1691,181 1774,219 C1816,237 1841,261 1867,298 L1867,298 Z M1603,297 C1617,290 1634,288 1650,288 C1667,288 1677,289 1693,296 C1714,305 1725,316 1731,337 C1746,386 1737,453 1711,473 C1689,488 1668,489 1649,490 C1626,490 1603,484 1591,472 C1564,444 1555,390 1571,336 C1578,317 1584,306 1603,297 L1603,297 Z" id="Shape" fill="#373435"></path>
                <path d="M8,95 C12,87 17,76 22,64 L38,30 C43,20 47,11 50,3 L61,3 L73,3 L83,31 L105,87 L108,95 L98,95 L87,95 C86,91 84,85 82,79 C79,72 77,66 76,62 L42,62 C38,73 34,84 29,95 L19,95 L8,95 L8,95 Z M48,48 L72,48 L61,17 L56,28 L48,48 L48,48 Z M115,95 C116,85 116,73 116,61 C117,48 116,36 116,26 C120,26 123,27 125,27 C128,27 131,26 134,26 L134,38 C135,36 136,34 137,33 C138,32 139,31 141,30 C142,29 144,28 146,27 C147,26 149,26 151,25 L158,25 C162,25 166,25 169,26 C172,27 175,29 177,31 C180,33 181,36 182,38 C183,41 183,44 183,47 L183,52 L183,82 L183,95 L174,95 L165,95 L165,74 C166,65 166,58 165,55 C165,52 165,49 164,47 C162,44 161,43 159,42 C156,41 154,40 151,40 C149,40 147,40 144,42 C142,43 140,44 139,46 C137,48 136,51 135,54 C134,57 134,62 134,69 C133,75 133,84 133,95 L125,95 L115,95 L115,95 Z M232,95 L232,47 C233,31 232,19 232,10 L232,3 L242,3 L252,3 C251,27 251,57 252,95 L243,95 L232,95 L232,95 Z M267,93 C267,86 266,80 265,76 C274,80 281,82 288,82 C291,82 293,82 295,81 C298,80 299,79 300,77 C301,76 302,74 302,72 C302,70 302,69 301,68 C300,66 299,64 297,63 C294,60 290,56 284,50 C280,48 278,46 277,45 C275,42 273,40 271,38 L268,32 C267,29 267,27 267,25 C267,21 268,17 270,13 C272,9 275,7 279,5 C284,2 289,1 296,1 C302,1 309,2 316,4 C317,8 317,14 318,20 C311,17 305,16 300,16 C296,16 292,17 290,19 C287,21 286,23 286,26 C286,26 286,27 287,28 L287,30 C288,31 289,32 289,33 C290,34 292,36 294,37 C296,39 297,40 299,41 L307,49 C309,50 310,52 312,54 C314,55 315,57 316,59 C317,60 318,62 319,63 C320,64 320,66 320,67 C321,69 321,70 321,72 C321,76 321,79 319,82 C318,86 315,89 312,91 C309,93 306,94 302,95 C299,96 295,96 291,96 L281,96 C278,95 273,94 267,93 L267,93 Z M381,1 C388,1 394,2 399,4 C405,6 410,9 415,13 C420,17 423,22 426,28 C428,33 429,40 430,47 C430,54 429,60 427,67 C425,73 422,78 418,83 C413,88 408,91 402,93 C395,95 389,96 381,96 C375,96 368,95 362,93 C356,91 350,88 346,84 C341,80 338,75 336,69 C333,64 332,57 332,51 C332,44 333,37 335,31 C337,24 340,19 345,14 C350,10 355,7 361,5 C367,2 374,1 381,1 L381,1 Z M381,16 C374,16 369,17 364,20 C360,24 356,28 354,33 C352,39 351,44 351,51 C351,57 353,62 355,67 C358,72 361,75 366,78 C371,81 376,82 382,82 C386,82 390,81 393,80 C397,78 400,76 403,73 C406,70 408,66 409,61 C410,57 411,52 410,48 C410,43 410,39 408,35 C407,31 405,27 402,24 C399,21 396,19 392,18 C389,16 385,16 381,16 L381,16 Z M490,95 C495,87 499,81 503,75 C507,69 510,63 513,58 C515,54 517,50 518,47 C519,43 520,40 520,38 C521,36 521,34 521,32 C520,28 520,26 519,23 C517,20 516,19 513,17 C511,16 509,15 506,15 C503,15 500,16 498,17 C495,19 494,21 492,23 C491,26 491,28 491,31 C491,34 491,37 492,39 C493,41 495,43 498,44 C500,45 503,46 506,46 C507,46 508,46 509,45 C511,45 512,45 514,44 C511,49 508,54 506,58 C503,59 501,59 499,59 C494,59 490,58 485,56 C481,54 478,51 476,47 C473,43 472,38 472,34 C472,28 473,22 476,17 C478,12 482,8 488,6 C493,3 499,1 506,1 C511,1 516,2 520,3 C524,5 528,7 531,10 C533,12 536,16 537,19 C538,23 539,27 539,30 L539,39 C538,43 538,46 536,50 C535,53 534,57 532,62 C530,67 527,72 524,77 C521,82 518,88 513,95 L502,95 L490,95 L490,95 Z M585,1 C592,1 598,3 603,6 C607,9 611,14 614,21 C617,27 618,35 619,44 C619,51 618,58 617,65 C616,72 614,78 611,82 C608,87 605,90 600,93 C595,95 590,96 584,96 C579,96 574,95 570,93 C565,91 562,88 559,84 C556,80 554,75 553,70 C552,65 551,60 551,55 C551,47 551,40 553,33 C554,26 556,20 559,15 C562,11 566,7 570,5 C575,3 580,1 585,1 L585,1 Z M585,15 C584,15 582,16 581,16 C579,17 578,18 576,20 C575,21 574,23 573,25 C572,27 571,30 571,33 C570,36 569,39 569,43 L569,56 C569,62 570,67 571,70 C572,74 574,77 577,79 C579,81 582,83 585,83 C586,83 588,82 589,81 C591,81 592,79 594,78 C596,76 597,73 598,69 C599,65 600,61 600,57 C601,53 601,48 601,43 C601,37 600,32 599,28 C597,24 596,21 593,19 C591,16 588,15 585,15 L585,15 Z M664,1 C671,1 676,3 681,6 C686,9 690,14 693,21 C696,27 697,35 697,44 C698,51 697,58 696,65 C694,72 692,78 690,82 C687,87 683,90 679,93 C674,95 669,96 663,96 C658,96 653,95 648,93 C644,91 641,88 638,84 C635,80 633,75 632,70 C631,65 630,60 630,55 C629,47 630,40 631,33 C633,26 635,20 638,15 C641,11 644,7 649,5 C654,3 659,1 664,1 L664,1 Z M664,15 C662,15 661,16 659,16 C658,17 656,18 655,20 C654,21 652,23 652,25 C651,27 650,30 649,33 C649,36 648,39 648,43 C648,47 647,51 648,56 C648,62 649,67 650,70 C651,74 653,77 655,79 C658,81 660,83 663,83 C665,83 667,82 668,81 C670,81 671,79 673,78 C674,76 676,73 677,69 C678,65 679,61 679,57 C680,53 680,48 680,43 C679,37 679,32 677,28 C676,24 674,21 672,19 C670,16 667,15 664,15 L664,15 Z M736,95 C736,88 737,80 737,71 L737,44 L737,21 C735,22 734,23 733,24 C732,24 729,26 726,29 L726,20 L726,11 C727,11 729,9 731,8 C734,6 735,5 736,5 C736,4 737,4 738,3 L747,3 L757,3 L756,12 L756,21 L755,75 L756,83 L756,88 L756,95 L747,95 L736,95 L736,95 Z M790,44 L790,26 L799,27 C800,27 803,26 808,26 L808,36 L807,44 L799,44 L790,44 L790,44 Z M789,95 C790,92 790,86 790,77 L799,77 L807,77 L807,87 L807,95 L799,95 L789,95 L789,95 Z M822,95 L822,91 L822,81 C827,76 832,71 836,66 C840,62 845,57 849,51 C853,46 857,42 859,38 C861,36 862,34 863,32 C863,31 863,30 864,29 L864,26 C864,24 863,22 862,20 C860,19 858,17 856,17 C853,16 850,15 847,15 C844,15 841,16 838,16 C834,17 830,18 825,19 L826,12 L826,4 C836,2 845,1 854,1 C858,1 862,2 866,3 C870,3 873,5 876,7 C879,9 882,11 883,14 C885,16 885,19 885,22 L885,27 C885,29 884,30 884,32 C883,35 882,37 880,40 C878,43 876,47 872,51 C869,56 865,61 860,66 C856,71 851,76 846,81 L852,81 L866,81 L876,81 L884,81 L884,86 L884,95 L854,95 L822,95 L822,95 Z M934,1 C940,1 946,3 951,6 C956,9 959,14 962,21 C965,27 967,35 967,44 C967,51 967,58 965,65 C964,72 962,78 959,82 C957,87 953,90 948,93 C943,95 938,96 932,96 C927,96 922,95 918,93 C914,91 910,88 907,84 C905,80 902,75 901,70 C900,65 899,60 899,55 C899,47 899,40 901,33 C902,26 904,20 907,15 C910,11 914,7 918,5 C923,3 928,1 934,1 L934,1 Z M933,15 C932,15 930,16 929,16 C927,17 926,18 924,20 C923,21 922,23 921,25 C920,27 919,30 919,33 C918,36 918,39 917,43 L917,56 C917,62 918,67 919,70 C921,74 922,77 925,79 C927,81 930,83 933,83 C934,83 936,82 938,81 C939,81 941,79 942,78 C944,76 945,73 946,69 L949,57 L949,43 C949,37 948,32 947,28 C946,24 944,21 941,19 C939,16 937,15 933,15 L933,15 Z M1012,1 C1019,1 1025,3 1029,6 C1034,9 1038,14 1041,21 C1044,27 1045,35 1046,44 C1046,51 1045,58 1044,65 C1043,72 1041,78 1038,82 C1035,87 1032,90 1027,93 C1022,95 1017,96 1011,96 C1006,96 1001,95 997,93 C992,91 989,88 986,84 C983,80 981,75 980,70 C979,65 978,60 978,55 C978,47 978,40 979,33 C981,26 983,20 986,15 C989,11 992,7 997,5 C1002,3 1007,1 1012,1 L1012,1 Z M1012,15 C1011,15 1009,16 1008,16 C1006,17 1005,18 1003,20 C1002,21 1001,23 1000,25 C999,27 998,30 997,33 C997,36 996,39 996,43 L996,56 C996,62 997,67 998,70 C999,74 1001,77 1003,79 C1006,81 1008,83 1011,83 C1013,83 1015,82 1016,81 C1018,81 1019,79 1021,78 C1022,76 1024,73 1025,69 C1026,65 1027,61 1027,57 C1028,53 1028,48 1028,43 C1027,37 1027,32 1025,28 C1024,24 1022,21 1020,19 C1018,16 1015,15 1012,15 L1012,15 Z M1075,48 C1072,47 1070,46 1068,45 C1067,44 1066,42 1064,40 C1063,39 1062,37 1061,35 C1061,32 1060,30 1060,28 C1060,23 1061,20 1062,16 C1064,13 1066,10 1070,7 C1073,5 1076,4 1080,3 C1084,2 1088,1 1092,1 C1096,1 1100,2 1103,3 C1107,4 1110,6 1113,8 C1116,10 1118,13 1119,16 C1120,19 1121,22 1121,25 L1121,31 C1121,33 1120,34 1119,36 C1119,38 1118,39 1117,40 C1115,42 1114,43 1113,44 C1112,45 1110,46 1107,48 C1110,48 1112,49 1113,50 C1115,51 1116,51 1117,53 C1119,54 1120,55 1121,57 C1122,58 1123,60 1123,62 C1124,64 1124,66 1124,68 C1124,72 1123,76 1122,80 C1120,84 1118,87 1115,89 C1112,92 1108,94 1104,95 C1099,96 1095,96 1090,96 C1086,96 1082,96 1078,95 C1074,94 1070,93 1067,90 C1064,88 1061,85 1060,82 C1058,79 1057,76 1057,71 C1057,69 1057,67 1058,65 C1058,63 1059,61 1060,59 C1061,57 1062,55 1064,54 C1065,52 1067,51 1068,51 C1069,50 1072,49 1075,48 L1075,48 Z M1091,14 C1087,14 1083,16 1080,19 C1078,21 1077,25 1077,29 C1077,32 1078,34 1079,36 C1080,38 1082,39 1084,40 C1086,41 1088,42 1090,42 C1093,42 1096,41 1098,40 C1100,39 1102,37 1103,35 C1104,32 1105,30 1105,27 C1105,23 1103,20 1101,18 C1098,16 1095,14 1091,14 L1091,14 Z M1091,54 C1085,54 1081,56 1079,59 C1076,61 1075,65 1075,69 C1075,72 1076,74 1077,76 C1078,78 1080,80 1083,81 C1085,83 1088,83 1091,83 C1094,83 1096,83 1099,81 C1101,80 1103,78 1105,76 C1106,73 1106,70 1106,67 C1106,63 1105,60 1102,58 C1099,56 1096,54 1091,54 L1091,54 Z M1240,78 C1240,83 1239,89 1239,94 C1234,95 1229,96 1225,96 L1215,96 C1209,96 1203,95 1197,94 C1191,92 1186,89 1181,85 C1177,81 1173,76 1171,70 C1169,64 1167,58 1167,51 C1167,44 1168,37 1170,30 C1172,24 1176,19 1180,14 C1185,10 1190,7 1196,5 C1203,2 1209,1 1216,1 C1223,1 1230,2 1238,4 C1239,8 1239,11 1239,12 L1240,20 C1235,18 1231,17 1228,17 C1225,16 1222,16 1219,16 C1214,16 1210,17 1206,18 C1202,20 1198,22 1195,25 C1192,28 1190,32 1188,37 C1187,41 1186,46 1186,51 C1186,57 1188,62 1190,66 C1192,71 1196,75 1200,78 C1205,81 1211,82 1218,82 C1224,82 1232,81 1240,78 L1240,78 Z M1310,80 C1309,82 1309,87 1308,94 C1304,95 1300,96 1297,96 L1287,96 C1282,96 1277,96 1272,95 C1268,94 1264,91 1261,88 C1257,85 1255,81 1253,77 C1251,72 1251,68 1250,63 C1250,57 1251,52 1252,46 C1254,41 1257,37 1260,34 C1263,30 1266,28 1271,27 C1275,25 1279,25 1284,25 C1288,25 1292,25 1296,26 C1300,28 1303,29 1306,32 C1308,35 1311,38 1312,41 C1314,45 1314,49 1315,54 C1315,56 1315,58 1314,60 L1268,60 L1268,64 C1268,67 1269,70 1270,72 C1271,75 1272,77 1274,79 C1276,81 1278,82 1281,83 C1284,84 1286,84 1289,84 C1291,84 1295,84 1298,83 C1301,82 1305,81 1310,80 L1310,80 Z M1268,52 L1298,52 C1298,50 1298,49 1297,48 C1297,47 1297,45 1296,44 C1296,43 1295,42 1294,41 C1294,40 1293,39 1292,38 C1291,37 1290,37 1288,37 C1287,36 1285,36 1284,36 C1282,36 1280,36 1279,37 C1277,37 1276,38 1274,39 C1273,41 1272,42 1271,43 C1270,45 1270,46 1269,47 C1269,49 1269,50 1268,52 L1268,52 Z M1325,95 L1326,63 L1326,44 L1326,33 C1326,32 1326,30 1325,26 C1329,26 1332,27 1334,27 C1336,27 1339,26 1343,26 L1343,36 C1344,33 1345,32 1346,30 C1348,29 1349,28 1350,27 C1352,27 1353,26 1355,25 L1360,25 L1365,25 C1365,30 1366,35 1366,41 C1364,41 1362,40 1360,40 C1357,40 1355,41 1353,41 C1351,42 1350,43 1348,45 C1347,47 1346,49 1345,51 C1344,53 1344,55 1343,58 L1343,70 L1343,87 C1343,89 1343,92 1344,95 L1335,95 L1325,95 L1325,95 Z M1414,81 C1414,83 1413,88 1413,94 C1409,95 1406,96 1404,96 L1399,96 C1395,96 1393,96 1390,95 C1388,95 1386,94 1384,92 C1382,91 1381,89 1381,87 C1380,84 1380,82 1379,80 L1379,78 C1379,77 1380,73 1380,68 L1380,40 L1371,40 L1371,27 L1381,27 L1381,14 L1388,12 C1390,12 1393,11 1397,10 L1397,27 L1413,27 L1413,40 L1397,40 L1397,72 C1397,75 1398,77 1398,78 C1399,80 1400,81 1401,82 C1402,82 1404,83 1405,83 C1406,83 1407,82 1408,82 C1410,82 1412,82 1414,81 L1414,81 Z M1424,15 L1424,4 L1424,2 L1433,2 L1442,2 L1442,6 L1442,15 L1434,15 L1424,15 L1424,15 Z M1424,95 L1424,78 C1424,71 1425,62 1425,53 C1425,44 1424,35 1424,26 C1428,26 1431,27 1434,27 C1435,27 1438,26 1443,26 C1442,34 1442,42 1442,49 L1442,73 C1442,82 1442,90 1443,95 L1433,95 L1424,95 L1424,95 Z" id="Shape" fill="#373435"></path>
                <path d="M1460,95 L1461,84 L1461,40 L1453,40 L1453,33 L1453,27 L1462,27 L1462,24 L1462,13 C1462,11 1463,9 1464,7 C1465,5 1466,4 1468,3 C1470,1 1472,1 1474,0 L1481,0 C1486,0 1491,0 1496,2 C1497,7 1497,11 1497,15 C1493,13 1490,12 1486,12 C1485,12 1484,13 1483,13 C1482,13 1481,14 1480,14 C1480,15 1479,16 1479,17 C1478,18 1478,19 1478,20 L1478,24 L1478,27 L1494,27 C1494,30 1494,34 1493,40 L1478,40 L1478,95 L1469,95 L1460,95 L1460,95 Z M1503,15 L1503,4 L1503,2 L1512,2 L1521,2 L1521,6 L1521,15 L1512,15 L1503,15 L1503,15 Z M1502,95 C1503,88 1503,82 1503,78 L1503,53 L1503,26 C1507,26 1510,27 1512,27 C1514,27 1517,26 1521,26 L1521,49 L1521,73 L1521,95 L1512,95 L1502,95 L1502,95 Z M1593,80 C1593,82 1592,87 1592,94 C1587,95 1583,96 1580,96 L1571,96 C1565,96 1560,96 1556,95 C1552,94 1548,91 1544,88 C1541,85 1538,81 1537,77 C1535,72 1534,68 1534,63 C1534,57 1534,52 1536,46 C1538,41 1540,37 1543,34 C1546,30 1550,28 1554,27 C1558,25 1562,25 1567,25 C1571,25 1575,25 1579,26 C1583,28 1587,29 1589,32 C1592,35 1594,38 1596,41 C1597,45 1598,49 1598,54 L1598,60 L1552,60 C1551,62 1551,63 1552,64 C1552,67 1552,70 1553,72 C1554,75 1556,77 1558,79 C1560,81 1562,82 1564,83 C1567,84 1570,84 1572,84 C1575,84 1578,84 1581,83 C1585,82 1589,81 1593,80 L1593,80 Z M1552,52 L1581,52 L1581,48 C1581,47 1580,45 1580,44 C1579,43 1579,42 1578,41 L1575,38 C1574,37 1573,37 1572,37 C1570,36 1569,36 1567,36 C1566,36 1564,36 1562,37 C1561,37 1559,38 1558,39 C1556,41 1555,42 1555,43 C1554,45 1553,46 1553,47 C1552,49 1552,50 1552,52 L1552,52 Z M1674,95 L1666,95 L1657,95 L1657,83 C1656,86 1654,88 1653,89 C1652,90 1650,92 1648,93 L1642,96 L1635,96 C1631,96 1627,96 1623,94 C1620,93 1617,90 1614,87 C1612,85 1610,81 1608,77 C1607,73 1606,69 1606,65 C1606,59 1607,53 1609,48 C1611,42 1613,38 1617,34 C1620,31 1625,28 1629,27 C1634,26 1639,25 1644,25 C1648,25 1652,25 1657,26 L1657,8 L1657,3 L1666,3 L1675,3 C1674,14 1674,30 1674,50 L1674,95 L1674,95 Z M1657,39 C1653,38 1650,37 1648,37 C1644,37 1641,38 1638,39 C1635,40 1632,42 1630,44 C1628,46 1626,49 1625,53 C1624,57 1624,60 1624,64 C1624,67 1624,70 1626,73 C1627,76 1629,78 1631,80 C1634,82 1637,83 1640,83 C1642,83 1644,82 1646,81 C1648,80 1649,79 1651,77 C1652,75 1654,73 1655,70 C1656,67 1656,64 1657,59 L1657,39 L1657,39 Z M1793,78 C1792,83 1792,89 1791,94 C1786,95 1782,96 1778,96 L1768,96 C1761,96 1755,95 1750,94 C1744,92 1739,89 1734,85 C1729,81 1726,76 1723,70 C1721,64 1720,58 1720,51 C1719,44 1720,37 1723,30 C1725,24 1728,19 1733,14 C1737,10 1743,7 1749,5 C1755,2 1762,1 1769,1 C1775,1 1783,2 1791,4 C1791,8 1791,11 1792,12 L1792,20 C1787,18 1784,17 1780,17 C1777,16 1774,16 1771,16 C1767,16 1763,17 1758,18 C1754,20 1751,22 1748,25 C1745,28 1742,32 1741,37 C1739,41 1739,46 1739,51 C1739,57 1740,62 1742,66 C1745,71 1748,75 1753,78 C1758,81 1763,82 1770,82 C1777,82 1784,81 1793,78 L1793,78 Z M1838,25 C1843,25 1847,26 1852,27 C1856,29 1860,31 1863,34 C1866,37 1869,41 1871,45 C1872,49 1873,54 1873,59 C1874,64 1873,69 1871,74 C1870,78 1868,83 1865,86 C1862,90 1858,92 1853,94 C1849,96 1844,96 1839,96 C1834,96 1829,96 1825,94 C1820,93 1816,90 1813,87 C1810,84 1807,80 1806,76 C1804,71 1803,67 1803,62 C1803,57 1803,52 1805,48 C1806,43 1808,39 1811,36 C1814,32 1818,30 1823,28 C1828,26 1833,25 1838,25 L1838,25 Z M1838,39 C1835,39 1831,40 1829,42 C1826,43 1824,46 1822,50 C1821,54 1821,58 1821,62 C1821,66 1822,70 1823,73 C1824,76 1826,78 1829,80 C1831,82 1835,83 1838,83 C1842,83 1845,82 1848,80 C1851,78 1853,75 1854,71 C1855,68 1856,63 1856,59 C1855,55 1855,52 1854,49 C1852,46 1850,43 1848,41 C1845,40 1842,39 1838,39 L1838,39 Z M1886,95 L1886,61 L1886,26 C1890,26 1892,27 1895,27 C1897,27 1900,26 1903,26 L1903,37 C1904,35 1905,33 1906,32 C1908,31 1909,30 1911,28 C1912,27 1914,26 1917,26 C1919,25 1922,25 1924,25 L1930,25 C1931,26 1933,26 1934,27 C1936,28 1937,28 1938,29 C1939,30 1940,31 1941,32 C1942,33 1943,35 1943,37 C1944,36 1945,34 1946,33 L1949,30 C1950,29 1952,28 1953,27 C1955,26 1956,26 1958,25 L1965,25 C1968,25 1972,25 1975,27 C1978,28 1981,30 1983,33 C1985,36 1986,39 1986,43 L1986,53 C1986,57 1986,63 1985,73 C1985,82 1985,90 1986,95 L1977,95 L1968,95 L1968,77 L1968,61 L1968,51 C1968,48 1968,46 1967,44 C1966,42 1964,41 1963,41 C1961,40 1960,40 1958,40 C1956,40 1954,40 1953,41 C1951,41 1950,43 1949,44 C1947,46 1947,48 1946,50 C1945,53 1945,56 1945,60 C1944,64 1944,69 1944,76 L1945,95 L1936,95 L1927,95 L1927,74 L1927,52 L1927,47 C1926,46 1926,44 1925,43 C1924,42 1923,41 1921,40 L1917,40 C1914,40 1912,41 1910,43 C1907,45 1906,47 1905,51 C1904,54 1904,61 1903,71 C1903,81 1903,89 1904,95 L1895,95 L1886,95 L1886,95 Z M2000,126 C2001,113 2001,97 2001,77 L2001,29 C2009,27 2015,26 2019,26 C2024,25 2028,25 2032,25 C2038,25 2043,26 2048,27 C2053,28 2057,31 2060,34 C2063,38 2065,41 2066,46 C2068,50 2069,55 2069,60 C2069,65 2069,69 2067,74 C2066,78 2064,83 2062,86 C2059,90 2056,92 2053,94 C2049,96 2045,96 2041,96 C2039,96 2036,96 2034,95 C2031,95 2029,94 2027,93 C2026,92 2024,91 2023,90 C2022,89 2020,87 2018,85 L2018,114 L2018,119 L2018,126 L2010,126 L2000,126 L2000,126 Z M2019,41 C2019,43 2018,45 2018,47 L2018,55 L2018,62 C2018,65 2019,67 2019,70 C2020,72 2021,74 2023,77 C2024,79 2026,80 2028,81 C2031,83 2033,83 2035,83 C2038,83 2041,82 2044,80 C2046,78 2048,75 2050,72 C2051,68 2051,64 2051,60 C2051,55 2050,51 2049,48 C2047,44 2045,42 2042,40 C2039,39 2036,38 2033,38 C2029,38 2024,39 2019,41 L2019,41 Z M2084,41 C2084,38 2085,36 2085,35 L2085,29 C2091,27 2096,26 2100,26 C2105,25 2109,25 2113,25 C2118,25 2122,25 2126,27 C2130,28 2133,29 2135,32 C2137,35 2139,38 2139,43 C2139,45 2139,52 2138,62 L2138,95 L2129,95 L2120,95 C2121,89 2121,83 2121,76 L2121,59 L2118,62 C2117,62 2116,62 2115,63 C2114,63 2112,64 2109,65 C2107,65 2105,66 2103,67 C2102,67 2100,68 2099,69 C2098,69 2097,70 2096,71 C2095,72 2094,73 2094,74 C2094,75 2093,76 2093,77 C2094,79 2094,81 2095,82 C2096,84 2098,84 2099,85 C2101,86 2103,86 2105,86 C2106,86 2107,86 2109,85 C2110,85 2112,85 2115,84 C2114,86 2113,90 2112,95 C2109,96 2107,96 2105,96 L2100,96 C2095,96 2091,96 2087,94 C2084,93 2081,90 2079,87 C2078,84 2077,80 2077,77 C2076,75 2077,73 2077,71 C2078,69 2079,68 2080,66 C2081,64 2083,63 2084,61 C2086,60 2089,59 2093,57 C2096,56 2101,54 2107,53 C2109,53 2110,52 2112,52 C2114,51 2115,51 2116,50 C2117,50 2118,49 2119,48 C2119,48 2120,47 2120,46 C2121,45 2121,44 2121,43 C2121,41 2120,40 2119,39 C2118,38 2116,37 2115,36 L2109,36 C2101,36 2093,38 2084,41 L2084,41 Z M2154,95 C2154,85 2155,73 2155,61 L2155,26 C2159,26 2162,27 2164,27 C2167,27 2170,26 2173,26 L2172,38 C2174,36 2175,34 2176,33 L2179,30 C2181,29 2182,28 2184,27 C2186,26 2188,26 2190,25 L2197,25 C2200,25 2204,25 2207,26 C2211,27 2214,29 2216,31 C2218,33 2220,36 2220,38 C2221,41 2222,44 2222,47 L2222,52 L2221,82 L2221,95 L2213,95 L2203,95 C2204,91 2204,84 2204,74 L2204,55 C2204,52 2203,49 2202,47 C2201,44 2199,43 2197,42 C2195,41 2192,40 2190,40 C2187,40 2185,40 2183,42 C2181,43 2179,44 2177,46 C2176,48 2174,51 2174,54 C2173,57 2172,62 2172,69 L2172,95 L2163,95 L2154,95 L2154,95 Z M2230,126 C2229,119 2228,114 2227,111 C2232,113 2235,114 2239,114 L2242,114 C2243,114 2244,113 2245,113 C2246,112 2247,112 2247,111 C2248,110 2249,109 2250,107 C2251,106 2252,104 2253,102 C2253,101 2254,99 2254,96 L2240,55 L2229,26 C2234,26 2237,27 2239,27 C2241,27 2244,26 2248,26 C2249,30 2250,33 2250,36 L2257,57 C2259,64 2261,69 2262,72 C2262,74 2263,77 2264,80 C2265,76 2266,73 2267,71 C2268,66 2270,60 2273,52 L2278,36 C2279,33 2280,30 2281,26 C2285,26 2288,27 2290,27 C2292,27 2295,26 2299,26 L2277,84 L2267,110 C2266,113 2265,116 2263,118 C2262,119 2261,121 2260,122 C2259,123 2257,124 2256,125 C2254,125 2252,126 2250,127 C2248,127 2245,128 2243,128 C2241,128 2240,127 2237,127 C2235,127 2232,126 2230,126 L2230,126 Z" id="Shape" fill="#373435"></path>
                <path d="M114,765 L114,666 L169,666 L169,679 L130,679 L130,704 L169,704 L169,718 L130,718 L130,751 L169,751 L169,765 L114,765 L114,765 Z M212,765 L212,666 L229,666 L229,751 L265,751 L265,765 L212,765 L212,765 Z M303,765 L303,666 L358,666 L358,679 L319,679 L319,704 L358,704 L358,718 L319,718 L319,751 L358,751 L358,765 L303,765 L303,765 Z M481,690 C477,686 472,683 467,681 C462,679 456,678 451,678 C440,678 431,682 424,689 C417,695 414,705 414,716 C414,726 417,735 424,742 C431,749 439,753 449,753 C455,753 460,752 466,750 C471,747 476,744 481,740 L481,758 C477,761 472,764 467,765 C462,767 456,768 450,768 C443,768 436,766 429,764 C423,761 417,758 412,753 C407,748 404,743 401,736 C398,730 397,723 397,715 C397,708 398,701 401,695 C404,689 407,683 412,678 C417,673 423,669 429,667 C436,664 443,663 450,663 C456,663 461,664 467,666 C472,667 477,670 482,673 L481,690 L481,690 Z M558,679 L558,765 L542,765 L542,679 L516,679 L516,666 L584,666 L584,679 L558,679 L558,679 Z M638,708 L641,708 C649,708 655,707 658,705 C661,703 662,699 662,694 C662,689 660,685 657,683 C654,681 649,679 641,679 L638,679 L638,708 L638,708 Z M637,721 L637,765 L622,765 L622,666 L644,666 C651,666 656,666 660,667 C663,668 666,669 669,671 C672,674 674,677 676,680 C678,684 679,688 679,693 C679,701 677,707 673,712 C669,716 663,719 656,720 L690,765 L672,765 L639,721 L637,721 L637,721 Z M725,765 L725,666 L741,666 L741,765 L725,765 L725,765 Z M869,690 C864,686 859,683 854,681 C849,679 844,678 838,678 C827,678 818,682 811,689 C805,695 801,705 801,716 C801,726 805,735 811,742 C818,749 826,753 836,753 C842,753 848,752 853,750 C858,747 864,744 868,740 L868,758 C864,761 859,764 854,765 C849,767 844,768 838,768 C830,768 823,766 816,764 C810,761 804,758 799,753 C795,748 791,743 788,736 C786,730 784,723 784,715 C784,708 786,701 788,695 C791,689 795,683 800,678 C805,673 810,669 817,667 C823,664 830,663 837,663 C843,663 849,664 854,666 C859,667 864,670 869,673 L869,690 L869,690 Z M934,726 L962,726 L952,703 C951,702 951,700 950,698 C949,696 949,694 948,692 C948,694 947,696 946,698 C946,700 945,702 945,703 L934,726 L934,726 Z M979,765 L968,739 L928,739 L917,765 L900,765 L948,662 L996,765 L979,765 L979,765 Z M1030,765 L1030,666 L1046,666 L1046,751 L1083,751 L1083,765 L1030,765 L1030,765 Z M1183,726 L1211,726 L1201,703 C1200,702 1200,700 1199,698 C1198,696 1198,694 1197,692 C1197,694 1196,696 1195,698 C1195,700 1194,702 1194,703 L1183,726 L1183,726 Z M1228,765 L1217,739 L1177,739 L1166,765 L1149,765 L1197,662 L1245,765 L1228,765 L1228,765 Z M1357,690 C1352,686 1347,683 1342,681 C1337,679 1332,678 1326,678 C1315,678 1306,682 1300,689 C1293,695 1289,705 1289,716 C1289,726 1293,735 1299,742 C1306,749 1314,753 1324,753 C1330,753 1336,752 1341,750 C1347,747 1352,744 1357,740 L1357,758 C1352,761 1347,764 1342,765 C1337,767 1332,768 1326,768 C1318,768 1311,766 1305,764 C1298,761 1293,758 1288,753 C1283,748 1279,743 1276,736 C1274,730 1273,723 1273,715 C1273,708 1274,701 1276,695 C1279,689 1283,683 1288,678 C1293,673 1298,669 1305,667 C1311,664 1318,663 1325,663 C1331,663 1337,664 1342,666 C1347,667 1353,670 1358,673 L1357,690 L1357,690 Z M1481,690 C1477,686 1472,683 1467,681 C1462,679 1456,678 1451,678 C1440,678 1431,682 1424,689 C1417,695 1414,705 1414,716 C1414,726 1417,735 1424,742 C1431,749 1439,753 1449,753 C1455,753 1461,752 1466,750 C1471,747 1476,744 1481,740 L1481,758 C1477,761 1472,764 1467,765 C1462,767 1456,768 1450,768 C1443,768 1436,766 1429,764 C1423,761 1417,758 1412,753 C1407,748 1404,743 1401,736 C1398,730 1397,723 1397,715 C1397,708 1398,701 1401,695 C1404,689 1407,683 1412,678 C1417,673 1423,669 1429,667 C1436,664 1443,663 1450,663 C1456,663 1461,664 1467,666 C1472,667 1477,670 1482,673 L1481,690 L1481,690 Z M1526,765 L1526,666 L1582,666 L1582,679 L1542,679 L1542,704 L1582,704 L1582,718 L1542,718 L1542,751 L1582,751 L1582,765 L1526,765 L1526,765 Z M1619,745 L1632,739 C1633,744 1636,747 1639,749 C1642,752 1646,753 1651,753 C1656,753 1660,751 1663,749 C1666,746 1667,743 1667,738 C1667,732 1662,727 1653,722 C1651,722 1650,721 1649,721 C1638,716 1631,711 1627,706 C1624,702 1622,697 1622,691 C1622,682 1625,676 1630,671 C1636,666 1643,663 1652,663 C1659,663 1665,665 1670,668 C1675,670 1679,674 1681,680 L1668,686 C1666,683 1664,681 1661,679 C1659,678 1656,677 1653,677 C1649,677 1645,678 1643,681 C1640,683 1639,686 1639,690 C1639,696 1645,701 1656,706 C1657,707 1657,707 1658,707 C1668,712 1674,716 1678,721 C1682,725 1684,730 1684,737 C1684,746 1681,754 1675,759 C1669,765 1661,768 1651,768 C1642,768 1635,766 1630,762 C1624,758 1621,752 1619,745 L1619,745 Z M1720,745 L1733,739 C1734,744 1737,747 1740,749 C1743,752 1747,753 1752,753 C1757,753 1761,751 1764,749 C1767,746 1768,743 1768,738 C1768,732 1763,727 1754,722 C1752,722 1751,721 1751,721 C1740,716 1732,711 1729,706 C1725,702 1723,697 1723,691 C1723,682 1726,676 1731,671 C1737,666 1744,663 1753,663 C1760,663 1767,665 1771,668 C1776,670 1780,674 1782,680 L1769,686 C1767,683 1765,681 1762,679 C1760,678 1757,677 1754,677 C1750,677 1747,678 1744,681 C1741,683 1740,686 1740,690 C1740,696 1746,701 1757,706 C1758,707 1759,707 1759,707 C1769,712 1776,716 1779,721 C1783,725 1785,730 1785,737 C1785,746 1782,754 1776,759 C1770,765 1762,768 1752,768 C1743,768 1736,766 1731,762 C1726,758 1722,752 1720,745 L1720,745 Z M1912,715 C1912,710 1911,706 1910,701 C1908,697 1905,693 1902,689 C1898,686 1894,683 1890,681 C1886,679 1881,678 1876,678 C1871,678 1866,679 1862,681 C1858,683 1854,686 1850,689 C1847,693 1844,697 1842,701 C1841,706 1840,710 1840,715 C1840,721 1841,725 1842,730 C1844,734 1847,738 1850,742 C1854,745 1858,748 1862,750 C1866,752 1871,753 1876,753 C1881,753 1886,752 1890,750 C1894,748 1898,745 1902,742 C1905,738 1908,734 1910,730 C1911,725 1912,720 1912,715 L1912,715 Z M1929,715 C1929,723 1928,729 1925,736 C1923,742 1919,747 1914,752 C1908,757 1903,761 1896,764 C1890,766 1883,768 1876,768 C1869,768 1862,766 1856,764 C1849,761 1843,757 1838,752 C1833,747 1829,742 1827,736 C1824,729 1823,723 1823,715 C1823,708 1824,702 1827,695 C1829,689 1833,683 1838,678 C1843,674 1849,670 1856,667 C1862,665 1869,663 1876,663 C1883,663 1890,665 1896,667 C1903,670 1909,674 1914,678 C1919,683 1923,689 1925,695 C1928,702 1929,708 1929,715 L1929,715 Z M1989,708 L1992,708 C2000,708 2006,707 2009,705 C2011,703 2013,699 2013,694 C2013,689 2011,685 2008,683 C2005,681 2000,679 1992,679 L1989,679 L1989,708 L1989,708 Z M1988,721 L1988,765 L1972,765 L1972,666 L1995,666 C2002,666 2007,666 2010,667 C2014,668 2017,669 2020,671 C2023,674 2025,677 2027,680 C2029,684 2029,688 2029,693 C2029,701 2027,707 2024,712 C2020,716 2014,719 2007,720 L2041,765 L2023,765 L1989,721 L1988,721 L1988,721 Z M2075,765 L2075,666 L2092,666 L2092,765 L2075,765 L2075,765 Z M2140,765 L2140,666 L2195,666 L2195,679 L2156,679 L2156,704 L2195,704 L2195,718 L2156,718 L2156,751 L2195,751 L2195,765 L2140,765 L2140,765 Z M2233,745 L2246,739 C2247,744 2249,747 2252,749 C2256,752 2260,753 2265,753 C2270,753 2273,751 2276,749 C2279,746 2281,743 2281,738 C2281,732 2276,727 2266,722 C2265,722 2264,721 2263,721 C2252,716 2245,711 2241,706 C2237,702 2235,697 2235,691 C2235,682 2238,676 2244,671 C2249,666 2256,663 2265,663 C2273,663 2279,665 2284,668 C2289,670 2292,674 2294,680 L2281,686 C2279,683 2277,681 2275,679 C2272,678 2270,677 2267,677 C2262,677 2259,678 2256,681 C2254,683 2252,686 2252,690 C2252,696 2258,701 2269,706 C2270,707 2271,707 2271,707 C2281,712 2288,716 2292,721 C2295,725 2297,730 2297,737 C2297,746 2294,754 2288,759 C2282,765 2274,768 2264,768 C2256,768 2249,766 2243,762 C2238,758 2234,752 2233,745 L2233,745 Z" id="Shape" fill="#373435"></path>
            </g>
        </g>
    </g>
</svg>